<?xml version="1.0" standalone="no"?>
<!DOCTYPE svg PUBLIC "-//W3C//DTD SVG 20010904//EN"
 "http://www.w3.org/TR/2001/REC-SVG-20010904/DTD/svg10.dtd">
<svg version="1.0" xmlns="http://www.w3.org/2000/svg"
 width="1160.000000pt" height="1160.000000pt" viewBox="0 0 1160.000000 1160.000000"
 preserveAspectRatio="xMidYMid meet">
<metadata>
Created by potrace 1.11, written by Peter Selinger 2001-2013
</metadata>
<g transform="translate(0.000000,1160.000000) scale(0.100000,-0.100000)"
fill="#000000" stroke="none">
<path d="M1591 11190 c-5 -4 -7 -10908 -2 -10955 1 -11 2709 -16 2713 -5 0 3
2 1187 3 2633 1 1625 5 2626 11 2625 5 -1 24 -36 42 -77 18 -42 45 -103 61
-136 16 -33 38 -82 51 -110 12 -27 33 -72 45 -100 37 -78 85 -185 112 -245 13
-30 31 -68 38 -85 7 -16 34 -74 59 -128 25 -55 46 -100 46 -102 0 -2 23 -52
50 -110 28 -58 50 -108 50 -110 0 -3 15 -38 34 -77 19 -40 47 -100 62 -133 15
-33 42 -93 60 -133 19 -39 34 -74 34 -76 0 -2 20 -46 44 -97 62 -133 165 -360
171 -379 1 -3 20 -43 42 -90 22 -47 52 -113 68 -148 15 -34 31 -62 35 -62 3 0
22 18 41 41 19 23 42 51 53 63 10 11 37 43 60 70 22 27 56 64 74 82 17 18 32
38 32 43 0 5 4 11 8 13 8 3 41 39 142 157 25 29 54 63 65 75 11 13 43 49 70
81 28 31 56 63 63 70 6 8 12 19 12 25 0 6 5 8 10 5 6 -3 10 -3 10 2 0 4 14 24
31 43 17 19 54 62 82 94 29 32 61 70 72 84 11 14 32 38 48 54 15 16 27 33 27
38 0 6 4 10 8 10 5 0 21 17 35 37 15 21 27 33 27 28 1 -6 6 0 13 12 7 11 32
44 57 71 25 28 65 74 90 102 25 29 59 69 77 89 18 20 63 72 100 116 37 44 73
85 78 91 6 6 33 37 60 70 28 32 61 71 75 86 14 15 43 49 65 75 22 26 48 55 58
65 9 10 17 20 17 23 0 2 12 17 28 33 15 15 44 48 65 73 105 122 133 154 150
171 9 10 17 20 17 23 0 3 8 13 18 23 25 26 115 130 197 227 22 26 51 59 65 74
14 15 50 56 80 91 30 36 60 69 67 73 7 4 13 12 13 18 0 5 12 22 28 37 15 15
47 52 72 81 25 30 57 67 73 83 15 16 27 31 27 35 0 3 12 18 28 32 15 15 43 47
63 72 20 24 47 56 60 70 13 14 47 52 74 84 63 75 124 145 186 215 26 30 57 66
69 80 11 14 40 48 64 75 24 28 79 91 121 140 72 84 160 185 195 225 8 9 33 38
55 64 22 27 49 58 60 70 11 11 60 68 109 126 50 58 99 115 110 127 12 12 35
38 51 58 17 20 41 48 55 63 14 15 43 49 65 76 22 27 45 54 50 60 6 6 43 49 84
96 40 47 87 101 105 121 17 19 51 59 76 88 73 86 79 93 130 151 40 46 204 237
262 305 9 11 28 34 42 50 14 17 26 32 26 35 0 3 -759 5 -1688 5 l-1687 0 -35
-41 c-62 -72 -90 -109 -90 -117 0 -5 -4 -5 -10 -2 -5 3 -10 -1 -10 -9 0 -9 -4
-16 -10 -16 -5 0 -10 -6 -10 -14 0 -8 -4 -16 -9 -18 -5 -1 -41 -43 -81 -92
-39 -49 -77 -95 -83 -102 -7 -7 -23 -27 -37 -45 -14 -18 -29 -37 -35 -43 -5
-6 -43 -53 -84 -103 -41 -51 -78 -93 -83 -93 -5 0 -7 -4 -4 -9 4 -5 3 -11 -1
-13 -7 -2 -41 -42 -113 -131 -8 -10 -23 -28 -33 -40 -10 -12 -31 -37 -45 -56
-15 -19 -31 -39 -37 -45 -5 -6 -37 -45 -70 -86 -33 -41 -67 -82 -75 -90 -8 -8
-28 -33 -45 -55 -16 -22 -31 -42 -34 -45 -5 -4 -88 -105 -151 -184 -8 -10 -32
-37 -52 -60 -21 -22 -38 -47 -38 -53 0 -7 -3 -13 -7 -13 -5 0 -30 -28 -58 -62
-27 -35 -58 -72 -67 -83 -9 -11 -83 -101 -163 -200 -81 -99 -154 -189 -163
-200 -10 -11 -35 -42 -57 -70 -22 -27 -42 -52 -45 -55 -3 -3 -35 -41 -70 -85
-35 -44 -67 -82 -70 -85 -4 -4 -52 -64 -100 -124 -8 -10 -23 -27 -32 -38 -10
-10 -18 -20 -18 -22 0 -3 -11 -17 -25 -32 -14 -15 -36 -40 -48 -56 -12 -16
-30 -39 -41 -51 -10 -12 -30 -38 -45 -57 -14 -19 -31 -39 -37 -45 -6 -5 -28
-32 -50 -60 -21 -27 -42 -51 -46 -53 -5 -2 -8 -11 -8 -20 0 -11 -3 -13 -8 -5
-4 6 -7 1276 -6 2822 0 2544 -1 2811 -15 2812 -76 4 -2695 3 -2700 -1z"/>
<path d="M7328 4301 c-21 -26 -55 -65 -75 -87 -21 -23 -72 -78 -113 -124 -41
-46 -88 -97 -105 -115 -47 -50 -201 -217 -230 -250 -15 -16 -50 -55 -79 -86
-28 -30 -91 -100 -141 -154 -49 -54 -106 -116 -125 -136 -19 -21 -69 -75 -110
-120 -41 -45 -90 -99 -109 -118 -18 -20 -65 -72 -105 -115 -39 -44 -82 -91
-96 -106 -27 -29 -189 -205 -230 -250 -14 -15 -49 -53 -78 -85 l-52 -57 46
-86 c26 -48 59 -109 74 -137 43 -79 68 -129 68 -139 0 -5 5 -12 10 -15 5 -3
24 -36 42 -73 18 -38 37 -68 43 -68 6 0 8 -3 5 -6 -4 -3 8 -31 25 -62 18 -31
39 -70 47 -87 8 -16 19 -33 25 -37 5 -4 6 -8 1 -8 -5 0 -4 -6 1 -12 10 -13 61
-107 119 -218 16 -30 34 -58 39 -62 6 -4 6 -8 2 -8 -5 0 0 -12 10 -27 10 -16
27 -46 38 -68 11 -22 22 -42 25 -45 6 -6 32 -62 32 -70 0 -3 8 -16 18 -30 9
-14 40 -68 67 -120 74 -141 142 -268 173 -325 15 -27 42 -79 61 -115 18 -36
35 -67 38 -70 4 -3 34 -59 68 -125 34 -66 78 -152 99 -190 l37 -71 1464 0
c1324 0 1464 1 1460 15 -5 18 -320 549 -336 568 -6 7 -11 15 -11 18 0 3 -18
35 -40 71 -22 36 -40 70 -40 75 0 5 -4 9 -10 9 -5 0 -10 4 -10 9 0 5 -22 46
-50 91 -27 45 -50 83 -50 84 0 2 -49 85 -110 185 -60 100 -110 186 -110 190 0
4 -8 16 -17 27 -10 11 -27 35 -37 54 -25 46 -183 315 -211 360 -12 19 -34 54
-48 77 -15 24 -27 47 -27 53 0 5 -4 10 -8 10 -4 0 -13 12 -20 28 -15 34 -55
105 -63 112 -3 3 -19 28 -34 55 -16 28 -33 52 -37 53 -4 2 -8 8 -8 13 0 5 -37
71 -82 147 -46 75 -86 144 -91 152 -4 8 -16 29 -27 45 -11 17 -23 36 -27 44
-3 8 -41 71 -83 140 -41 70 -99 167 -128 216 -62 107 -69 117 -105 172 -15 24
-25 43 -21 43 4 0 0 8 -8 18 -8 9 -35 51 -59 92 -24 41 -46 77 -49 80 -3 3
-14 21 -24 40 -9 19 -37 67 -62 105 -24 39 -47 77 -51 85 -3 8 -21 38 -38 65
-17 28 -34 57 -39 65 -4 8 -12 24 -19 35 -7 11 -39 65 -71 120 -33 55 -63 102
-68 103 -4 2 -8 8 -8 14 0 12 -97 175 -108 182 -4 2 -24 -17 -44 -43z"/>
</g>
</svg>
