<svg width="442" height="302" viewBox="0 0 442 302" fill="none" xmlns="http://www.w3.org/2000/svg">
<g clip-path="url(#clip0)">
<path d="M441.076 170.304C439.102 187.224 435 200.808 429.369 211.643C421.877 226.078 409.061 231.894 397.613 237.98C394.305 239.736 390.865 241.232 387.326 242.455C366.493 249.688 343.177 247.769 324.862 243.95C312.016 241.269 298.976 239.62 285.867 239.018C282.129 238.85 278.386 238.766 274.64 238.767C268.863 238.775 164.85 240.75 139.525 189.461C133.273 176.809 128.987 161.354 127.448 142.516C123.091 89.2558 147.037 54.2763 177.924 31.4127C236.354 -11.8376 316.444 -10.0238 374.012 34.3657C412.358 63.9337 448.262 108.683 441.076 170.304Z" fill="#3F3D56"/>
<path d="M366.063 122.379C349.854 110.257 324.466 98.7927 296.409 90.9262C270.864 83.7635 245.947 80.3053 226.245 81.1884L226.142 78.8963C246.079 78.0031 271.254 81.4903 297.028 88.717C325.346 96.6569 351.009 108.257 367.436 120.542L366.063 122.379Z" fill="#F2F2F2"/>
<path d="M364.38 131.716C364.395 142.456 362.144 153.079 357.775 162.889C357.41 163.711 357.03 164.524 356.635 165.33C350.338 178.233 340.545 189.107 328.37 196.713C316.196 204.318 302.13 208.349 287.777 208.347C245.471 208.347 211.174 174.037 211.174 131.716C211.174 129.943 211.234 128.183 211.355 126.437C211.412 125.549 211.486 124.667 211.577 123.789C215.543 85.192 248.147 55.0859 287.777 55.0859C330.083 55.0859 364.38 89.3952 364.38 131.716Z" fill="#6C63FF"/>
<path opacity="0.1" d="M357.775 162.889C357.41 163.711 357.03 164.524 356.635 165.331C354.397 165.574 352.04 165.75 349.566 165.86C347.518 165.952 345.411 165.998 343.257 165.998C324.446 165.998 301.806 162.525 278.679 156.041C252.904 148.814 229.586 138.705 213.018 127.575C212.453 127.197 211.899 126.817 211.355 126.437C211.412 125.549 211.486 124.667 211.577 123.79C212.456 124.416 213.362 125.043 214.295 125.671C230.668 136.668 253.753 146.669 279.298 153.831C302.224 160.26 324.65 163.704 343.245 163.704C345.372 163.704 347.444 163.659 349.463 163.568C352.403 163.435 355.174 163.209 357.775 162.889Z" fill="black"/>
<path d="M343.257 164.163C324.446 164.163 301.806 160.689 278.679 154.205C252.905 146.978 229.586 136.869 213.017 125.74C196.103 114.378 188.172 103.183 190.684 94.2161C193.196 85.2494 205.789 79.8087 226.142 78.8962L226.245 81.1883C216.74 81.6144 208.994 83.0276 203.222 85.3887C197.464 87.7439 193.989 90.9223 192.892 94.8354C191.796 98.7484 193.114 103.271 196.809 108.277C200.514 113.295 206.397 118.529 214.296 123.835C230.667 134.832 253.752 144.833 279.298 151.996C302.225 158.424 324.649 161.869 343.246 161.869C345.371 161.869 347.443 161.824 349.463 161.734C358.967 161.307 366.713 159.894 372.485 157.533C378.243 155.178 381.719 152 382.815 148.087C384.784 141.06 378.835 131.93 366.063 122.379L367.436 120.542C374.008 125.457 378.873 130.302 381.896 134.941C385.137 139.916 386.189 144.547 385.024 148.706C382.511 157.673 369.918 163.113 349.565 164.026C347.517 164.117 345.411 164.163 343.257 164.163Z" fill="#F2F2F2"/>
<path d="M289.803 41.2655C290.288 41.2655 290.681 40.8724 290.681 40.3874C290.681 39.9024 290.288 39.5093 289.803 39.5093C289.319 39.5093 288.926 39.9024 288.926 40.3874C288.926 40.8724 289.319 41.2655 289.803 41.2655Z" fill="#F2F2F2"/>
<path d="M173.349 78.7369C173.834 78.7369 174.227 78.3438 174.227 77.8588C174.227 77.3739 173.834 76.9807 173.349 76.9807C172.864 76.9807 172.471 77.3739 172.471 77.8588C172.471 78.3438 172.864 78.7369 173.349 78.7369Z" fill="#F2F2F2"/>
<path d="M170.13 137.863C170.615 137.863 171.008 137.47 171.008 136.985C171.008 136.5 170.615 136.107 170.13 136.107C169.645 136.107 169.252 136.5 169.252 136.985C169.252 137.47 169.645 137.863 170.13 137.863Z" fill="#F2F2F2"/>
<path d="M349.201 46.2416C349.524 46.2416 349.786 45.9795 349.786 45.6562C349.786 45.3329 349.524 45.0708 349.201 45.0708C348.878 45.0708 348.616 45.3329 348.616 45.6562C348.616 45.9795 348.878 46.2416 349.201 46.2416Z" fill="#F2F2F2"/>
<path d="M419.718 128.789C420.041 128.789 420.303 128.527 420.303 128.204C420.303 127.881 420.041 127.618 419.718 127.618C419.394 127.618 419.132 127.881 419.132 128.204C419.132 128.527 419.394 128.789 419.718 128.789Z" fill="#F2F2F2"/>
<path d="M387.532 101.861C387.855 101.861 388.117 101.598 388.117 101.275C388.117 100.952 387.855 100.69 387.532 100.69C387.208 100.69 386.946 100.952 386.946 101.275C386.946 101.598 387.208 101.861 387.532 101.861Z" fill="#F2F2F2"/>
<path d="M226.309 59.4132C226.632 59.4132 226.894 59.1511 226.894 58.8278C226.894 58.5045 226.632 58.2424 226.309 58.2424C225.986 58.2424 225.724 58.5045 225.724 58.8278C225.724 59.1511 225.986 59.4132 226.309 59.4132Z" fill="#F2F2F2"/>
<path d="M385.483 120.886C385.807 120.886 386.069 120.624 386.069 120.301C386.069 119.977 385.807 119.715 385.483 119.715C385.16 119.715 384.898 119.977 384.898 120.301C384.898 120.624 385.16 120.886 385.483 120.886Z" fill="#F2F2F2"/>
<path d="M177.153 179.719C177.476 179.719 177.738 179.457 177.738 179.134C177.738 178.811 177.476 178.549 177.153 178.549C176.829 178.549 176.567 178.811 176.567 179.134C176.567 179.457 176.829 179.719 177.153 179.719Z" fill="#F2F2F2"/>
<path d="M211.972 203.721C212.295 203.721 212.557 203.459 212.557 203.136C212.557 202.812 212.295 202.55 211.972 202.55C211.649 202.55 211.387 202.812 211.387 203.136C211.387 203.459 211.649 203.721 211.972 203.721Z" fill="#F2F2F2"/>
<path d="M262.592 15.8763H261.784V15.0686H261.351V15.8763H260.543V16.3099H261.351V17.1176H261.784V16.3099H262.592V15.8763Z" fill="#F2F2F2"/>
<path d="M349.786 214.914H348.979V214.106H348.546V214.914H347.738V215.348H348.546V216.155H348.979V215.348H349.786V214.914Z" fill="#F2F2F2"/>
<path d="M403.917 202.913H403.11V202.106H402.676V202.913H401.869V203.347H402.676V204.155H403.11V203.347H403.917V202.913Z" fill="#F2F2F2"/>
<path d="M288.926 78.1516C292.481 78.1516 295.363 75.2686 295.363 71.7122C295.363 68.1558 292.481 65.2727 288.926 65.2727C285.37 65.2727 282.488 68.1558 282.488 71.7122C282.488 75.2686 285.37 78.1516 288.926 78.1516Z" fill="#3F3D56"/>
<path d="M239.476 125.277C243.031 125.277 245.913 122.394 245.913 118.837C245.913 115.281 243.031 112.398 239.476 112.398C235.921 112.398 233.039 115.281 233.039 118.837C233.039 122.394 235.921 125.277 239.476 125.277Z" fill="#3F3D56"/>
<path d="M310.578 189.964C314.133 189.964 317.015 187.081 317.015 183.525C317.015 179.968 314.133 177.085 310.578 177.085C307.023 177.085 304.141 179.968 304.141 183.525C304.141 187.081 307.023 189.964 310.578 189.964Z" fill="#3F3D56"/>
<path d="M288.926 135.229C292.481 135.229 295.363 132.346 295.363 128.789C295.363 125.233 292.481 122.35 288.926 122.35C285.37 122.35 282.488 125.233 282.488 128.789C282.488 132.346 285.37 135.229 288.926 135.229Z" fill="#3F3D56"/>
<path d="M242.695 170.646C246.25 170.646 249.132 167.763 249.132 164.206C249.132 160.65 246.25 157.767 242.695 157.767C239.14 157.767 236.258 160.65 236.258 164.206C236.258 167.763 239.14 170.646 242.695 170.646Z" fill="#3F3D56"/>
<path d="M323.452 100.69C327.007 100.69 329.89 97.8067 329.89 94.2502C329.89 90.6938 327.007 87.8108 323.452 87.8108C319.897 87.8108 317.015 90.6938 317.015 94.2502C317.015 97.8067 319.897 100.69 323.452 100.69Z" fill="#3F3D56"/>
<path d="M344.812 144.303C348.367 144.303 351.249 141.419 351.249 137.863C351.249 134.307 348.367 131.424 344.812 131.424C341.257 131.424 338.375 134.307 338.375 137.863C338.375 141.419 341.257 144.303 344.812 144.303Z" fill="#3F3D56"/>
<path d="M288.926 109.178C293.612 109.178 297.411 105.378 297.411 100.69C297.411 96.0018 293.612 92.2014 288.926 92.2014C284.239 92.2014 280.44 96.0018 280.44 100.69C280.44 105.378 284.239 109.178 288.926 109.178Z" fill="white"/>
<path d="M288.926 88.3962C285.744 88.3962 282.692 89.6606 280.443 91.9112C278.193 94.1618 276.929 97.2142 276.929 100.397C276.929 107.025 288.926 128.789 288.926 128.789C288.926 128.789 300.922 107.025 300.922 100.397C300.922 97.2142 299.658 94.1618 297.408 91.9112C295.159 89.6606 292.107 88.3962 288.926 88.3962ZM288.926 106.251C287.826 106.251 286.751 105.925 285.837 105.314C284.923 104.703 284.21 103.834 283.789 102.818C283.369 101.802 283.258 100.684 283.473 99.6048C283.687 98.526 284.217 97.535 284.994 96.7573C285.772 95.9795 286.763 95.4498 287.841 95.2352C288.919 95.0207 290.037 95.1308 291.053 95.5517C292.069 95.9726 292.937 96.6855 293.548 97.6C294.159 98.5146 294.485 99.5898 294.485 100.69C294.485 101.42 294.341 102.143 294.062 102.818C293.782 103.493 293.373 104.106 292.857 104.622C292.34 105.139 291.728 105.548 291.053 105.828C290.379 106.107 289.656 106.251 288.926 106.251V106.251Z" fill="#FF6584"/>
<path d="M242.695 145.473C247.381 145.473 251.18 141.673 251.18 136.985C251.18 132.297 247.381 128.497 242.695 128.497C238.008 128.497 234.209 132.297 234.209 136.985C234.209 141.673 238.008 145.473 242.695 145.473Z" fill="white"/>
<path d="M242.695 124.691C239.513 124.691 236.462 125.956 234.212 128.206C231.962 130.457 230.698 133.509 230.698 136.692C230.698 143.32 242.695 165.084 242.695 165.084C242.695 165.084 254.691 143.32 254.691 136.692C254.691 133.509 253.428 130.457 251.178 128.206C248.928 125.956 245.877 124.691 242.695 124.691ZM242.695 142.546C241.595 142.546 240.52 142.22 239.606 141.609C238.692 140.998 237.979 140.129 237.559 139.113C237.138 138.097 237.028 136.979 237.242 135.9C237.457 134.821 237.986 133.83 238.764 133.052C239.541 132.275 240.532 131.745 241.61 131.53C242.689 131.316 243.806 131.426 244.822 131.847C245.838 132.268 246.706 132.981 247.317 133.895C247.928 134.81 248.254 135.885 248.254 136.985C248.254 137.715 248.11 138.438 247.831 139.113C247.552 139.788 247.142 140.401 246.626 140.917C246.11 141.434 245.497 141.843 244.822 142.123C244.148 142.402 243.425 142.546 242.695 142.546Z" fill="#FF6584"/>
<path d="M344.812 119.13C349.498 119.13 353.297 115.33 353.297 110.642C353.297 105.954 349.498 102.153 344.812 102.153C340.126 102.153 336.327 105.954 336.327 110.642C336.327 115.33 340.126 119.13 344.812 119.13Z" fill="white"/>
<path d="M344.812 98.3481C341.63 98.3481 338.579 99.6125 336.329 101.863C334.079 104.114 332.815 107.166 332.815 110.349C332.815 116.977 344.812 138.741 344.812 138.741C344.812 138.741 356.809 116.977 356.809 110.349C356.809 107.166 355.545 104.114 353.295 101.863C351.045 99.6125 347.994 98.3481 344.812 98.3481ZM344.812 116.203C343.713 116.203 342.638 115.877 341.723 115.266C340.809 114.655 340.097 113.786 339.676 112.77C339.255 111.754 339.145 110.635 339.359 109.557C339.574 108.478 340.103 107.487 340.881 106.709C341.658 105.931 342.649 105.402 343.728 105.187C344.806 104.973 345.924 105.083 346.94 105.504C347.955 105.925 348.824 106.637 349.435 107.552C350.045 108.466 350.371 109.542 350.371 110.642C350.371 112.117 349.786 113.531 348.743 114.574C347.701 115.617 346.287 116.203 344.812 116.203Z" fill="#FF6584"/>
<path d="M288.926 52.101C293.612 52.101 297.411 48.3007 297.411 43.6126C297.411 38.9246 293.612 35.1243 288.926 35.1243C284.239 35.1243 280.44 38.9246 280.44 43.6126C280.44 48.3007 284.239 52.101 288.926 52.101Z" fill="white"/>
<path d="M288.926 31.3191C285.744 31.3191 282.692 32.5835 280.443 34.834C278.193 37.0846 276.929 40.1371 276.929 43.3199C276.929 49.9478 288.926 71.7121 288.926 71.7121C288.926 71.7121 300.922 49.9478 300.922 43.3199C300.922 40.1371 299.658 37.0846 297.408 34.834C295.159 32.5835 292.107 31.3191 288.926 31.3191ZM288.926 49.174C287.826 49.174 286.751 48.8478 285.837 48.2367C284.923 47.6256 284.21 46.7571 283.789 45.7408C283.369 44.7246 283.258 43.6064 283.473 42.5276C283.687 41.4488 284.217 40.4579 284.994 39.6801C285.772 38.9023 286.763 38.3727 287.841 38.1581C288.919 37.9435 290.037 38.0536 291.053 38.4746C292.069 38.8955 292.937 39.6083 293.548 40.5229C294.159 41.4374 294.485 42.5127 294.485 43.6126C294.485 45.0876 293.899 46.5021 292.857 47.5451C291.814 48.588 290.4 49.174 288.926 49.174Z" fill="#FF6584"/>
<path d="M310.578 164.792C315.264 164.792 319.063 160.991 319.063 156.303C319.063 151.615 315.264 147.815 310.578 147.815C305.892 147.815 302.093 151.615 302.093 156.303C302.093 160.991 305.892 164.792 310.578 164.792Z" fill="white"/>
<path d="M310.578 144.01C307.396 144.01 304.345 145.274 302.095 147.525C299.845 149.775 298.581 152.828 298.581 156.011C298.581 162.638 310.578 184.403 310.578 184.403C310.578 184.403 322.575 162.638 322.575 156.011C322.575 154.435 322.264 152.874 321.661 151.418C321.058 149.962 320.175 148.639 319.061 147.525C317.947 146.41 316.624 145.526 315.169 144.923C313.713 144.32 312.153 144.01 310.578 144.01ZM310.578 161.865C309.478 161.865 308.404 161.538 307.489 160.927C306.575 160.316 305.862 159.448 305.442 158.432C305.021 157.415 304.911 156.297 305.125 155.218C305.34 154.14 305.869 153.149 306.647 152.371C307.424 151.593 308.415 151.063 309.493 150.849C310.572 150.634 311.69 150.744 312.705 151.165C313.721 151.586 314.59 152.299 315.2 153.214C315.811 154.128 316.137 155.203 316.137 156.303C316.137 157.778 315.552 159.193 314.509 160.236C313.466 161.279 312.052 161.865 310.578 161.865Z" fill="#FF6584"/>
<path d="M239.476 99.519C244.163 99.519 247.962 95.7186 247.962 91.0306C247.962 86.3426 244.163 82.5422 239.476 82.5422C234.79 82.5422 230.991 86.3426 230.991 91.0306C230.991 95.7186 234.79 99.519 239.476 99.519Z" fill="white"/>
<path d="M239.476 78.7371C236.295 78.7371 233.243 80.0014 230.993 82.252C228.744 84.5026 227.48 87.5551 227.48 90.7379C227.48 97.3657 239.476 119.13 239.476 119.13C239.476 119.13 251.473 97.3657 251.473 90.7379C251.473 89.1619 251.163 87.6014 250.56 86.1454C249.957 84.6894 249.073 83.3664 247.959 82.252C246.845 81.1376 245.523 80.2537 244.067 79.6506C242.612 79.0475 241.052 78.7371 239.476 78.7371ZM239.476 96.5919C238.377 96.5919 237.302 96.2658 236.388 95.6547C235.473 95.0436 234.761 94.175 234.34 93.1588C233.919 92.1426 233.809 91.0244 234.024 89.9456C234.238 88.8668 234.768 87.8759 235.545 87.0981C236.323 86.3203 237.313 85.7906 238.392 85.5761C239.47 85.3615 240.588 85.4716 241.604 85.8925C242.62 86.3135 243.488 87.0263 244.099 87.9408C244.71 88.8554 245.036 89.9306 245.036 91.0306C245.036 92.5055 244.45 93.9201 243.407 94.963C242.365 96.006 240.951 96.5919 239.476 96.5919Z" fill="#FF6584"/>
<path d="M323.452 75.81C328.139 75.81 331.938 72.0096 331.938 67.3216C331.938 62.6336 328.139 58.8333 323.452 58.8333C318.766 58.8333 314.967 62.6336 314.967 67.3216C314.967 72.0096 318.766 75.81 323.452 75.81Z" fill="white"/>
<path d="M323.452 55.0281C320.271 55.0281 317.219 56.2924 314.969 58.543C312.72 60.7936 311.456 63.8461 311.456 67.0289C311.456 73.6568 323.452 95.4211 323.452 95.4211C323.452 95.4211 335.449 73.6568 335.449 67.0289C335.449 63.8461 334.185 60.7936 331.935 58.543C329.685 56.2924 326.634 55.0281 323.452 55.0281ZM323.452 72.8829C322.353 72.8829 321.278 72.5568 320.364 71.9457C319.449 71.3346 318.737 70.466 318.316 69.4498C317.895 68.4336 317.785 67.3154 318 66.2366C318.214 65.1578 318.744 64.1669 319.521 63.3891C320.299 62.6113 321.289 62.0817 322.368 61.8671C323.446 61.6525 324.564 61.7626 325.58 62.1835C326.596 62.6045 327.464 63.3173 328.075 64.2319C328.686 65.1464 329.012 66.2216 329.012 67.3216C329.012 68.7965 328.426 70.2111 327.383 71.2541C326.341 72.297 324.927 72.8829 323.452 72.8829Z" fill="#FF6584"/>
<path d="M161.328 294.466C161.328 298.627 125.214 302 80.664 302C36.1145 302 0 298.627 0 294.466C0 290.304 33.204 280.966 77.7535 280.966C122.303 280.966 161.328 290.304 161.328 294.466Z" fill="#3F3D56"/>
<path d="M85.0691 49.9641H53.4089V76.1749H85.0691V49.9641Z" fill="#2F2E41"/>
<path d="M107.781 269.297L110.514 279.777L103.226 280.916L99.81 269.98L107.781 269.297Z" fill="#A0616A"/>
<path d="M56.0839 267.702V278.865H48.3409L49.4795 267.702H56.0839Z" fill="#A0616A"/>
<path d="M101.859 278.865C101.859 278.865 107.325 276.359 110.514 278.865C113.702 281.372 115.296 287.067 115.296 287.067C115.296 287.067 123.495 297.547 113.93 297.091C104.365 296.635 103.909 295.496 103.909 293.902C103.909 292.307 104.365 290.484 102.77 289.801C101.176 289.117 100.493 285.928 100.949 285.017C101.404 284.105 101.859 278.865 101.859 278.865Z" fill="#2F2E41"/>
<path d="M57.4504 277.043C57.4504 277.043 49.935 272.234 48.3408 276.005C46.7467 279.777 44.4693 284.561 44.4693 284.561C44.4693 284.561 38.0926 294.585 46.0634 294.813C54.0343 295.041 55.4007 293.902 56.084 291.851C56.7672 289.801 56.084 288.206 57.4504 288.206C58.8168 288.206 59.5 285.244 58.8168 283.877C58.1336 282.511 57.4504 277.043 57.4504 277.043Z" fill="#2F2E41"/>
<path d="M79.0856 65.3988C79.0856 65.3988 77.2637 75.6507 82.0462 76.3341C86.8287 77.0176 91.6112 79.068 91.839 80.4349C92.0667 81.8018 73.1644 96.3822 73.1644 96.3822L61.5497 92.7371C61.5497 92.7371 49.935 89.7754 50.3905 87.4973C50.8459 85.2191 51.7569 82.0296 51.7569 82.0296C51.7569 82.0296 64.9658 79.2958 65.1935 75.195C65.4212 71.0943 67.0154 64.4875 67.0154 64.4875L79.0856 65.3988Z" fill="#A0616A"/>
<path opacity="0.1" d="M79.0856 65.3988C79.0856 65.3988 77.2637 75.6507 82.0462 76.3341C86.8287 77.0176 91.6112 79.068 91.839 80.4349C92.0667 81.8018 73.1644 96.3822 73.1644 96.3822L61.5497 92.7371C61.5497 92.7371 49.935 89.7754 50.3905 87.4973C50.8459 85.2191 51.7569 82.0296 51.7569 82.0296C51.7569 82.0296 64.9658 79.2958 65.1935 75.195C65.4212 71.0943 67.0154 64.4875 67.0154 64.4875L79.0856 65.3988Z" fill="black"/>
<path d="M49.024 129.644C49.024 129.644 57.273 137.524 73.645 136.773C90.017 136.023 88.6506 141.718 88.6506 141.718L87.9674 150.831C87.9674 150.831 96.6215 188.877 95.4828 208.925C95.4828 208.925 95.9383 218.493 99.1266 223.733C102.315 228.973 110.969 267.702 109.603 270.664C108.236 273.625 98.2156 272.486 98.2156 272.486C98.2156 272.486 88.8783 237.174 84.3236 229.201C79.7688 221.227 79.3133 216.671 79.3133 216.671L63.8271 171.562L61.7774 191.155C61.7774 191.155 62.0052 206.647 62.0052 208.013C62.0052 209.38 61.7774 220.316 60.8665 222.594C59.9555 224.872 56.5394 261.323 58.5891 267.474C60.6387 273.625 47.8853 270.208 47.8853 270.208C47.8853 270.208 44.0138 230.568 45.1525 222.822C46.2912 215.076 43.3306 201.179 43.3306 201.179C43.3306 201.179 34.6765 158.804 39.459 151.97C39.459 151.97 42.6474 128.732 44.2415 128.96L49.024 129.644Z" fill="#2F2E41"/>
<path d="M72.595 70.2969C79.5127 70.2969 85.1206 64.687 85.1206 57.7669C85.1206 50.8467 79.5127 45.2368 72.595 45.2368C65.6773 45.2368 60.0694 50.8467 60.0694 57.7669C60.0694 64.687 65.6773 70.2969 72.595 70.2969Z" fill="#A0616A"/>
<path d="M40.5977 136.934C40.83 137.631 43.5469 136.196 46.1568 134.622C48.6665 133.109 51.0737 131.466 51.0737 131.466C53.8065 140.124 71.1147 136.706 71.1147 136.706C71.1147 136.706 71.158 136.768 71.2377 136.877C71.8093 137.654 74.2757 140.894 77.2637 143.085C80.6797 145.591 88.6506 139.668 88.6506 139.668C88.6506 139.668 101.044 109.976 102.629 94.2476C102.978 90.787 102.805 88.0008 101.859 86.3582C96.6215 77.2455 89.2518 78.3937 89.2518 78.3937C88.0288 81.5945 78.1746 86.3582 78.1746 86.3582L68.3818 88.1808C58.5891 90.0033 55.6285 79.7515 55.6285 79.7515C52.8956 79.2958 47.8853 84.3079 47.8853 84.3079C43.1028 85.6748 40.5977 101.622 40.5977 101.622C40.5977 101.622 41.0737 102.214 41.8161 103.16C42.2352 103.691 42.7385 104.333 43.2896 105.046C43.4809 105.292 43.6767 105.547 43.8771 105.807C46.4028 109.101 49.5934 113.432 50.3905 115.291C51.7569 118.481 49.024 123.265 45.8357 123.037C42.6473 122.809 40.1422 135.567 40.5977 136.934Z" fill="#6C63FF"/>
<path d="M72.7089 149.236C72.7089 149.236 62.0052 162.678 57.2226 157.893C52.4401 153.109 71.1147 141.946 71.1147 141.946L72.7089 149.236Z" fill="#A0616A"/>
<path d="M45.608 145.135C45.608 145.135 54.9452 159.26 49.7072 159.716C44.4692 160.172 38.0926 150.375 38.0926 150.375L45.608 145.135Z" fill="#A0616A"/>
<path d="M44.3105 77.5545C45.5118 74.9026 47.1263 72.4139 47.8956 69.606C48.8177 66.2404 48.4586 62.6794 48.3489 59.1915C48.2519 56.1081 48.3602 52.9889 49.1293 50.0016C49.8985 47.0142 51.3698 44.1474 53.6703 42.093C59.5369 36.854 70.2737 36.4778 77.4372 38.6588C80.2613 39.5186 83.2697 41.1559 83.9699 44.0247C84.0757 44.4578 84.1231 44.9041 84.2411 45.3339C84.8276 47.4699 87.0119 48.8213 87.8 50.8913C88.8194 53.5686 87.2476 56.4802 87.0421 59.3377C86.8023 62.6739 88.4417 65.8256 90.0576 68.7539C91.0182 70.4946 92.017 72.349 91.9217 74.3351C91.842 75.4213 91.5119 76.4743 90.9571 77.4116C89.0193 80.8652 85.0631 82.9565 81.1054 83.0608C79.8205 83.0947 78.4739 82.9185 77.4152 82.1893C75.667 80.9851 75.1549 78.5602 75.5191 76.4683C75.8833 74.3764 76.9448 72.4845 77.7765 70.5309C78.0317 69.9314 78.262 69.3218 78.4744 68.706C81.0534 67.2658 83.0408 64.9603 84.0856 62.1966C85.1304 59.4329 85.1653 56.3888 84.1843 53.6018C83.2032 50.8148 81.2693 48.4643 78.724 46.9652C76.1787 45.4662 73.1857 44.915 70.2736 45.4092C67.3615 45.9033 64.7176 47.4109 62.8089 49.6658C60.9001 51.9206 59.8491 54.7776 59.8417 57.7324C59.8342 60.6871 60.8707 63.5494 62.768 65.8139C64.6654 68.0783 67.3016 69.5993 70.2112 70.1081C70.8383 73.2687 70.5533 76.5425 69.3894 79.547C68.4245 82.0273 66.9197 84.2543 65.4274 86.4577C64.714 87.5111 63.9717 88.5933 62.9033 89.2835C62.2297 89.6824 61.5068 89.9913 60.753 90.2022C57.591 91.2195 54.2613 92.038 50.9714 91.5804C47.6815 91.1227 44.4234 89.1378 43.3024 86.01C42.3201 83.2694 43.1091 80.2064 44.3105 77.5545Z" fill="#2F2E41"/>
<path d="M71.684 57.7669C79.2306 57.7669 85.3484 54.2989 85.3484 50.021C85.3484 45.7431 79.2306 42.2751 71.684 42.2751C64.1374 42.2751 58.0197 45.7431 58.0197 50.021C58.0197 54.2989 64.1374 57.7669 71.684 57.7669Z" fill="#2F2E41"/>
<path opacity="0.1" d="M71.2377 136.877C71.8093 137.654 74.2757 140.893 77.2636 143.085C80.6797 145.591 88.6506 139.668 88.6506 139.668C88.6506 139.668 101.044 109.976 102.629 94.2475C101.764 91.6363 100.747 89.078 99.5821 86.5859L102.201 97.1795C102.201 97.1795 90.4725 106.634 87.9674 110.507C85.4622 114.38 87.7396 127.366 87.9674 129.416C88.1951 131.466 83.4126 132.15 81.1352 131.922C78.8578 131.694 78.4023 133.745 76.3527 133.745C75.362 133.745 73.2053 135.285 71.2377 136.877Z" fill="black"/>
<path d="M98.4434 86.5859H101.859C101.859 86.5859 110.286 103.672 109.375 123.037C108.464 142.402 99.1266 150.148 88.4229 152.654C77.7191 155.16 72.9366 156.754 71.5702 155.16C70.2038 153.565 69.5205 140.351 69.5205 140.351C69.5205 140.351 76.5804 133.744 78.6301 133.744C80.6797 133.744 81.1352 131.694 83.4126 131.922C85.69 132.15 90.4725 131.466 90.2448 129.416C90.017 127.366 87.7396 114.38 90.2448 110.507C92.7499 106.634 98.4434 86.5859 98.4434 86.5859Z" fill="#6C63FF"/>
<path opacity="0.1" d="M41.8161 103.16C42.2352 103.691 42.7385 104.333 43.2896 105.046L41.9641 102.306C41.9641 102.306 41.9095 102.615 41.8161 103.16Z" fill="black"/>
<path opacity="0.1" d="M40.5977 136.934C40.83 137.631 43.5469 136.196 46.1568 134.622C46.1295 134.485 46.0999 134.344 46.0634 134.2C45.3802 131.466 50.1627 124.86 50.1627 124.86L53.3511 116.203L52.6678 104.584L43.8771 105.807C46.4027 109.101 49.5934 113.432 50.3905 115.291C51.7569 118.481 49.024 123.265 45.8357 123.037C42.6473 122.809 40.1422 135.567 40.5977 136.934Z" fill="black"/>
<path d="M45.1525 97.0657L40.5977 101.622C40.5977 101.622 37.4093 120.075 37.4093 121.215C37.4093 122.354 31.9436 129.644 33.3101 134.656C34.6765 139.668 35.5875 146.275 34.4488 147.642C33.3101 149.008 31.7159 152.881 34.4488 154.704C37.1816 156.526 40.5977 144.224 48.7963 147.414C48.7963 147.414 43.7861 139.44 44.0138 138.757C44.2415 138.073 45.3802 136.251 44.697 133.517C44.0138 130.783 48.7963 124.176 48.7963 124.176L51.9846 115.519L51.3014 103.9L45.1525 97.0657Z" fill="#6C63FF"/>
</g>
<defs>
<clipPath id="clip0">
<rect width="442" height="302" fill="white"/>
</clipPath>
</defs>
</svg>
