<svg width="452" height="335" viewBox="0 0 452 335" fill="none" xmlns="http://www.w3.org/2000/svg">
<g clip-path="url(#clip0)">
<path d="M393.716 335C425.905 335 452 331.613 452 327.434C452 323.255 425.905 319.868 393.716 319.868C361.526 319.868 335.432 323.255 335.432 327.434C335.432 331.613 361.526 335 393.716 335Z" fill="#3F3D56"/>
<path d="M175.957 11.1021H0V120.912H175.957V11.1021Z" fill="#F2F2F2"/>
<path d="M187.055 0.403687H11.0982V110.213H187.055V0.403687Z" stroke="#3F3D56" stroke-width="2" stroke-miterlimit="10"/>
<path d="M126.103 81.9405C131.409 76.6332 135.022 69.8714 136.485 62.51C137.949 55.1487 137.198 47.5184 134.327 40.5842C131.455 33.6499 126.593 27.7231 120.355 23.5533C114.116 19.3834 106.782 17.1577 99.2786 17.1577V55.1066L126.103 81.9405Z" fill="#3F3D56"/>
<path d="M99.2786 17.1577C90.8467 17.1587 82.6555 19.9695 75.9983 25.1461C69.3412 30.3227 64.5976 37.5702 62.5165 45.744C60.4355 53.9179 61.1357 62.5523 64.5065 70.2838C67.8773 78.0152 73.7266 84.4031 81.1308 88.4387L99.2786 55.1066V17.1577Z" fill="#7D4CDB"/>
<path d="M126.103 81.9405L99.2786 55.1066L81.1308 88.4387C88.3244 92.3539 96.5911 93.8366 104.696 92.6655C112.802 91.4943 120.311 87.7321 126.103 81.9405Z" fill="#575A89"/>
<path d="M25.0214 87.4036H17.7571V94.6704H25.0214V87.4036Z" fill="#7D4CDB"/>
<path d="M35.5143 87.4036H28.25V94.6704H35.5143V87.4036Z" fill="#3F3D56"/>
<path d="M46.0071 87.4036H38.7429V94.6704H46.0071V87.4036Z" fill="#575A89"/>
<path d="M173.132 89.0183H143.268V90.2294H173.132V89.0183Z" fill="#3F3D56"/>
<path d="M173.132 92.6517H143.268V93.8629H173.132V92.6517Z" fill="#3F3D56"/>
<path d="M173.132 96.2852H143.268V97.4963H173.132V96.2852Z" fill="#3F3D56"/>
<path d="M155.375 164.109H55.2893V273.918H155.375V164.109Z" fill="#F2F2F2"/>
<path d="M165.464 153.612H65.3785V263.422H165.464V153.612Z" stroke="#3F3D56" stroke-width="2" stroke-miterlimit="10"/>
<path d="M76.0213 251.034H70.625V256.432H76.0213V251.034Z" fill="#7D4CDB"/>
<path d="M83.816 251.034H78.4197V256.432H83.816V251.034Z" fill="#3F3D56"/>
<path d="M91.6107 251.034H86.2144V256.432H91.6107V251.034Z" fill="#575A89"/>
<path d="M152.146 253.378H131.161V254.229H152.146V253.378Z" fill="#3F3D56"/>
<path d="M152.146 255.931H131.161V256.782H152.146V255.931Z" fill="#3F3D56"/>
<path d="M152.146 258.484H131.161V259.335H152.146V258.484Z" fill="#3F3D56"/>
<path d="M115.421 172.99V181.872C120.689 181.872 125.839 183.435 130.219 186.362C134.6 189.29 138.014 193.452 140.03 198.32C142.046 203.189 142.573 208.547 141.545 213.715C140.518 218.884 137.981 223.631 134.256 227.358L140.534 233.638C145.501 228.67 148.883 222.339 150.253 215.448C151.624 208.556 150.92 201.413 148.232 194.922C145.544 188.43 140.992 182.881 135.152 178.978C129.312 175.074 122.445 172.99 115.421 172.99Z" fill="#3F3D56"/>
<path d="M140.534 233.638L134.256 227.358C129.702 231.914 123.652 234.665 117.226 235.101C110.8 235.537 104.433 233.628 99.3064 229.728L93.9326 236.802C100.77 242 109.258 244.544 117.826 243.962C126.394 243.38 134.461 239.713 140.534 233.638Z" fill="#575A89"/>
<path d="M88.7857 208.517C88.7857 201.45 91.592 194.673 96.5871 189.676C101.582 184.679 108.357 181.872 115.421 181.872V172.99C107.987 172.99 100.74 175.324 94.7017 179.663C88.6636 184.002 84.1389 190.127 81.7655 197.175C79.3921 204.223 79.2896 211.838 81.4724 218.948C83.6553 226.057 88.0134 232.302 93.9326 236.802L99.3064 229.728C96.0344 227.246 93.3817 224.038 91.5564 220.358C89.7311 216.678 88.7827 212.625 88.7857 208.517Z" fill="#7D4CDB"/>
<path d="M375.977 56.9206C375.977 56.9206 374.33 69.1573 378.565 70.5693C382.799 71.9812 381.623 82.806 381.623 82.806L368.92 92.4542L357.628 93.3955L354.805 78.8055L356.452 75.0404C356.452 75.0404 362.804 67.5101 358.334 59.7444C353.864 51.9788 375.977 56.9206 375.977 56.9206Z" fill="#FFB9B9"/>
<path opacity="0.1" d="M375.977 56.9206C375.977 56.9206 374.33 69.1573 378.565 70.5693C382.799 71.9812 381.623 82.806 381.623 82.806L368.92 92.4542L357.628 93.3955L354.805 78.8055L356.452 75.0404C356.452 75.0404 362.804 67.5101 358.334 59.7444C353.864 51.9788 375.977 56.9206 375.977 56.9206Z" fill="black"/>
<path d="M364.215 152.226L349.395 187.054C349.395 187.054 337.868 180.465 331.046 181.171C324.224 181.877 315.755 173.64 315.755 173.64L324.224 132.694L339.985 89.1597L361.863 103.044L364.215 152.226Z" fill="#575A89"/>
<path opacity="0.1" d="M364.215 152.226L349.395 187.054C349.395 187.054 337.868 180.465 331.046 181.171C324.224 181.877 315.755 173.64 315.755 173.64L324.224 132.694L339.985 89.1597L361.863 103.044L364.215 152.226Z" fill="black"/>
<path d="M387.504 300.243V311.539H376.918L378.565 298.361L387.504 300.243Z" fill="#575A89"/>
<path d="M415.027 280.712L422.79 285.418L417.144 298.361L411.263 297.655L405.617 289.654L415.027 280.712Z" fill="#575A89"/>
<path d="M389.621 148.932L403.5 181.641C403.5 181.641 398.56 217.881 398.795 220.94C399.031 223.999 399.266 225.176 398.09 227.764C396.913 230.353 396.443 232 397.149 235.059C397.854 238.119 398.09 239.295 397.619 240.472C397.149 241.648 393.855 290.125 392.209 293.419C390.562 296.714 393.15 302.126 391.503 302.597C389.856 303.067 377.624 301.891 376.918 299.067C376.212 296.243 379.27 289.419 377.624 287.301C375.977 285.183 377.859 208.939 375.507 203.762C373.154 198.584 347.278 193.878 347.278 193.878C347.278 193.878 344.925 178.817 346.337 176.464C347.748 174.111 349.63 159.286 349.63 159.286L389.621 148.932Z" fill="#2F2E41"/>
<path d="M375.977 309.656C375.977 309.656 382.564 301.891 388.209 309.656C388.209 309.656 388.68 318.834 392.679 320.717C396.678 322.599 394.796 330.129 389.15 330.365C383.505 330.6 376.212 331.541 375.977 328.482C375.742 325.423 376.918 323.54 374.801 322.599C372.684 321.658 374.801 316.245 374.801 316.245L375.977 309.656Z" fill="#2F2E41"/>
<path d="M376.683 197.173C376.683 197.173 376.447 214.116 374.801 216.469C373.154 218.822 372.213 220.234 373.154 222.823C374.095 225.411 375.507 230.118 374.801 231.059C374.095 232 375.506 236.942 375.506 236.942C375.506 236.942 393.62 245.649 402.089 263.769C402.089 263.769 410.793 278.123 413.38 278.359C415.968 278.594 419.026 276.711 417.615 282.124C416.203 287.536 410.793 294.596 406.793 293.89C402.794 293.184 399.736 286.36 399.736 286.36C399.736 286.36 368.449 254.591 365.156 253.65C361.863 252.708 352.453 245.178 350.806 240.472C349.16 235.765 345.631 196.467 347.278 193.878C348.924 191.289 355.041 187.76 355.041 187.76L376.683 197.173Z" fill="#2F2E41"/>
<path d="M417.379 279.771C417.379 279.771 431.964 280.241 432.199 283.771C432.435 287.301 426.083 308.244 427.024 313.186C427.965 318.128 419.732 329.423 414.321 327.07C408.911 324.717 413.145 312.48 413.145 312.48C413.145 312.48 407.734 295.772 408.675 295.537C409.616 295.302 419.026 292.478 418.556 289.654C418.085 286.83 417.379 279.771 417.379 279.771Z" fill="#2F2E41"/>
<path d="M365.038 69.5104C373.093 69.5104 379.623 62.9782 379.623 54.9204C379.623 46.8626 373.093 40.3304 365.038 40.3304C356.983 40.3304 350.453 46.8626 350.453 54.9204C350.453 62.9782 356.983 69.5104 365.038 69.5104Z" fill="#FFB9B9"/>
<path d="M379.741 77.3936C379.741 77.3936 371.743 85.8652 365.862 84.4533C359.981 83.0414 356.923 72.9225 356.923 72.9225L346.337 71.0399C346.337 71.0399 338.809 104.456 338.809 107.75C338.809 111.045 346.337 146.578 346.337 152.932C346.337 159.286 340.22 163.051 349.63 162.815C359.04 162.58 354.57 159.521 368.214 159.286C381.858 159.05 383.975 162.11 386.798 157.168C388.723 153.944 391.1 151.012 393.855 148.461L388.915 131.047L388.209 81.8647C388.209 81.8647 382.178 70.0987 379.431 71.0399C379.431 71.0399 380.917 76.217 379.741 77.3936Z" fill="#7D4CDB"/>
<path d="M376.843 68.9586C376.843 68.9586 389.386 70.3339 392.914 72.9225C396.443 75.511 406.323 77.3936 406.088 79.2762C405.853 81.1588 394.561 107.985 394.561 107.985C394.561 107.985 389.386 129.164 393.855 134.106C398.325 139.048 415.027 192.937 412.204 197.408C409.381 201.879 400.442 183.759 400.442 183.759C400.442 183.759 388.445 144.931 381.858 138.342C375.271 131.753 374.801 96.2194 374.801 94.5721C374.801 92.9249 376.843 68.9586 376.843 68.9586Z" fill="#575A89"/>
<path d="M358.498 71.688C358.498 71.688 343.043 65.8628 337.633 68.2161C332.222 70.5693 328.929 71.0399 328.929 71.0399L327.047 94.1015C327.047 94.1015 326.341 127.282 320.225 135.283C314.109 143.284 310.11 176.699 311.051 179.994C311.992 183.289 309.404 188.936 313.403 187.524C317.402 186.112 328.458 153.638 328.458 153.638C328.458 153.638 328.458 135.048 335.045 129.87C341.632 124.693 352.453 103.279 352.923 98.102C353.394 92.9249 357.863 78.5702 357.863 78.5702L358.498 71.688Z" fill="#575A89"/>
<path d="M411.498 145.872C411.498 145.872 404.441 159.05 403.5 161.403C402.559 163.757 395.972 179.759 386.563 176.229C377.153 172.699 395.737 155.52 395.737 155.52L399.972 141.166C399.972 141.166 411.028 138.813 411.498 145.872Z" fill="#FFB9B9"/>
<path d="M331.281 71.04H328.929C328.929 71.04 326.576 69.1574 323.754 70.334C320.931 71.5106 314.344 69.8634 314.344 70.5693C314.344 71.2753 307.052 68.4514 303.993 69.8634C300.935 71.2753 289.879 71.7459 289.879 71.7459C289.879 71.7459 285.409 83.0414 288.468 85.1593C291.526 87.2772 295.995 85.6299 298.112 87.2772C300.23 88.9244 304.229 87.0419 305.64 89.1598C307.052 91.2777 312.227 95.0428 313.403 92.6896C314.579 90.3364 312.227 88.2185 317.167 90.807C322.107 93.3955 329.87 93.3956 329.87 93.3956L331.281 71.04Z" fill="#575A89"/>
<path d="M366.353 44.1407C364.379 43.6845 362.331 44.19 360.332 44.5177C358.333 44.8454 356.13 44.9535 354.439 43.8378C353.19 43.0138 352.422 41.6506 351.701 40.3394C351.401 39.8711 351.2 39.3456 351.113 38.7958C351.028 37.8261 351.644 36.9413 352.299 36.2213C355.341 32.8766 359.786 31.046 364.268 30.4645C367.953 29.9865 371.795 30.3066 375.198 31.7996C378.6 33.2925 381.525 36.0266 382.863 39.4942C383.479 41.269 383.864 43.1158 384.008 44.9891C384.21 46.3673 384.236 47.7657 384.085 49.1505C383.905 50.1771 383.635 51.1859 383.279 52.1654L381.063 58.8593C380.904 59.4918 380.606 60.0811 380.192 60.5848C379.979 60.8314 379.692 61.0024 379.373 61.0722C379.055 61.1419 378.723 61.1067 378.426 60.9717C378.604 60.2446 378.631 59.489 378.506 58.7511C378.436 58.3833 378.259 58.0448 377.995 57.779C377.732 57.5133 377.395 57.3326 377.028 57.2601C376.211 57.1734 375.513 57.8068 374.738 58.0796C374.366 58.1901 373.974 58.2223 373.588 58.174C373.203 58.1258 372.831 57.9982 372.497 57.7993C372.163 57.6004 371.874 57.3345 371.648 57.0184C371.421 56.7022 371.263 56.3426 371.182 55.9622C371.06 55.1969 371.266 54.3777 370.976 53.659C370.636 52.817 369.735 52.3758 369.058 51.7708C368.44 51.2006 367.998 50.466 367.784 49.6531C367.569 48.8403 367.591 47.9831 367.847 47.1823C368.028 46.6252 368.54 46.372 368.438 45.732C368.303 44.8924 367.066 44.3054 366.353 44.1407Z" fill="#2F2E41"/>
<path d="M304.696 95.4778H204.611V205.287H304.696V95.4778Z" fill="#F2F2F2"/>
<path d="M314.786 84.9812H214.7V194.791H314.786V84.9812Z" stroke="#3F3D56" stroke-width="2" stroke-miterlimit="10"/>
<path d="M224.386 91.8444V175.816H305.504" stroke="#3F3D56" stroke-width="2" stroke-miterlimit="10"/>
<path d="M246.986 146.345H228.825V175.413H246.986V146.345Z" fill="#575A89"/>
<path d="M273.218 126.563H255.057V175.413H273.218V126.563Z" fill="#3F3D56"/>
<path d="M299.45 103.552H281.289V175.413H299.45V103.552Z" fill="#7D4CDB"/>
<path d="M228.571 182.403H223.175V187.801H228.571V182.403Z" fill="#7D4CDB"/>
<path d="M236.366 182.403H230.97V187.801H236.366V182.403Z" fill="#3F3D56"/>
<path d="M244.161 182.403H238.764V187.801H244.161V182.403Z" fill="#575A89"/>
<path d="M304.696 184.747H283.711V185.598H304.696V184.747Z" fill="#3F3D56"/>
<path d="M304.696 187.3H283.711V188.151H304.696V187.3Z" fill="#3F3D56"/>
<path d="M304.696 189.854H283.711V190.705H304.696V189.854Z" fill="#3F3D56"/>
<path d="M292.31 71.7324C296.599 71.9189 299.786 75.8101 299.322 80.0799C298.902 83.9481 297.351 88.7616 292.467 90.6104C283.763 93.9049 284.233 75.3145 285.88 74.6085C286.978 74.1379 288.703 71.5755 292.31 71.7324Z" fill="#FFB9B9"/>
<path d="M403.5 78.019L406.088 79.2763C406.088 79.2763 411.734 90.807 411.969 92.4543C412.204 94.1015 415.968 100.22 414.556 101.867C413.145 103.514 411.028 107.75 412.439 109.397C413.851 111.045 417.144 117.634 417.144 119.987C417.144 122.34 413.615 128.694 415.968 129.4C418.32 130.106 417.615 139.283 417.144 139.989C416.674 140.695 410.557 152.226 410.557 152.226C410.557 152.226 409.381 139.048 397.854 144.46C397.854 144.46 396.913 137.871 397.854 137.401C398.795 136.93 401.148 134.106 399.266 133.636C397.384 133.165 394.796 127.517 395.267 126.811C395.737 126.105 396.913 125.164 395.737 124.458C394.561 123.752 393.62 119.752 393.855 119.046C394.091 118.34 391.268 115.045 391.268 115.045L403.5 78.019Z" fill="#575A89"/>
</g>
<defs>
<clipPath id="clip0">
<rect width="452" height="335" fill="white"/>
</clipPath>
</defs>
</svg>
