<svg width="614" height="461" viewBox="0 0 614 461" fill="none" xmlns="http://www.w3.org/2000/svg">
<g clip-path="url(#clip0)">
<path d="M213.293 141.352H292.777" stroke="#3F3D56" stroke-width="2" stroke-miterlimit="10"/>
<path d="M118.603 229.351C122.902 218.068 123.525 207.824 119.994 206.47C116.463 205.116 110.115 213.165 105.816 224.448C101.517 235.732 100.894 245.976 104.425 247.33C107.956 248.684 114.304 240.635 118.603 229.351Z" fill="#2F2E41"/>
<path d="M611.224 281.908C619.871 346.464 608.096 411.091 548.206 436.257C488.316 461.422 419.429 433.119 394.343 373.04C369.256 312.961 428.446 277.013 457.36 218.691C516.077 100.256 584.371 81.4285 611.224 281.908Z" fill="#F2F2F2"/>
<path d="M503.654 452.694C555.477 452.694 597.488 446.961 597.488 439.889C597.488 432.816 555.477 427.083 503.654 427.083C451.83 427.083 409.819 432.816 409.819 439.889C409.819 446.961 451.83 452.694 503.654 452.694Z" fill="#3F3D56"/>
<path d="M442.268 407.297L445.798 420.106L468.674 413.762L465.145 400.953L442.268 407.297Z" fill="#2F2E41"/>
<path d="M443.845 422.371C446.049 421.76 446.518 416.485 444.894 410.59C443.269 404.695 440.166 400.412 437.962 401.023C435.759 401.634 435.289 406.908 436.913 412.803C438.538 418.698 441.641 422.982 443.845 422.371Z" fill="#2F2E41"/>
<path d="M514.475 363.244C516.093 351.274 514.367 341.157 510.621 340.648C506.875 340.139 502.528 349.429 500.91 361.399C499.293 373.369 501.019 383.486 504.764 383.995C508.51 384.504 512.858 375.214 514.475 363.244Z" fill="#2F2E41"/>
<path d="M503.424 447.011C527.507 447.011 547.03 427.426 547.03 403.268C547.03 379.109 527.507 359.524 503.424 359.524C479.342 359.524 459.819 379.109 459.819 403.268C459.819 427.426 479.342 447.011 503.424 447.011Z" fill="#2F2E41"/>
<path d="M442.268 399.545L445.798 412.354L468.674 406.01L465.145 393.201L442.268 399.545Z" fill="#2F2E41"/>
<path d="M443.845 414.619C446.049 414.008 446.518 408.733 444.894 402.838C443.269 396.943 440.166 392.66 437.962 393.271C435.759 393.882 435.289 399.156 436.913 405.051C438.538 410.946 441.641 415.23 443.845 414.619Z" fill="#2F2E41"/>
<path d="M514.875 393.159C523.105 393.159 529.778 386.465 529.778 378.209C529.778 369.952 523.105 363.258 514.875 363.258C506.644 363.258 499.971 369.952 499.971 378.209C499.971 386.465 506.644 393.159 514.875 393.159Z" fill="white"/>
<path d="M519.641 376.588C522.384 376.588 524.608 374.357 524.608 371.605C524.608 368.852 522.384 366.621 519.641 366.621C516.897 366.621 514.673 368.852 514.673 371.605C514.673 374.357 516.897 376.588 519.641 376.588Z" fill="#3F3D56"/>
<path d="M553.78 433.328C569.917 432.517 582.276 417.376 581.384 399.509C580.493 381.642 566.689 367.814 550.552 368.624C534.416 369.435 531.884 382.142 532.775 400.009C533.666 417.876 537.644 434.138 553.78 433.328Z" fill="#7D4CDB"/>
<path d="M485.603 384.76C482.977 384.972 480.374 384.13 478.367 382.417C476.36 380.705 475.113 378.263 474.901 375.629C474.688 372.995 475.528 370.384 477.234 368.37C478.94 366.356 481.374 365.105 484 364.891C489.469 364.447 490.961 368.803 491.403 374.289C491.846 379.776 491.072 384.316 485.603 384.76Z" fill="white"/>
<path d="M25.3514 199.904H269.594L307.461 218.41L367.795 247.896L407.243 173.803H518.873" stroke="#3F3D56" stroke-width="2" stroke-miterlimit="10"/>
<path d="M121.034 215.234C125.206 215.234 128.588 211.841 128.588 207.656C128.588 203.471 125.206 200.078 121.034 200.078C116.862 200.078 113.48 203.471 113.48 207.656C113.48 211.841 116.862 215.234 121.034 215.234Z" fill="#7D4CDB"/>
<path d="M191.537 207.482C195.709 207.482 199.091 204.089 199.091 199.904C199.091 195.719 195.709 192.326 191.537 192.326C187.365 192.326 183.983 195.719 183.983 199.904C183.983 204.089 187.365 207.482 191.537 207.482Z" fill="#7D4CDB"/>
<path d="M307.364 226.005C311.536 226.005 314.918 222.612 314.918 218.427C314.918 214.242 311.536 210.85 307.364 210.85C303.192 210.85 299.81 214.242 299.81 218.427C299.81 222.612 303.192 226.005 307.364 226.005Z" fill="#7D4CDB"/>
<path d="M470.193 181.381C474.364 181.381 477.746 177.988 477.746 173.803C477.746 169.618 474.364 166.225 470.193 166.225C466.021 166.225 462.639 169.618 462.639 173.803C462.639 177.988 466.021 181.381 470.193 181.381Z" fill="#7D4CDB"/>
<path d="M391.296 210.85C395.468 210.85 398.85 207.457 398.85 203.272C398.85 199.087 395.468 195.694 391.296 195.694C387.124 195.694 383.742 199.087 383.742 203.272C383.742 207.457 387.124 210.85 391.296 210.85Z" fill="#7D4CDB"/>
<path d="M234.058 330.121C238.556 330.121 242.202 326.463 242.202 321.95C242.202 317.438 238.556 313.78 234.058 313.78C229.56 313.78 225.913 317.438 225.913 321.95C225.913 326.463 229.56 330.121 234.058 330.121Z" stroke="#3F3D56" stroke-width="2" stroke-miterlimit="10"/>
<path d="M91.8836 461C143.707 461 185.719 455.267 185.719 448.194C185.719 441.122 143.707 435.388 91.8836 435.388C40.06 435.388 -1.95129 441.122 -1.95129 448.194C-1.95129 455.267 40.06 461 91.8836 461Z" fill="#3F3D56"/>
<path d="M86.808 429.368C110.891 429.368 130.414 409.783 130.414 385.625C130.414 361.466 110.891 341.882 86.808 341.882C62.7253 341.882 43.2024 361.466 43.2024 385.625C43.2024 409.783 62.7253 429.368 86.808 429.368Z" fill="#2F2E41"/>
<path d="M80.1844 419.955H66.9371V443.765H80.1844V419.955Z" fill="#2F2E41"/>
<path d="M106.679 419.955H93.4317V443.765H106.679V419.955Z" fill="#2F2E41"/>
<path d="M77.9765 448.194C84.0734 448.194 89.0159 446.335 89.0159 444.041C89.0159 441.748 84.0734 439.889 77.9765 439.889C71.8796 439.889 66.9371 441.748 66.9371 444.041C66.9371 446.335 71.8796 448.194 77.9765 448.194Z" fill="#2F2E41"/>
<path d="M104.471 447.64C110.568 447.64 115.511 445.781 115.511 443.488C115.511 441.194 110.568 439.335 104.471 439.335C98.3742 439.335 93.4317 441.194 93.4317 443.488C93.4317 445.781 98.3742 447.64 104.471 447.64Z" fill="#2F2E41"/>
<path d="M87.912 389.501C96.1428 389.501 102.815 382.807 102.815 374.551C102.815 366.294 96.1428 359.6 87.912 359.6C79.6812 359.6 73.0088 366.294 73.0088 374.551C73.0088 382.807 79.6812 389.501 87.912 389.501Z" fill="white"/>
<path d="M87.912 379.534C90.6556 379.534 92.8797 377.303 92.8797 374.551C92.8797 371.798 90.6556 369.567 87.912 369.567C85.1684 369.567 82.9443 371.798 82.9443 374.551C82.9443 377.303 85.1684 379.534 87.912 379.534Z" fill="#3F3D56"/>
<path d="M44.5091 344.945C40.9881 329.127 52.2432 313.143 69.648 309.244C87.0528 305.346 104.017 315.009 107.537 330.827C111.058 346.645 99.5236 352.479 82.1188 356.378C64.714 360.276 48.03 360.763 44.5091 344.945Z" fill="#7D4CDB"/>
<path d="M71.9048 303.676C95.9876 303.676 115.51 284.091 115.51 259.932C115.51 235.774 95.9876 216.189 71.9048 216.189C47.8221 216.189 28.2992 235.774 28.2992 259.932C28.2992 284.091 47.8221 303.676 71.9048 303.676Z" fill="#2F2E41"/>
<path d="M65.2812 294.262H52.0339V318.072H65.2812V294.262Z" fill="#2F2E41"/>
<path d="M91.7758 294.262H78.5285V318.072H91.7758V294.262Z" fill="#2F2E41"/>
<path d="M63.0734 322.502C69.1703 322.502 74.1128 320.642 74.1128 318.349C74.1128 316.055 69.1703 314.196 63.0734 314.196C56.9764 314.196 52.0339 316.055 52.0339 318.349C52.0339 320.642 56.9764 322.502 63.0734 322.502Z" fill="#2F2E41"/>
<path d="M89.5679 321.948C95.6648 321.948 100.607 320.089 100.607 317.795C100.607 315.502 95.6648 313.642 89.5679 313.642C83.471 313.642 78.5285 315.502 78.5285 317.795C78.5285 320.089 83.471 321.948 89.5679 321.948Z" fill="#2F2E41"/>
<path d="M73.0088 263.808C81.2396 263.808 87.912 257.115 87.912 248.858C87.912 240.601 81.2396 233.908 73.0088 233.908C64.778 233.908 58.1056 240.601 58.1056 248.858C58.1056 257.115 64.778 263.808 73.0088 263.808Z" fill="white"/>
<path d="M73.0088 253.841C75.7524 253.841 77.9765 251.61 77.9765 248.858C77.9765 246.106 75.7524 243.875 73.0088 243.875C70.2652 243.875 68.0411 246.106 68.0411 248.858C68.0411 251.61 70.2652 253.841 73.0088 253.841Z" fill="#3F3D56"/>
<path d="M29.606 219.252C26.085 203.434 37.3401 187.451 54.7449 183.552C72.1497 179.653 89.1134 189.316 92.6343 205.134C96.1553 220.953 84.6205 226.787 67.2157 230.685C49.8109 234.584 33.1269 235.071 29.606 219.252Z" fill="#7D4CDB"/>
<path d="M42.4898 249.008C44.1097 245.582 36.6032 238.608 25.7234 233.431C14.8437 228.255 4.71079 226.836 3.09088 230.263C1.47097 233.689 8.97753 240.663 19.8572 245.839C30.737 251.015 40.8699 252.434 42.4898 249.008Z" fill="#2F2E41"/>
<path d="M50.4859 275.713C50.4859 279.994 61.4749 288.448 73.6687 288.448C85.8625 288.448 97.2955 276.395 97.2955 272.114C97.2955 267.833 85.8625 272.945 73.6687 272.945C61.4749 272.945 50.4859 271.432 50.4859 275.713Z" fill="white"/>
<path d="M528.825 312.686H459.206V348.213H528.825V312.686Z" fill="#7D4CDB"/>
<path d="M523.377 318.456H453.757V353.982H523.377V318.456Z" stroke="#3F3D56" stroke-width="2" stroke-miterlimit="10"/>
<path d="M142.998 110.189H123.127V130.122H142.998V110.189Z" fill="#6FFFB0"/>
<path d="M138.03 103.544H118.159V123.478H138.03V103.544Z" stroke="#3F3D56" stroke-width="2" stroke-miterlimit="10"/>
<path d="M498.163 148.655C522.245 148.655 541.768 129.07 541.768 104.912C541.768 80.753 522.245 61.1685 498.163 61.1685C474.08 61.1685 454.557 80.753 454.557 104.912C454.557 129.07 474.08 148.655 498.163 148.655Z" fill="#2F2E41"/>
<path d="M515.003 160.935L528.038 158.568L523.811 135.139L510.775 137.507L515.003 160.935Z" fill="#2F2E41"/>
<path d="M488.933 165.672L501.969 163.305L497.741 139.876L484.706 142.244L488.933 165.672Z" fill="#2F2E41"/>
<path d="M495.853 170.603C500.506 166.65 503.08 162.027 501.602 160.277C500.125 158.527 495.155 160.312 490.503 164.265C485.85 168.217 483.276 172.841 484.754 174.591C486.231 176.341 491.201 174.556 495.853 170.603Z" fill="#2F2E41"/>
<path d="M521.381 165.967C526.034 162.014 528.607 157.391 527.13 155.641C525.652 153.891 520.683 155.676 516.03 159.629C511.378 163.582 508.804 168.205 510.281 169.955C511.759 171.705 516.728 169.92 521.381 165.967Z" fill="#2F2E41"/>
<path d="M495.11 109.162C503.341 109.162 510.013 102.469 510.013 94.2119C510.013 85.9551 503.341 79.2617 495.11 79.2617C486.879 79.2617 480.207 85.9551 480.207 94.2119C480.207 102.469 486.879 109.162 495.11 109.162Z" fill="white"/>
<path d="M488.985 93.8364C491.728 93.8364 493.952 91.6053 493.952 88.853C493.952 86.1008 491.728 83.8696 488.985 83.8696C486.241 83.8696 484.017 86.1008 484.017 88.853C484.017 91.6053 486.241 93.8364 488.985 93.8364Z" fill="#3F3D56"/>
<path d="M532.561 57.3238C533.217 41.1294 519.304 27.4127 501.485 26.6866C483.666 25.9605 468.69 38.5001 468.034 54.6944C467.378 70.8888 479.765 74.5683 497.583 75.2944C515.402 76.0205 531.906 73.5182 532.561 57.3238Z" fill="#7D4CDB"/>
<path d="M479.15 101.829C479.995 98.1328 471.165 92.9487 459.428 90.2499C447.691 87.5511 437.492 88.3597 436.647 92.0559C435.803 95.7521 444.633 100.936 456.37 103.635C468.107 106.334 478.306 105.525 479.15 101.829Z" fill="#2F2E41"/>
<path d="M564.747 116.108C565.591 112.412 556.761 107.228 545.024 104.529C533.287 101.83 523.088 102.639 522.243 106.335C521.399 110.032 530.229 115.216 541.966 117.914C553.703 120.613 563.902 119.805 564.747 116.108Z" fill="#2F2E41"/>
<path d="M510.139 122.15C510.371 123.438 510.348 124.76 510.072 126.039C509.795 127.318 509.27 128.53 508.527 129.605C507.783 130.681 506.836 131.599 505.739 132.307C504.642 133.016 503.416 133.5 502.132 133.733C500.848 133.966 499.531 133.944 498.256 133.666C496.981 133.389 495.773 132.862 494.701 132.116C493.629 131.37 492.713 130.42 492.007 129.319C491.301 128.219 490.818 126.989 490.586 125.701C489.608 120.285 493.783 118.368 499.182 117.388C504.582 116.407 509.161 116.734 510.139 122.15Z" fill="white"/>
<path d="M391.385 54.8174L441.614 93.5772" stroke="#3F3D56" stroke-width="2" stroke-miterlimit="10"/>
<path d="M367.65 75.3047C388.379 75.3047 405.184 58.4472 405.184 37.6524C405.184 16.8575 388.379 0 367.65 0C346.92 0 330.116 16.8575 330.116 37.6524C330.116 58.4472 346.92 75.3047 367.65 75.3047Z" fill="#6FFFB0"/>
<path d="M498.109 373.638C499.726 361.668 498 351.551 494.254 351.042C490.509 350.533 486.161 359.823 484.543 371.793C482.926 383.763 484.652 393.879 488.398 394.389C492.144 394.898 496.491 385.607 498.109 373.638Z" fill="#2F2E41"/>
<path d="M36.0306 442.809C40.2025 442.809 43.5845 439.416 43.5845 435.231C43.5845 431.046 40.2025 427.653 36.0306 427.653C31.8587 427.653 28.4767 431.046 28.4767 435.231C28.4767 439.416 31.8587 442.809 36.0306 442.809Z" fill="#7D4CDB"/>
<path d="M159.557 426.358H139.686V446.291H159.557V426.358Z" fill="#6FFFB0"/>
<path d="M139.801 447.239C143.973 447.239 147.355 443.846 147.355 439.661C147.355 435.476 143.973 432.083 139.801 432.083C135.629 432.083 132.247 435.476 132.247 439.661C132.247 443.846 135.629 447.239 139.801 447.239Z" fill="#7D4CDB"/>
<path d="M253.035 148.788C257.207 148.788 260.589 145.395 260.589 141.21C260.589 137.025 257.207 133.633 253.035 133.633C248.863 133.633 245.481 137.025 245.481 141.21C245.481 145.395 248.863 148.788 253.035 148.788Z" fill="#7D4CDB"/>
<path d="M399.729 379.728C401.721 379.728 403.336 378.108 403.336 376.11C403.336 374.111 401.721 372.491 399.729 372.491C397.737 372.491 396.122 374.111 396.122 376.11C396.122 378.108 397.737 379.728 399.729 379.728Z" fill="#6FFFB0"/>
<path d="M417.402 436.172V394.97" stroke="#3F3D56" stroke-width="2" stroke-miterlimit="10"/>
<path d="M417.402 400.796C420.61 400.796 423.211 398.188 423.211 394.97C423.211 391.752 420.61 389.143 417.402 389.143C414.194 389.143 411.594 391.752 411.594 394.97C411.594 398.188 414.194 400.796 417.402 400.796Z" fill="#3F3D56"/>
<path d="M417.402 420.364C417.402 420.364 416.572 402.461 399.563 404.542L417.402 420.364Z" fill="#3F3D56"/>
</g>
<defs>
<clipPath id="clip0">
<rect width="614" height="461" fill="white"/>
</clipPath>
</defs>
</svg>
