<svg width="121" height="35" viewBox="0 0 121 35" fill="none" xmlns="http://www.w3.org/2000/svg">
<path d="M8.36759 33.4459H8.29462V33.4702H8.36759V33.4459Z" fill="#7D4CDB"/>
<path d="M26.1 8.39191H26.027V8.46488L26.1 8.39191Z" fill="#7D4CDB"/>
<path d="M8.29459 17.2703L8.27027 17.246L8.29459 17.2217V0.024353H0V33.446H8.29459V17.2703Z" fill="white"/>
<path d="M50.4243 11.0432H50.327C49.3297 9.51077 46.7514 7.51617 42.1784 7.51617C34.7351 7.51617 28.1432 12.6729 28.1432 20.8946C28.1432 28.0946 33.3243 34.3216 42.1784 34.3216C45.4378 34.3216 48.9162 33.2027 50.327 30.7459H50.4243V33.4702H58.7676V8.39185H50.4243V11.0432ZM43.4189 27.3162C38.3838 27.3162 36.4622 23.327 36.4622 20.9919C36.4622 18.1459 38.5784 14.5216 43.346 14.5216C48.0649 14.5216 50.4 17.8783 50.4 20.8946C50.4243 23.3513 48.6487 27.3162 43.4189 27.3162Z" fill="white"/>
<path d="M75.1378 0.024353H66.7702V8.39192H62.6594V14.0838H66.7702V33.4703H75.1378V14.0838H79.1513V8.39192H75.1378V0.024353Z" fill="white"/>
<path d="M94.7189 24.0324H94.5973L89.2703 8.39191H80.6108L90.6325 33.4703H98.6352L108.705 8.39191H100.046L94.7189 24.0324Z" fill="white"/>
<path d="M120.916 0.024353H112.573V5.71625H120.916V0.024353Z" fill="white"/>
<path d="M120.916 8.39191H112.573V33.4946H120.916V8.39191Z" fill="white"/>
<path d="M8.36759 17.4649L8.34326 17.3919V17.4649H8.36759Z" fill="white"/>
<path d="M8.29459 33.4459H0V33.4702H8.29459V33.4459Z" fill="white"/>
<path d="M8.34327 17.1487V0.024353H8.29462V17.2217L8.34327 17.1487Z" fill="white"/>
<path d="M25.2243 33.6162L25.127 33.4703H17.3676L25.2243 33.6162Z" fill="white"/>
<path d="M16.1757 33.4459L16.3459 33.4702L16.3216 33.4459H16.1757Z" fill="#7D4CDB"/>
<path d="M16.3217 33.4459L16.346 33.4702H17.3676H25.1271V33.4459H16.3217Z" fill="white"/>
<path d="M17.6351 20.8703L17.1 21.4784L22.1108 28.3865L17.6351 20.8703Z" fill="white"/>
<path d="M15.5433 32.2541L16.1757 33.446H16.3217L15.5433 32.2541Z" fill="white"/>
<path d="M15.5433 32.2541L16.3216 33.446H25.127L22.1108 28.3865L17.1 21.4784L12.4784 26.5135L15.5433 32.2541Z" fill="white"/>
<path d="M8.27026 17.2459L8.29459 17.2703V17.2216L8.27026 17.2459Z" fill="#6FFFB0"/>
<path d="M8.34326 17.1487V17.3919L8.36759 17.4649H8.44056L16.2 8.3919H25.8081L26.027 8.12433H15.7135L8.34326 17.1487Z" fill="#6FFFB0"/>
<path d="M15.9081 19.8486L22.8892 11.7729L15.5919 19.4108L15.9081 19.8486Z" fill="#6FFFB0"/>
<path d="M15.9081 19.8487L15.5919 19.4108L22.8892 11.773L25.8081 8.39191H16.2L8.44056 17.4649H8.36758L11.6757 24.7378L15.9081 19.8487Z" fill="#6FFFB0"/>
<path d="M8.34327 17.1486L8.29462 17.2216V17.2702L8.34327 17.3919V17.1486Z" fill="#6FFFB0"/>
</svg>
