<?xml version="1.0" encoding="utf-8"?>
<!-- Generator: Adobe Illustrator 22.1.0, SVG Export Plug-In . SVG Version: 6.00 Build 0)  -->
<svg version="1.1" id="Layer_1" xmlns="http://www.w3.org/2000/svg" xmlns:xlink="http://www.w3.org/1999/xlink" x="0px" y="0px"
	 viewBox="0 0 500 148" style="enable-background:new 0 0 500 148;" xml:space="preserve">
<style type="text/css">
	.st0{fill:#7D4CDB;}
	.st1{fill:#6FFFB0;}
</style>
<g>
	<polygon class="st0" points="35.8,76 35.7,75.9 35.8,75.8 35.8,5.1 1.7,5.1 1.7,142.5 35.8,142.5 	"/>
	<path class="st0" d="M209,50.4h-0.4c-4.1-6.3-14.7-14.5-33.5-14.5c-30.6,0-57.7,21.2-57.7,55c0,29.6,21.3,55.2,57.7,55.2
		c13.4,0,27.7-4.6,33.5-14.7h0.4v11.2h34.3V39.5H209V50.4z M180.2,117.3c-20.7,0-28.6-16.4-28.6-26c0-11.7,8.7-26.6,28.3-26.6
		c19.4,0,29,13.8,29,26.2C209,101,201.7,117.3,180.2,117.3z"/>
	<polygon class="st0" points="310.6,5.1 276.2,5.1 276.2,39.5 259.3,39.5 259.3,62.9 276.2,62.9 276.2,142.6 310.6,142.6 
		310.6,62.9 327.1,62.9 327.1,39.5 310.6,39.5 	"/>
	<polygon class="st0" points="391.1,103.8 390.6,103.8 368.7,39.5 333.1,39.5 374.3,142.6 407.2,142.6 448.6,39.5 413,39.5 	"/>
	<rect x="464.5" y="5.1" class="st0" width="34.3" height="23.4"/>
	<rect x="464.5" y="39.5" class="st0" width="34.3" height="103.2"/>
	<polygon class="st0" points="92.6,121.7 74.2,90.8 72,93.3 53,114 65.6,137.6 68.2,142.5 68.9,142.6 73.1,142.6 105,142.6 
		105,142.5 	"/>
	<polygon class="st1" points="66.3,38.4 36,75.5 35.8,75.8 35.7,75.9 35.8,76 36,76.5 36.1,76.8 49.7,106.7 67.1,86.6 95.8,53.4 
		107.8,39.5 108.7,38.4 	"/>
</g>
</svg>
