<svg width="449" height="362" viewBox="0 0 449 362" fill="none" xmlns="http://www.w3.org/2000/svg">
<g clip-path="url(#clip0)">
<path d="M210.496 4.04291C187.548 10.0007 167.306 25.9069 147.187 46.7739C153.808 52.8052 157.808 61.1844 158.332 70.1225C158.857 79.0606 155.864 87.8495 149.993 94.6128C144.123 101.376 135.839 105.578 126.911 106.321C117.983 107.065 109.118 104.291 102.208 98.5917C78.5752 126.806 52.7701 156.634 21.275 181.286C-58.9166 244.054 105.992 358.529 210.496 358.529C315 358.529 399.717 279.174 399.717 181.286C399.717 83.3972 311.204 -22.1027 210.496 4.04291Z" fill="#F2F2F2"/>
<path d="M239.956 362C355.408 362 449 355.852 449 348.267C449 340.683 355.408 334.535 239.956 334.535C124.504 334.535 30.9113 340.683 30.9113 348.267C30.9113 355.852 124.504 362 239.956 362Z" fill="#3F3D56"/>
<path opacity="0.1" d="M245.812 354.796C285.623 354.796 317.897 351.369 317.897 347.142C317.897 342.914 285.623 339.488 245.812 339.488C206.001 339.488 173.728 342.914 173.728 347.142C173.728 351.369 206.001 354.796 245.812 354.796Z" fill="black"/>
<path d="M422.302 332.961C422.302 346.141 414.463 350.742 404.792 350.742C404.568 350.742 404.344 350.739 404.122 350.734C403.673 350.725 403.229 350.704 402.79 350.673C394.062 350.056 387.282 345.218 387.282 332.961C387.282 320.28 403.498 304.275 404.719 303.088L404.721 303.087C404.768 303.04 404.792 303.017 404.792 303.017C404.792 303.017 422.302 319.784 422.302 332.961Z" fill="#7D4CDB"/>
<path d="M404.154 348.726L410.558 339.784L404.138 349.708L404.122 350.734C403.674 350.725 403.229 350.704 402.79 350.673L403.48 337.489L403.475 337.386L403.487 337.368L403.553 336.121L397.116 326.173L403.572 335.187L403.588 335.451L404.109 325.49L398.599 315.21L404.176 323.743L404.719 303.088L404.721 303.017V303.087L404.631 319.373L410.117 312.916L404.608 320.776L404.463 329.695L409.586 321.135L404.442 331.008L404.362 335.967L411.796 324.052L404.333 337.697L404.154 348.726Z" fill="#3F3D56"/>
<path d="M214.808 108.297C226.692 108.297 236.326 98.6689 236.326 86.7919C236.326 74.9149 226.692 65.2867 214.808 65.2867C202.924 65.2867 193.29 74.9149 193.29 86.7919C193.29 98.6689 202.924 108.297 214.808 108.297Z" fill="#2F2E41"/>
<path d="M264.338 276.816L275.839 323.163L287.34 321.309L275.839 268.288L264.338 276.816Z" fill="#A0616A"/>
<path d="M279.92 320.197C279.92 320.197 273.37 322.41 274.233 323.899C275.097 325.388 275.097 334.657 272.129 337.994C269.161 341.331 261.741 351.713 270.274 352.084C278.807 352.455 287.34 346.893 287.34 346.893V337.253L288.824 346.152H290.308V336.14C290.308 336.14 294.018 329.837 291.792 326.129C289.566 322.422 288.115 319.19 285.316 319.508C282.517 319.826 279.92 320.197 279.92 320.197Z" fill="#2F2E41"/>
<path d="M219.074 316.118L217.22 326.13H230.205V316.118H219.074Z" fill="#A0616A"/>
<path d="M220.188 323.905C220.188 323.905 216.478 323.534 215.365 328.725C214.252 333.916 204.234 341.331 200.524 342.444C196.814 343.556 196.814 347.264 201.637 348.005C206.46 348.747 218.704 349.118 221.672 345.039C223.687 342.379 226.059 340.008 228.721 337.994L226.866 348.376H230.205C230.205 348.376 233.173 338.365 236.141 335.028C239.109 331.691 230.205 323.905 228.721 323.905H220.188Z" fill="#2F2E41"/>
<path d="M202.008 164.47C202.008 164.47 199.411 171.515 194.959 172.627C190.507 173.739 157.487 181.526 157.487 181.526C157.487 181.526 128.549 182.267 137.453 188.571C146.357 194.874 160.826 188.571 160.826 188.571C160.826 188.571 203.121 183.38 206.46 177.818C208.659 174.033 210.521 170.063 212.026 165.953L202.008 164.47Z" fill="#A0616A"/>
<path d="M216.107 133.325C216.107 133.325 194.959 167.807 197.556 168.549C200.153 169.29 224.269 177.076 225.382 174.11C226.495 171.144 226.495 157.425 226.495 157.425L216.107 133.325Z" fill="#2F2E41"/>
<path opacity="0.1" d="M216.107 133.325C216.107 133.325 194.959 167.807 197.556 168.549C200.153 169.29 224.269 177.076 225.382 174.11C226.495 171.144 226.495 157.425 226.495 157.425L216.107 133.325Z" fill="black"/>
<path d="M271.016 125.167L318.876 149.639C318.876 149.639 345.959 156.684 340.023 162.245C334.087 167.807 314.795 157.425 314.795 157.425L261.741 133.325L271.016 125.167Z" fill="#A0616A"/>
<path d="M209.799 105.887C209.799 105.887 219.075 119.977 218.333 123.314C218.333 123.314 219.075 125.538 217.962 127.021C216.849 128.504 217.22 137.403 217.22 137.403L220.93 142.594L225.753 126.651L227.979 109.595C227.979 109.595 222.97 102.735 223.712 99.3984C224.454 96.0614 209.799 105.887 209.799 105.887Z" fill="#A0616A"/>
<path d="M239.109 185.975C239.109 185.975 218.333 241.592 218.333 266.063C218.333 290.535 210.542 318.343 216.478 320.939C222.414 323.534 252.465 323.905 253.207 320.939C253.949 317.972 249.497 197.469 247.271 192.649C245.045 187.829 239.109 185.975 239.109 185.975Z" fill="#2F2E41"/>
<path opacity="0.1" d="M239.109 185.975C239.109 185.975 218.333 241.592 218.333 266.063C218.333 290.535 210.542 318.343 216.478 320.939C222.414 323.534 252.465 323.905 253.207 320.939C253.949 317.972 249.497 197.469 247.271 192.649C245.045 187.829 239.109 185.975 239.109 185.975Z" fill="black"/>
<path d="M214.623 108.112C222.204 108.112 228.35 101.969 228.35 94.3928C228.35 86.8161 222.204 80.674 214.623 80.674C207.041 80.674 200.895 86.8161 200.895 94.3928C200.895 101.969 207.041 108.112 214.623 108.112Z" fill="#A0616A"/>
<path d="M218.704 135.92L217.71 127.552C217.71 127.552 214.623 131.841 214.623 135.178C214.623 138.515 212.768 150.38 220.559 157.796C228.35 165.212 229.834 166.695 230.205 168.178C230.576 169.661 232.431 169.661 232.431 169.661L243.19 213.042C243.19 213.042 246.529 328.354 251.723 329.837C256.917 331.32 272.871 329.837 273.984 327.983C275.097 326.129 272.129 276.816 272.129 276.816C272.129 276.816 280.291 320.568 283.259 320.568C286.227 320.568 288.082 314.265 287.34 313.894C286.598 313.523 282.146 284.973 280.291 276.074C278.436 267.176 279.178 191.908 279.178 191.908C279.178 191.908 285.114 182.267 264.709 163.358C264.709 163.358 251.723 125.538 250.981 125.538C250.239 125.538 235.77 105.145 235.77 105.145C235.77 105.145 227.608 105.145 226.124 109.966C224.64 114.786 218.704 135.92 218.704 135.92Z" fill="#2F2E41"/>
<path d="M231.318 108.112L235.77 105.145C235.77 105.145 254.32 116.269 267.306 117.01C280.291 117.752 279.92 125.167 274.726 130.358C269.532 135.549 249.126 153.347 248.384 148.897C247.642 144.448 231.318 108.112 231.318 108.112Z" fill="#2F2E41"/>
<path d="M214.808 89.7581C223.004 89.7581 229.648 85.774 229.648 80.8594C229.648 75.9448 223.004 71.9607 214.808 71.9607C206.612 71.9607 199.968 75.9448 199.968 80.8594C199.968 85.774 206.612 89.7581 214.808 89.7581Z" fill="#2F2E41"/>
<path d="M216.292 74.1854C221.21 74.1854 225.196 70.2013 225.196 65.2867C225.196 60.3721 221.21 56.3881 216.292 56.3881C211.374 56.3881 207.388 60.3721 207.388 65.2867C207.388 70.2013 211.374 74.1854 216.292 74.1854Z" fill="#2F2E41"/>
<path d="M204.42 60.4666C204.42 58.267 205.235 56.1454 206.708 54.511C208.181 52.8766 210.208 51.8453 212.397 51.616C212.088 51.584 211.779 51.5679 211.469 51.5679C209.109 51.5695 206.845 52.5078 205.177 54.1765C203.508 55.8451 202.571 58.1076 202.571 60.4666C202.571 62.8255 203.508 65.088 205.177 66.7566C206.845 68.4253 209.109 69.3636 211.469 69.3652C211.779 69.3652 212.088 69.3491 212.397 69.3171C210.208 69.0878 208.181 68.0565 206.708 66.4221C205.235 64.7878 204.42 62.6661 204.42 60.4666Z" fill="#2F2E41"/>
<path d="M335.828 153.878L139.685 186.847L158.951 301.324L355.094 268.355L335.828 153.878Z" fill="#3F3D56"/>
<path opacity="0.3" d="M308.124 191.618L177.862 213.273C177.515 213.331 177.16 213.32 176.817 213.24C176.474 213.161 176.15 213.015 175.864 212.81C175.578 212.606 175.335 212.347 175.148 212.049C174.962 211.75 174.837 211.418 174.779 211.071C174.721 210.724 174.733 210.369 174.812 210.027C174.891 209.684 175.038 209.361 175.242 209.075C175.447 208.789 175.706 208.546 176.004 208.36C176.303 208.174 176.635 208.048 176.982 207.99L307.244 186.335C307.945 186.219 308.663 186.386 309.24 186.799C309.817 187.212 310.207 187.837 310.324 188.537C310.44 189.237 310.274 189.955 309.861 190.532C309.449 191.11 308.824 191.5 308.124 191.618Z" fill="#7D4CDB"/>
<path d="M272.192 205.97C278.323 205.97 283.292 201.003 283.292 194.876C283.292 188.75 278.323 183.783 272.192 183.783C266.062 183.783 261.092 188.75 261.092 194.876C261.092 201.003 266.062 205.97 272.192 205.97Z" fill="#7D4CDB"/>
<path opacity="0.3" d="M312.96 220.672L182.698 242.328C182.351 242.386 181.996 242.375 181.653 242.295C181.31 242.216 180.987 242.07 180.7 241.865C180.414 241.661 180.171 241.402 179.985 241.103C179.799 240.805 179.673 240.473 179.615 240.126C179.558 239.779 179.569 239.424 179.648 239.082C179.728 238.739 179.874 238.416 180.079 238.13C180.283 237.844 180.542 237.601 180.841 237.415C181.139 237.229 181.472 237.103 181.819 237.045L312.081 215.39C312.781 215.274 313.499 215.441 314.076 215.854C314.654 216.267 315.043 216.892 315.16 217.592C315.277 218.292 315.11 219.01 314.698 219.587C314.285 220.165 313.66 220.555 312.96 220.672Z" fill="#7D4CDB"/>
<path d="M218.128 244.817C224.258 244.817 229.228 239.85 229.228 233.724C229.228 227.597 224.258 222.63 218.128 222.63C211.997 222.63 207.028 227.597 207.028 233.724C207.028 239.85 211.997 244.817 218.128 244.817Z" fill="#7D4CDB"/>
<path opacity="0.3" d="M317.796 249.728L187.534 271.383C187.187 271.441 186.832 271.43 186.489 271.35C186.147 271.271 185.823 271.125 185.537 270.92C184.958 270.507 184.568 269.882 184.452 269.181C184.335 268.481 184.502 267.762 184.915 267.185C185.328 266.607 185.954 266.217 186.655 266.1L316.917 244.445C317.264 244.387 317.62 244.397 317.963 244.477C318.306 244.556 318.63 244.702 318.917 244.906C319.203 245.111 319.447 245.37 319.633 245.668C319.819 245.967 319.945 246.299 320.003 246.646C320.061 246.993 320.049 247.349 319.97 247.691C319.89 248.034 319.744 248.358 319.539 248.644C319.334 248.93 319.074 249.173 318.775 249.359C318.476 249.545 318.144 249.67 317.796 249.728Z" fill="#7D4CDB"/>
<path d="M263.364 267.155C269.494 267.155 274.464 262.189 274.464 256.062C274.464 249.936 269.494 244.969 263.364 244.969C257.234 244.969 252.264 249.936 252.264 256.062C252.264 262.189 257.234 267.155 263.364 267.155Z" fill="#7D4CDB"/>
<path d="M124.061 96.5857C137.576 96.5857 148.532 85.6367 148.532 72.1304C148.532 58.6241 137.576 47.675 124.061 47.675C110.547 47.675 99.591 58.6241 99.591 72.1304C99.591 85.6367 110.547 96.5857 124.061 96.5857Z" fill="#6FFFB0"/>
</g>
<defs>
<clipPath id="clip0">
<rect width="449" height="362" fill="white"/>
</clipPath>
</defs>
</svg>
