<svg width="443" height="317" viewBox="0 0 443 317" fill="none" xmlns="http://www.w3.org/2000/svg">
<g clip-path="url(#clip0)">
<path d="M47.4285 264.772C47.4285 282.652 36.8113 288.895 23.7143 288.895C10.6172 288.895 0 282.652 0 264.772C0 246.892 23.7143 224.146 23.7143 224.146C23.7143 224.146 47.4285 246.892 47.4285 264.772Z" fill="#F2F2F2"/>
<path d="M22.8504 286.16L23.0932 271.196L33.2009 252.684L23.1313 268.848L23.2405 262.12L30.2066 248.727L23.2694 260.339V260.34L23.4658 248.238L30.9252 237.576L23.4966 246.335L23.6191 224.146L22.8481 253.521L22.9115 252.309L15.3277 240.687L22.7899 254.635L22.0832 268.15L22.0625 267.792L13.3191 255.561L22.0359 269.059L21.9473 270.749L21.9317 270.774L21.9391 270.913L20.1461 305.202H22.5416L22.8289 287.491L31.5241 274.026L22.8504 286.16Z" fill="#3F3D56"/>
<path d="M234.404 35.0376C296.665 84.7047 306.92 175.497 257.309 237.829C207.697 300.16 56.6003 340.437 54.7465 260.759C52.8808 180.571 11.6647 105.425 31.842 57.9679C63.0211 -15.3647 172.143 -14.6296 234.404 35.0376Z" fill="#F2F2F2"/>
<path d="M68.9968 317C105.493 317 135.078 312.064 135.078 305.974C135.078 299.885 105.493 294.948 68.9968 294.948C32.501 294.948 2.91528 299.885 2.91528 305.974C2.91528 312.064 32.501 317 68.9968 317Z" fill="#3F3D56"/>
<path d="M406.935 307.707C424.908 307.707 439.477 305.276 439.477 302.277C439.477 299.278 424.908 296.847 406.935 296.847C388.962 296.847 374.392 299.278 374.392 302.277C374.392 305.276 388.962 307.707 406.935 307.707Z" fill="#3F3D56"/>
<path d="M443 73.5083H65.7845V277.49H443V73.5083Z" fill="#3F3D56"/>
<path d="M443 56.9692H65.7845V75.8054H443V56.9692Z" fill="#3F3D56"/>
<path d="M74.9625 68.4546C76.7366 68.4546 78.1748 67.0147 78.1748 65.2386C78.1748 63.4625 76.7366 62.0227 74.9625 62.0227C73.1884 62.0227 71.7502 63.4625 71.7502 65.2386C71.7502 67.0147 73.1884 68.4546 74.9625 68.4546Z" fill="#7D4CDB"/>
<path d="M84.1405 68.4546C85.9146 68.4546 87.3528 67.0147 87.3528 65.2386C87.3528 63.4625 85.9146 62.0227 84.1405 62.0227C82.3664 62.0227 80.9282 63.4625 80.9282 65.2386C80.9282 67.0147 82.3664 68.4546 84.1405 68.4546Z" fill="#7D4CDB"/>
<path d="M93.3185 68.4546C95.0926 68.4546 96.5308 67.0147 96.5308 65.2386C96.5308 63.4625 95.0926 62.0227 93.3185 62.0227C91.5444 62.0227 90.1062 63.4625 90.1062 65.2386C90.1062 67.0147 91.5444 68.4546 93.3185 68.4546Z" fill="#7D4CDB"/>
<path opacity="0.1" d="M443 73.5083H65.7845V75.8054H443V73.5083Z" fill="black"/>
<path opacity="0.3" d="M161.924 105.897H87.5822V185.377H161.924V105.897Z" fill="#7D4CDB"/>
<path d="M166.972 100.384H92.6301V179.864H166.972V100.384Z" fill="#7D4CDB"/>
<path opacity="0.3" d="M417.321 104.623H360.169V165.725H417.321V104.623Z" fill="#7D4CDB"/>
<path d="M421.202 100.384H364.049V161.487H421.202V100.384Z" fill="#7D4CDB"/>
<path opacity="0.3" d="M417.321 189.511H360.169V250.614H417.321V189.511Z" fill="#7D4CDB"/>
<path d="M421.202 185.273H364.049V246.376H421.202V185.273Z" fill="#7D4CDB"/>
<path d="M334.929 100.384H193.129V105.897H334.929V100.384Z" fill="#7D4CDB"/>
<path d="M334.929 116.464H193.129V121.977H334.929V116.464Z" fill="#7D4CDB"/>
<path d="M334.929 132.543H193.129V138.056H334.929V132.543Z" fill="#7D4CDB"/>
<path d="M334.929 148.623H193.129V154.136H334.929V148.623Z" fill="#7D4CDB"/>
<path d="M334.929 164.703H193.129V170.216H334.929V164.703Z" fill="#7D4CDB"/>
<path d="M334.929 180.782H193.129V186.296H334.929V180.782Z" fill="#7D4CDB"/>
<path d="M334.929 196.862H193.129V202.375H334.929V196.862Z" fill="#7D4CDB"/>
<path d="M334.929 212.942H193.129V218.455H334.929V212.942Z" fill="#7D4CDB"/>
<path d="M334.929 229.021H193.129V234.535H334.929V229.021Z" fill="#7D4CDB"/>
<path d="M334.929 245.101H193.129V250.614H334.929V245.101Z" fill="#7D4CDB"/>
<path d="M57.977 143.744C63.426 143.744 67.8433 139.321 67.8433 133.866C67.8433 128.411 63.426 123.989 57.977 123.989C52.5279 123.989 48.1106 128.411 48.1106 133.866C48.1106 139.321 52.5279 143.744 57.977 143.744Z" fill="#A0616A"/>
<path d="M51.5928 138.514C51.5928 138.514 51.5928 148.973 49.8517 150.135C48.1106 151.297 63.7807 152.459 63.7807 152.459V139.095L51.5928 138.514Z" fill="#A0616A"/>
<path d="M32.4404 196.618C32.4404 196.618 43.4676 209.4 45.7891 209.4C48.1106 209.4 50.4321 200.685 50.4321 200.685L39.4049 192.55L32.4404 196.618Z" fill="#A0616A"/>
<path d="M87.5761 139.095L89.3172 126.894C89.3172 126.894 90.478 110.044 93.9602 114.111C97.4425 118.178 95.121 127.475 95.121 127.475C95.121 127.475 96.8621 140.838 95.121 142.582C93.3799 144.325 87.5761 139.095 87.5761 139.095Z" fill="#A0616A"/>
<path d="M77.7097 204.752L46.3694 201.847C46.3694 201.847 42.3068 221.021 43.4675 228.574C44.6283 236.128 45.2087 257.626 45.2087 257.626C45.2087 257.626 46.3694 296.555 48.1106 298.879C49.8517 301.203 55.6554 300.622 57.3966 301.784C59.1377 302.946 62.0396 299.46 62.0396 298.879C62.0396 298.298 58.5573 298.298 60.2984 294.812C62.0396 291.326 55.6554 281.448 57.3966 276.8C59.1377 272.152 62.0396 265.76 60.2984 263.436C58.5573 261.112 61.4592 231.48 61.4592 231.48C61.4592 231.48 75.9686 252.397 75.9686 261.693C75.9686 270.99 74.8078 292.488 74.2274 294.812C73.6471 297.136 73.0667 297.717 74.2274 299.46C75.3882 301.203 76.549 302.946 75.9686 303.527C75.3882 304.109 86.4153 303.527 86.4153 300.041C86.4153 296.555 85.8349 296.555 86.9957 293.65C88.1564 290.745 88.7368 255.883 88.7368 255.883L77.7097 204.752Z" fill="#2F2E41"/>
<path d="M49.8518 146.068L48.1106 149.554C48.1106 149.554 29.5386 155.364 28.9583 167.566L44.6284 193.712C44.6284 193.712 45.7891 195.456 45.2088 196.618C44.6284 197.78 44.048 197.199 44.6284 198.942C45.2088 200.685 45.2088 200.104 45.2088 201.266C45.2088 202.428 43.4676 201.847 45.2088 202.428C46.9499 203.009 44.6284 202.428 51.0125 204.171C57.3966 205.914 76.549 205.333 76.549 205.333L73.0668 171.633L76.549 164.661L71.906 150.716C71.906 150.716 69.0041 150.135 67.263 151.297C65.5219 152.459 63.2004 150.135 63.2004 150.135C63.2004 150.135 60.2985 146.068 49.8518 146.068Z" fill="#575A89"/>
<path d="M69.0041 151.297L71.906 150.716C71.906 150.716 83.5135 147.23 84.0938 144.325C84.6742 141.42 87.5761 137.933 87.5761 137.933C87.5761 137.933 96.8621 135.609 96.2817 143.163C95.7014 150.716 93.3799 153.04 92.2191 154.202C91.0583 155.364 78.2901 164.661 75.9686 164.661C73.6471 164.661 69.0041 151.297 69.0041 151.297Z" fill="#575A89"/>
<path d="M30.1189 165.242L28.9582 167.566L28.3778 188.483C28.3778 188.483 24.8956 190.807 26.6367 191.969C28.3778 193.131 32.4404 198.361 33.6012 198.361C34.7619 198.361 41.1461 195.456 41.1461 194.294C41.1461 193.131 39.9853 182.673 39.9853 182.673L30.1189 165.242Z" fill="#575A89"/>
<path d="M51.5928 298.879C51.5928 298.879 51.5928 304.689 51.0125 305.852C50.4321 307.014 49.2713 312.824 52.7536 312.824C54.7485 312.852 56.7268 312.456 58.5573 311.662C58.5573 311.662 58.5573 308.176 60.2985 307.595C62.0396 307.014 66.1022 302.365 64.3611 301.203C62.62 300.041 59.1377 298.879 59.1377 298.879L51.5928 298.879Z" fill="#2F2E41"/>
<path d="M76.549 301.784C76.549 301.784 73.0667 309.919 76.549 310.5C80.0312 311.081 84.6742 310.5 85.2546 309.338C85.8349 308.176 86.9957 307.014 88.1564 307.595C89.3172 308.176 99.1836 301.203 95.7013 300.041C93.6299 299.346 91.3887 299.346 89.3172 300.041L85.835 298.298L76.549 301.784Z" fill="#2F2E41"/>
<path d="M59.2242 144.753C59.389 144.743 59.5498 144.698 59.6965 144.623C59.9328 144.432 60.0898 144.16 60.1367 143.86L61.322 139.656C61.7717 138.061 62.4941 136.198 64.1151 135.86C64.4549 135.838 64.7871 135.749 65.0932 135.6C65.2709 135.432 65.4104 135.228 65.502 135.002C65.5937 134.776 65.6355 134.532 65.6244 134.288L66.1323 128.854C66.2696 127.385 66.3998 125.858 65.8879 124.474C65.1329 122.433 63.0626 121.089 60.9231 120.703C58.7836 120.316 56.5795 120.749 54.4969 121.373C51.3378 122.321 48.0663 123.952 46.6938 126.954C45.8992 128.692 45.8503 130.674 45.9565 132.582C46.0659 134.547 46.339 136.55 47.2411 138.299C47.7426 139.203 48.3249 140.06 48.9807 140.859C49.9604 142.128 51.1621 144.61 52.7835 145.084C54.6115 145.618 57.372 144.994 59.2242 144.753Z" fill="#2F2E41"/>
<path d="M380.935 268.104C380.935 285.575 391.883 299.713 405.413 299.713L380.935 268.104Z" fill="#2F2E41"/>
<path d="M405.413 299.713C405.413 282.045 417.63 267.749 432.729 267.749L405.413 299.713Z" fill="#7D4CDB"/>
<path d="M389.804 269.688C389.804 286.284 396.785 299.713 405.413 299.713L389.804 269.688Z" fill="#7D4CDB"/>
<path d="M405.413 299.713C405.413 277.138 419.535 258.87 436.986 258.87L405.413 299.713Z" fill="#2F2E41"/>
<path d="M400.263 299.936C400.263 299.936 403.735 299.828 404.781 299.083C405.827 298.337 410.121 297.446 410.38 298.642C410.64 299.839 415.597 304.591 411.678 304.623C407.759 304.655 402.572 304.012 401.527 303.375C400.483 302.738 400.263 299.936 400.263 299.936Z" fill="#A8A8A8"/>
<path opacity="0.2" d="M411.748 304.207C407.829 304.239 402.642 303.596 401.597 302.959C400.802 302.474 400.485 300.734 400.379 299.931C400.306 299.934 400.263 299.936 400.263 299.936C400.263 299.936 400.483 302.739 401.527 303.375C402.572 304.012 407.759 304.655 411.678 304.623C412.809 304.614 413.2 304.211 413.179 303.614C413.022 303.975 412.59 304.2 411.748 304.207Z" fill="black"/>
</g>
<defs>
<clipPath id="clip0">
<rect width="443" height="317" fill="white"/>
</clipPath>
</defs>
</svg>
