<svg width="450" height="297" viewBox="0 0 450 297" fill="none" xmlns="http://www.w3.org/2000/svg">
<g clip-path="url(#clip0)">
<path d="M311.783 134.365L314.582 133.268C314.85 133.162 315.114 133.048 315.394 132.939C310.215 131.032 305.84 127.419 302.986 122.695C300.133 117.971 298.972 112.416 299.694 106.944C300.416 101.473 302.979 96.4093 306.96 92.5873C310.941 88.7652 316.104 86.4117 321.6 85.9138L319.65 95.7437L327.05 86.0276H327.115C333.503 86.9059 339.28 90.2856 343.176 95.4234C347.073 100.561 348.77 107.037 347.893 113.425C347.832 113.884 347.735 114.331 347.649 114.782C349.928 112.983 352.064 110.996 353.664 108.689C356.913 104.002 358.014 98.2255 359.135 91.1537C361.357 77.1482 363.359 62.9883 365.162 48.8366C359.625 47.1657 354.865 43.5743 351.738 38.7079C348.612 33.8415 347.323 28.0193 348.104 22.2878C348.206 21.5485 348.348 20.8296 348.51 20.1187C348.551 19.94 348.592 19.7613 348.636 19.5866C348.811 18.9002 349.006 18.2259 349.233 17.5557C349.27 17.446 349.319 17.3444 349.355 17.2388C349.558 16.6823 349.761 16.134 350.025 15.6141C350.115 15.411 350.204 15.2079 350.297 15.0169C350.578 14.4361 350.874 13.8674 351.199 13.315C351.309 13.1322 351.427 12.9576 351.536 12.7748C351.788 12.3686 352.052 11.9624 352.324 11.5846C352.47 11.3815 352.612 11.1784 352.763 10.9794L352.872 10.821C356.321 6.30686 361.242 3.1441 366.78 1.88254C372.318 0.620976 378.124 1.34039 383.186 3.9157L380.652 16.7067L387.963 7.10432C391.895 10.4362 394.659 14.9381 395.851 19.9526C397.044 24.9671 396.602 30.2316 394.591 34.9773H394.619C394.55 35.1397 394.465 35.2941 394.396 35.4566C394.262 35.7572 394.124 36.0537 393.99 36.3502C393.803 36.728 393.584 37.0976 393.401 37.4632C393.246 37.7394 393.096 38.0156 392.93 38.2755C392.69 38.6817 392.43 39.0473 392.17 39.4251C392.016 39.6444 391.874 39.8719 391.715 40.0872C391.309 40.6518 390.854 41.192 390.391 41.7119C390.229 41.8947 390.054 42.0613 389.884 42.24C389.555 42.5893 389.226 42.9346 388.876 43.2636C388.661 43.4667 388.434 43.6698 388.21 43.8566C387.89 44.141 387.561 44.4172 387.223 44.669C386.984 44.8599 386.74 45.0427 386.496 45.2214C386.143 45.4773 385.786 45.717 385.424 45.9567C385.181 46.1151 384.937 46.2735 384.689 46.4238C384.283 46.6716 383.857 46.899 383.43 47.1224C383.215 47.2321 383.024 47.354 382.784 47.4596C382.143 47.7723 381.485 48.0607 380.815 48.3166C380.689 48.3654 380.555 48.4019 380.429 48.4466C379.868 48.6497 379.304 48.8528 378.731 48.995C378.483 49.064 378.232 49.1209 377.98 49.1818C377.513 49.2956 377.042 49.4012 376.566 49.4905C376.296 49.5393 376.015 49.584 375.726 49.6246C375.259 49.6936 374.788 49.7464 374.312 49.787C374.032 49.8114 373.756 49.8358 373.472 49.852C372.96 49.8764 372.444 49.8805 371.928 49.8764C371.895 49.8744 371.861 49.8744 371.827 49.8764C371.063 55.8339 370.262 61.7914 369.422 67.7489C371.392 65.0895 373.884 62.8606 376.746 61.1988C379.607 59.537 382.778 58.4773 386.064 58.0848C389.349 57.6923 392.681 57.9752 395.853 58.9162C399.025 59.8572 401.972 61.4364 404.513 63.557L398.144 74.3536L408.383 67.6148C412.254 72.7391 413.934 79.1904 413.054 85.5523C412.753 87.786 412.138 89.9659 411.226 92.027C409.272 96.4898 406.021 100.262 401.896 102.854C397.772 105.446 392.963 106.739 388.095 106.563C383.227 106.388 378.523 104.754 374.596 101.872C370.668 98.99 367.697 94.9939 366.068 90.4023C365.974 91.0034 365.885 91.6208 365.792 92.2139C364.801 98.4489 363.57 106.211 359.2 112.524C356.239 116.813 352.162 119.981 348.198 122.768C345.62 124.582 342.983 126.311 340.286 127.955C337.456 130.58 334.04 132.493 330.324 133.536C325.991 135.754 321.566 137.759 317.047 139.552L314.224 140.656C311.686 141.648 309.087 142.663 306.508 143.743C306.914 143.78 307.32 143.813 307.726 143.865C312.836 144.567 317.591 146.875 321.304 150.457C325.017 154.038 327.496 158.707 328.382 163.789L311.199 173.176L328.329 172.409C327.644 176.208 326.053 179.786 323.691 182.84C319.818 187.855 314.14 191.159 307.867 192.05C301.593 192.941 295.22 191.347 290.104 187.608L290.957 189.196C291.525 190.244 292.086 191.288 292.63 192.324C300.075 206.435 300.615 218.621 294.153 226.643L288.873 222.399C295.164 214.592 290.173 202.182 286.64 195.48C286.103 194.465 285.551 193.449 285.015 192.409C280.235 183.542 274.813 173.493 276.986 162.798C280.235 146.672 297.719 139.848 311.783 134.365Z" fill="#F2F2F2"/>
<path d="M109.495 210.818L107.31 209.961C107.098 209.88 106.903 209.786 106.684 209.705C110.727 208.214 114.143 205.392 116.369 201.702C118.596 198.013 119.502 193.675 118.938 189.403C118.374 185.13 116.373 181.177 113.265 178.192C110.157 175.207 106.126 173.368 101.835 172.977L103.358 180.654L97.5826 173.067H97.5298C95.058 173.404 92.677 174.226 90.5227 175.484C88.3683 176.742 86.483 178.412 84.9744 180.4C83.4657 182.387 82.3633 184.652 81.7302 187.065C81.097 189.478 80.9455 191.993 81.2843 194.465C81.333 194.826 81.4102 195.172 81.4752 195.525C79.6834 194.178 78.1012 192.572 76.7803 190.76C74.25 187.105 73.3809 182.588 72.5036 177.068C70.7857 166.129 69.2261 155.072 67.8249 144.032C72.1477 142.725 75.8626 139.919 78.3021 136.118C80.7417 132.317 81.7458 127.771 81.134 123.296C81.0528 122.719 80.9432 122.158 80.8132 121.602L80.7157 121.196C80.5776 120.66 80.4274 120.132 80.2487 119.62C80.2202 119.534 80.1837 119.453 80.1512 119.372C79.9928 118.937 79.8182 118.511 79.6313 118.093C79.5582 117.938 79.4892 117.78 79.4161 117.625C79.1968 117.175 78.9653 116.732 78.7135 116.301C78.6282 116.155 78.5348 116.017 78.4495 115.895C78.2505 115.578 78.0433 115.265 77.8321 114.965C77.7184 114.806 77.6088 114.644 77.491 114.49L77.4057 114.368C74.7126 110.843 70.8707 108.372 66.5465 107.384C62.2223 106.395 57.6886 106.952 53.732 108.957L55.7139 118.95L49.9996 111.451C46.929 114.054 44.7703 117.569 43.8388 121.485C42.9072 125.401 43.2515 129.513 44.8213 133.219H44.801C44.8538 133.345 44.9188 133.467 44.9757 133.593C45.0812 133.828 45.1868 134.06 45.3006 134.291C45.4468 134.584 45.6011 134.872 45.7636 135.157C45.8813 135.376 45.9991 135.591 46.1291 135.803C46.3159 136.107 46.5352 136.404 46.722 136.7C46.8439 136.871 46.9535 137.05 47.0794 137.216C47.4043 137.655 47.7496 138.077 48.111 138.487C48.2369 138.63 48.375 138.76 48.5172 138.894C48.773 139.166 49.033 139.434 49.3051 139.706C49.4716 139.869 49.6503 140.019 49.8249 140.169C50.0767 140.394 50.3326 140.609 50.5925 140.815C50.7794 140.961 50.9702 141.103 51.1611 141.245C51.4373 141.445 51.7175 141.652 51.9978 141.818C52.1886 141.944 52.3795 142.066 52.5745 142.184C52.8953 142.379 53.2243 142.553 53.5573 142.728C53.7279 142.817 53.8904 142.911 54.0609 142.996C54.5645 143.24 55.0763 143.463 55.6002 143.662C55.6977 143.703 55.8033 143.727 55.9007 143.764C56.3353 143.922 56.778 144.069 57.2288 144.194C57.4197 144.247 57.6349 144.292 57.8136 144.337C58.1792 144.426 58.5447 144.511 58.9183 144.58L59.5722 144.686C59.9377 144.739 60.3073 144.779 60.6769 144.812C60.8962 144.832 61.1115 144.848 61.3349 144.861C61.741 144.881 62.1471 144.885 62.5533 144.881H62.6304C63.2261 149.544 63.8516 154.203 64.5068 158.858C62.9713 156.778 61.0271 155.034 58.7933 153.733C56.5596 152.431 54.0835 151.6 51.517 151.291C48.9506 150.981 46.3479 151.199 43.8688 151.932C41.3898 152.665 39.0866 153.896 37.1007 155.552L42.0312 163.935L34.0384 158.675C32.5391 160.656 31.4447 162.913 30.8175 165.316C30.1904 167.72 30.0428 170.224 30.3831 172.685C30.6189 174.431 31.1016 176.135 31.8168 177.746C33.3435 181.231 35.8821 184.177 39.1034 186.201C42.3247 188.225 46.0799 189.235 49.8818 189.098C53.6838 188.961 57.3569 187.685 60.4246 185.435C63.4923 183.185 65.8131 180.064 67.0858 176.479C67.1589 176.946 67.2279 177.421 67.301 177.892C68.0727 182.767 69.0352 188.827 72.4468 193.766C74.7617 197.113 77.9459 199.587 81.0406 201.764C83.0551 203.183 85.1142 204.537 87.218 205.826C89.4298 207.876 92.0969 209.371 94.9996 210.189C98.3786 211.919 101.839 213.495 105.372 214.884L107.574 215.749C109.556 216.521 111.586 217.313 113.588 218.158C113.272 218.187 112.951 218.211 112.63 218.256C108.641 218.802 104.929 220.603 102.029 223.397C99.1295 226.191 97.1927 229.834 96.4982 233.801L109.901 241.112L96.5226 240.515C97.1115 243.671 98.4906 246.627 100.531 249.106C102.571 251.585 105.206 253.506 108.19 254.69C111.174 255.875 114.41 256.284 117.594 255.879C120.779 255.474 123.809 254.269 126.402 252.376C126.179 252.782 125.959 253.188 125.736 253.615C125.293 254.427 124.855 255.239 124.428 256.052C118.616 267.072 118.194 276.593 123.242 282.861L127.357 279.546C122.442 273.453 126.341 263.757 129.103 258.521C129.509 257.729 129.952 256.929 130.386 256.125C134.119 249.22 138.351 241.352 136.665 232.996C134.143 220.429 120.477 215.116 109.495 210.818Z" fill="#F2F2F2"/>
<path d="M225 297C349.264 297 450 292.726 450 287.454C450 282.182 349.264 277.909 225 277.909C100.736 277.909 0 282.182 0 287.454C0 292.726 100.736 297 225 297Z" fill="#3F3D56"/>
<path opacity="0.1" d="M225 297C349.264 297 450 292.726 450 287.454C450 282.182 349.264 277.909 225 277.909C100.736 277.909 0 282.182 0 287.454C0 292.726 100.736 297 225 297Z" fill="black"/>
<path d="M225 291.719C349.264 291.719 450 287.446 450 282.174C450 276.902 349.264 272.628 225 272.628C100.736 272.628 0 276.902 0 282.174C0 287.446 100.736 291.719 225 291.719Z" fill="#3F3D56"/>
<path d="M34.5217 278.778C33.3033 276.54 34.6842 273.798 36.26 271.8C37.8358 269.801 39.7568 267.738 39.7162 265.183C39.6593 261.527 35.7767 259.37 32.6778 257.433C30.3786 255.994 28.2574 254.288 26.3583 252.351C25.5646 251.605 24.9076 250.725 24.417 249.752C23.7753 248.322 23.7956 246.697 23.8362 245.129C23.9716 239.914 24.2288 234.704 24.6079 229.499" stroke="#3F3D56" stroke-width="4" stroke-miterlimit="10"/>
<path d="M18.727 229.211C18.7708 228.256 19.0542 227.329 19.5511 226.513C20.048 225.697 20.7423 225.02 21.5699 224.543L22.8452 227.066L22.8086 224.011C23.4168 223.83 24.0512 223.753 24.685 223.784C25.8072 223.839 26.8879 224.225 27.7909 224.894C28.6938 225.562 29.3784 226.483 29.7583 227.541C30.1382 228.598 30.1963 229.745 29.9253 230.835C29.6543 231.926 29.0664 232.912 28.2357 233.668C27.405 234.425 26.3689 234.918 25.258 235.086C24.1471 235.255 23.0113 235.09 21.994 234.613C20.9767 234.136 20.1235 233.368 19.542 232.407C18.9606 231.445 18.6769 230.333 18.727 229.211Z" fill="#7D4CDB"/>
<path d="M28.8926 267.799C29.459 268.926 30.3843 269.833 31.5227 270.377C32.6612 270.921 33.9481 271.071 35.181 270.803C36.4139 270.535 37.5226 269.864 38.3326 268.897C39.1426 267.929 39.6079 266.72 39.6552 265.459C39.6958 264.671 39.5698 263.884 39.2856 263.148C38.8771 262.059 38.1446 261.122 37.187 260.462C36.2293 259.803 35.0925 259.453 33.9298 259.459C32.7671 259.466 31.6343 259.829 30.6843 260.499C29.7342 261.17 29.0125 262.115 28.6164 263.209L32.1782 266.105L28.2631 265.195C28.2609 266.101 28.4768 266.994 28.8926 267.799Z" fill="#7D4CDB"/>
<path d="M31.7071 256.73C33.1275 256.837 34.5364 256.408 35.6552 255.526C36.774 254.644 37.5211 253.375 37.7488 251.968C37.9766 250.562 37.6682 249.122 36.8849 247.932C36.1015 246.742 34.9002 245.89 33.5185 245.543L33.5469 247.895L32.2554 245.34C30.7447 245.27 29.2679 245.802 28.1498 246.821C27.0317 247.839 26.3639 249.26 26.2933 250.771C26.2228 252.282 26.7552 253.759 27.7736 254.877C28.7919 255.996 30.2127 256.663 31.7234 256.734L31.7071 256.73Z" fill="#7D4CDB"/>
<path d="M17.87 247.521C18.6167 247.557 19.363 247.444 20.0664 247.191C20.7697 246.938 21.4162 246.549 21.9691 246.045C22.522 245.542 22.9704 244.935 23.2886 244.259C23.6069 243.582 23.7888 242.85 23.824 242.103C23.8592 241.356 23.747 240.61 23.4938 239.906C23.2406 239.203 22.8513 238.556 22.3482 238.003C21.8451 237.45 21.238 237.002 20.5617 236.684C19.8853 236.365 19.1528 236.183 18.4061 236.148C17.3402 236.095 16.2811 236.346 15.352 236.871L16.3592 239.633L14.2839 237.643C13.1739 238.66 12.5122 240.075 12.4441 241.579C12.4165 242.104 12.4658 242.631 12.5903 243.143C12.8737 244.348 13.5427 245.428 14.4957 246.218C15.4486 247.008 16.6334 247.466 17.87 247.521Z" fill="#7D4CDB"/>
<path opacity="0.1" d="M19.4946 230.73C20.8105 230.876 22.0899 231.286 23.4098 231.367C24.7297 231.449 26.1797 231.132 27.0163 230.108C27.4671 229.552 27.6905 228.853 28.0682 228.252C28.43 227.69 28.9235 227.226 29.5059 226.899C29.8498 227.618 30.0388 228.401 30.0605 229.198C30.0823 229.995 29.9363 230.787 29.6321 231.524C29.3279 232.261 28.8723 232.925 28.2948 233.474C27.7172 234.024 27.0307 234.445 26.2798 234.712C25.5288 234.979 24.7302 235.085 23.9357 235.023C23.1412 234.961 22.3685 234.733 21.6678 234.353C20.9672 233.973 20.3541 233.451 19.8685 232.819C19.3829 232.187 19.0355 231.46 18.8489 230.685C19.0641 230.693 19.2794 230.709 19.4946 230.73Z" fill="black"/>
<path opacity="0.1" d="M17.87 247.522C18.8531 247.571 19.8322 247.365 20.7117 246.923C21.5912 246.481 22.3408 245.818 22.8873 244.999C23.4338 244.181 23.7584 243.234 23.8293 242.252C23.9002 241.27 23.7151 240.287 23.2919 239.398C22.8395 239.703 22.4505 240.094 22.1466 240.547C21.7405 241.161 21.4928 241.867 21.0176 242.432C20.1281 243.476 18.6132 243.817 17.2364 243.752C15.8596 243.687 14.5316 243.301 13.1751 243.175C12.9842 243.175 12.7933 243.143 12.6024 243.139C12.8845 244.343 13.5514 245.422 14.502 246.213C15.4525 247.004 16.6349 247.463 17.87 247.522Z" fill="black"/>
<path opacity="0.1" d="M31.7071 256.73C32.6814 256.78 33.6521 256.579 34.526 256.145C35.3999 255.711 36.1475 255.06 36.697 254.254C37.2464 253.448 37.5793 252.514 37.6635 251.542C37.7477 250.57 37.5804 249.592 37.1778 248.704C36.7042 249.012 36.2912 249.404 35.9594 249.861C35.5167 250.487 35.2405 251.206 34.741 251.783C33.7825 252.855 32.1661 253.233 30.708 253.196C29.25 253.16 27.9382 252.818 26.533 252.713C26.876 253.834 27.5573 254.822 28.4835 255.541C29.4098 256.261 30.5358 256.676 31.7071 256.73Z" fill="black"/>
<path opacity="0.1" d="M28.8926 267.799C29.459 268.926 30.3843 269.833 31.5227 270.377C32.6612 270.921 33.9481 271.071 35.181 270.803C36.4138 270.535 37.5226 269.864 38.3326 268.897C39.1426 267.929 39.6079 266.72 39.6552 265.459C39.6958 264.671 39.5698 263.884 39.2856 263.148C38.816 263.455 38.3945 263.83 38.0347 264.261C37.4905 264.923 37.1372 265.67 36.5077 266.292C35.342 267.437 33.4616 267.917 31.7883 267.953C30.8209 267.957 29.8541 267.906 28.8926 267.799Z" fill="black"/>
<path d="M43.1277 276.203C43.1277 276.203 38.6277 276.065 37.2753 275.098C35.9228 274.131 30.3709 272.978 30.0176 274.529C29.6643 276.081 23.2554 282.247 28.3362 282.271C33.417 282.296 40.1385 281.459 41.491 280.647C42.8434 279.834 43.1277 276.203 43.1277 276.203Z" fill="#656380"/>
<path opacity="0.2" d="M28.2428 281.731C33.3236 281.772 40.0451 280.919 41.4016 280.107C42.4291 279.481 42.8393 277.227 42.9774 276.187H43.1277C43.1277 276.187 42.8434 279.814 41.5032 280.655C40.1629 281.496 33.4251 282.312 28.3484 282.28C26.8822 282.28 26.3745 281.748 26.403 280.972C26.5939 281.431 27.1543 281.731 28.2428 281.731Z" fill="black"/>
<path d="M428.475 282.434C427.256 280.196 428.637 277.454 430.213 275.455C431.789 273.457 433.71 271.394 433.669 268.839C433.612 265.183 429.73 263.026 426.631 261.088C424.332 259.649 422.21 257.944 420.311 256.007C419.518 255.26 418.861 254.38 418.37 253.407C417.728 251.978 417.749 250.353 417.789 248.785C417.922 243.569 418.179 238.359 418.561 233.155" stroke="#3F3D56" stroke-width="4" stroke-miterlimit="10"/>
<path d="M412.68 232.866C412.724 231.912 413.007 230.984 413.504 230.169C414.001 229.353 414.695 228.676 415.523 228.199L416.798 230.722L416.762 227.667C417.37 227.486 418.004 227.409 418.638 227.44C419.76 227.495 420.84 227.882 421.743 228.551C422.645 229.22 423.329 230.142 423.708 231.199C424.088 232.257 424.145 233.403 423.874 234.493C423.602 235.583 423.014 236.569 422.183 237.325C421.352 238.081 420.316 238.574 419.206 238.742C418.095 238.91 416.959 238.745 415.942 238.268C414.925 237.791 414.072 237.023 413.491 236.062C412.91 235.101 412.626 233.989 412.676 232.866H412.68Z" fill="#7D4CDB"/>
<path d="M422.846 271.454C423.412 272.582 424.337 273.489 425.476 274.033C426.614 274.576 427.901 274.726 429.134 274.458C430.367 274.19 431.476 273.52 432.286 272.552C433.096 271.585 433.561 270.376 433.608 269.115C433.649 268.327 433.523 267.539 433.239 266.803C432.83 265.715 432.098 264.777 431.14 264.118C430.182 263.458 429.046 263.108 427.883 263.115C426.72 263.121 425.587 263.484 424.637 264.155C423.687 264.825 422.966 265.771 422.57 266.864L426.131 269.76L422.216 268.851C422.214 269.756 422.43 270.649 422.846 271.454Z" fill="#7D4CDB"/>
<path d="M425.66 260.386C427.081 260.493 428.489 260.063 429.608 259.182C430.727 258.3 431.474 257.031 431.702 255.624C431.93 254.218 431.621 252.777 430.838 251.588C430.055 250.398 428.853 249.545 427.472 249.199L427.5 251.551L426.209 248.996C424.698 248.925 423.221 249.458 422.103 250.476C420.985 251.495 420.317 252.916 420.246 254.427C420.176 255.938 420.708 257.415 421.727 258.533C422.745 259.651 424.166 260.319 425.676 260.39L425.66 260.386Z" fill="#7D4CDB"/>
<path d="M411.823 251.177C413.331 251.248 414.806 250.717 415.922 249.701C417.039 248.685 417.706 247.267 417.777 245.759C417.848 244.25 417.317 242.776 416.301 241.659C415.285 240.542 413.867 239.875 412.359 239.804C411.293 239.751 410.234 240.002 409.305 240.527L410.312 243.289L408.237 241.299C407.127 242.315 406.465 243.731 406.397 245.235C406.37 245.76 406.419 246.287 406.543 246.798C406.827 248.004 407.496 249.083 408.449 249.874C409.402 250.664 410.586 251.122 411.823 251.177Z" fill="#7D4CDB"/>
<path opacity="0.1" d="M413.448 234.385C414.764 234.532 416.043 234.942 417.363 235.023C418.683 235.104 420.133 234.787 420.969 233.764C421.42 233.207 421.643 232.509 422.021 231.908C422.383 231.346 422.877 230.882 423.459 230.555C423.803 231.274 423.992 232.057 424.013 232.854C424.035 233.651 423.889 234.443 423.585 235.18C423.281 235.916 422.825 236.581 422.248 237.13C421.67 237.679 420.984 238.101 420.233 238.368C419.482 238.635 418.683 238.74 417.889 238.679C417.094 238.617 416.322 238.389 415.621 238.009C414.92 237.629 414.307 237.106 413.821 236.474C413.336 235.842 412.988 235.116 412.802 234.341C413.017 234.349 413.232 234.365 413.448 234.385Z" fill="black"/>
<path opacity="0.1" d="M411.823 251.177C412.806 251.227 413.785 251.021 414.665 250.579C415.544 250.137 416.294 249.474 416.84 248.655C417.387 247.836 417.712 246.89 417.782 245.908C417.853 244.926 417.668 243.942 417.245 243.053C416.793 243.359 416.404 243.749 416.1 244.203C415.694 244.816 415.446 245.523 414.971 246.088C414.081 247.132 412.566 247.473 411.19 247.408C409.813 247.343 408.485 246.957 407.128 246.831C406.937 246.831 406.746 246.799 406.556 246.794C406.838 247.999 407.505 249.078 408.455 249.869C409.406 250.659 410.588 251.119 411.823 251.177Z" fill="black"/>
<path opacity="0.1" d="M425.66 260.386C426.634 260.436 427.605 260.234 428.479 259.8C429.353 259.367 430.101 258.716 430.65 257.909C431.199 257.103 431.532 256.169 431.617 255.197C431.701 254.225 431.534 253.248 431.131 252.359C430.657 252.667 430.244 253.06 429.912 253.517C429.47 254.142 429.194 254.861 428.694 255.438C427.736 256.51 426.119 256.888 424.661 256.852C423.203 256.815 421.891 256.474 420.486 256.368C420.829 257.49 421.51 258.478 422.437 259.197C423.363 259.916 424.489 260.331 425.66 260.386Z" fill="black"/>
<path opacity="0.1" d="M422.846 271.455C423.412 272.582 424.337 273.489 425.476 274.033C426.614 274.577 427.901 274.727 429.134 274.459C430.367 274.191 431.476 273.52 432.286 272.553C433.096 271.585 433.561 270.376 433.608 269.115C433.649 268.327 433.523 267.54 433.239 266.804C432.769 267.111 432.348 267.486 431.988 267.917C431.444 268.579 431.09 269.326 430.461 269.948C429.295 271.093 427.415 271.572 425.741 271.609C424.774 271.613 423.807 271.561 422.846 271.455Z" fill="black"/>
<path d="M437.081 279.859C437.081 279.859 432.581 279.721 431.228 278.754C429.876 277.787 424.324 276.634 423.971 278.185C423.617 279.737 417.208 285.903 422.289 285.927C427.37 285.952 434.092 285.115 435.444 284.302C436.796 283.49 437.081 279.859 437.081 279.859Z" fill="#656380"/>
<path opacity="0.2" d="M422.196 285.387C427.277 285.428 433.998 284.575 435.355 283.762C436.382 283.137 436.792 280.882 436.93 279.843H437.081C437.081 279.843 436.796 283.47 435.456 284.311C434.116 285.151 427.378 285.968 422.301 285.935C420.835 285.935 420.328 285.403 420.356 284.627C420.547 285.086 421.107 285.387 422.196 285.387Z" fill="black"/>
<path d="M302.804 134.511C300.118 133.59 297.41 132.737 294.681 131.952C295.13 130.113 295.549 128.265 295.936 126.407C302.085 96.548 298.064 72.4932 284.333 64.5765C271.166 56.9807 249.632 64.9015 227.879 83.826C225.735 85.6999 223.641 87.6226 221.597 89.5939C220.224 88.2806 218.829 86.993 217.413 85.731C194.625 65.4905 171.796 56.9645 158.06 64.9055C144.906 72.5217 141.003 95.1344 146.546 123.434C147.088 126.237 147.709 129.023 148.411 131.793C145.182 132.711 142.059 133.69 139.069 134.734C112.35 144.032 95.2838 158.655 95.2838 173.802C95.2838 189.444 113.605 205.135 141.437 214.648C143.695 215.415 145.97 216.127 148.26 216.785C147.518 219.764 146.858 222.767 146.278 225.794C140.999 253.602 145.125 275.683 158.243 283.25C171.796 291.074 194.54 283.031 216.682 263.672C218.433 262.141 220.187 260.516 221.962 258.818C224.177 260.954 226.45 263.029 228.781 265.041C250.233 283.502 271.425 290.96 284.527 283.368C298.064 275.533 302.462 251.811 296.752 222.955C296.319 220.751 295.814 218.502 295.237 216.208C296.837 215.737 298.402 215.248 299.932 214.742C328.865 205.156 347.694 189.655 347.694 173.802C347.694 158.598 330.076 143.898 302.816 134.511H302.804Z" fill="#53C1DE"/>
<path d="M296.529 204.506C295.148 204.965 293.735 205.404 292.289 205.834C288.761 194.896 284.491 184.211 279.508 173.855C284.301 163.636 288.405 153.109 291.793 142.342C294.372 143.09 296.882 143.878 299.295 144.71C322.652 152.749 336.899 164.638 336.899 173.802C336.899 183.55 321.51 196.228 296.529 204.506ZM286.164 225.051C288.69 237.81 289.048 249.346 287.383 258.359C285.88 266.462 282.858 271.865 279.122 274.03C271.166 278.632 254.157 272.649 235.811 256.86C233.708 255.048 231.592 253.119 229.463 251.072C237.112 242.603 244.18 233.627 250.619 224.206C262.121 223.232 273.543 221.467 284.804 218.926C285.318 221.005 285.774 223.036 286.172 225.019L286.164 225.051ZM181.332 273.242C173.559 275.988 167.369 276.065 163.629 273.908C155.668 269.314 152.358 251.567 156.875 227.805C157.416 224.997 158.029 222.204 158.714 219.425C169.928 221.833 181.292 223.48 192.728 224.352C199.356 233.741 206.594 242.683 214.396 251.121C212.828 252.64 211.225 254.117 209.587 255.552C199.795 264.115 189.979 270.175 181.332 273.242ZM144.926 204.445C132.616 200.237 122.454 194.769 115.485 188.807C109.227 183.445 106.067 178.12 106.067 173.802C106.067 164.61 119.77 152.883 142.619 144.917C145.489 143.918 148.385 143.007 151.306 142.184C154.7 153.069 158.81 163.718 163.608 174.062C158.75 184.553 154.59 195.355 151.156 206.395C149.06 205.796 146.984 205.146 144.926 204.445ZM157.13 121.362C152.387 97.1167 155.534 78.8258 163.462 74.244C171.906 69.3697 190.576 76.3237 210.257 93.8021C211.516 94.9192 212.779 96.089 214.042 97.2954C206.297 105.682 199.115 114.572 192.546 123.909C181.217 124.925 169.967 126.674 158.865 129.145C158.217 126.567 157.639 123.974 157.13 121.366V121.362ZM266.02 148.248C263.553 143.986 260.996 139.778 258.348 135.624C266.402 136.643 274.114 137.992 281.36 139.649C279.035 147.026 276.338 154.28 273.282 161.384C270.95 156.957 268.53 152.578 266.02 148.248ZM221.605 105.001C226.853 110.724 231.81 116.708 236.457 122.93C226.518 122.462 216.574 122.462 206.626 122.93C211.528 116.464 216.552 110.452 221.605 105.005V105.001ZM176.93 148.321C174.452 152.619 172.076 156.971 169.802 161.376C166.662 153.931 163.978 146.607 161.785 139.535C168.986 137.911 176.666 136.607 184.666 135.603C181.981 139.785 179.399 144.024 176.921 148.321H176.93ZM184.894 212.764C177.085 211.916 169.324 210.667 161.643 209.023C163.872 201.829 166.618 194.347 169.826 186.739C172.109 191.15 174.493 195.505 176.978 199.802C179.507 204.186 182.143 208.507 184.886 212.764H184.894ZM221.909 243.362C216.792 237.862 211.695 231.77 206.724 225.185C211.557 225.377 216.479 225.474 221.491 225.474C226.635 225.474 231.713 225.36 236.725 225.132C232.099 231.459 227.151 237.543 221.901 243.362H221.909ZM273.363 186.353C276.578 193.602 279.414 201.012 281.859 208.556C274.083 210.306 266.22 211.647 258.303 212.573C260.97 208.34 263.553 204.058 266.052 199.725C268.592 195.322 271.029 190.865 273.363 186.353ZM256.711 194.339C252.888 200.979 248.852 207.491 244.604 213.877C237.115 214.413 229.378 214.689 221.491 214.689C213.604 214.689 205.997 214.445 198.638 213.966C194.281 207.602 190.167 201.08 186.295 194.4C182.423 187.719 178.834 180.939 175.528 174.058C178.851 167.144 182.429 160.361 186.263 153.707C190.091 147.057 194.17 140.558 198.5 134.21C206.009 133.642 213.701 133.345 221.483 133.345C229.264 133.345 237.005 133.646 244.507 134.214C248.787 140.543 252.849 147.016 256.691 153.634C260.533 160.253 264.16 167.005 267.571 173.891C264.2 180.829 260.584 187.639 256.723 194.323L256.711 194.339ZM278.955 73.919C287.407 78.7933 290.693 98.4531 285.384 124.234C285.035 125.91 284.656 127.582 284.247 129.251C273.129 126.73 261.855 124.948 250.501 123.917C243.995 114.572 236.867 105.675 229.167 97.2873C231.062 95.4621 232.997 93.6871 234.971 91.9621C253.604 75.7428 271.019 69.3412 278.955 73.919Z" fill="white"/>
<path d="M221.483 151.258C225.941 151.258 230.299 152.58 234.006 155.057C237.713 157.534 240.602 161.055 242.308 165.175C244.014 169.294 244.46 173.827 243.59 178.2C242.721 182.573 240.574 186.59 237.422 189.743C234.269 192.895 230.253 195.042 225.88 195.912C221.508 196.782 216.976 196.336 212.857 194.629C208.738 192.923 205.218 190.034 202.741 186.326C200.264 182.619 198.942 178.26 198.942 173.802C198.942 170.841 199.524 167.909 200.657 165.174C201.79 162.439 203.45 159.953 205.543 157.86C207.636 155.766 210.121 154.106 212.856 152.973C215.591 151.84 218.523 151.258 221.483 151.258Z" fill="#53C1DE"/>
<path d="M227.136 8.28633C227.136 9.61993 226.741 10.9236 226 12.0324C225.259 13.1413 224.206 14.0055 222.974 14.5159C221.742 15.0262 220.387 15.1597 219.079 14.8996C217.771 14.6394 216.57 13.9972 215.627 13.0542C214.684 12.1112 214.042 10.9098 213.782 9.60179C213.522 8.29382 213.655 6.93807 214.166 5.70598C214.676 4.47389 215.54 3.42081 216.649 2.6799C217.757 1.939 219.061 1.54354 220.394 1.54354C221.281 1.53923 222.16 1.7107 222.979 2.04804C223.799 2.38537 224.544 2.88187 225.171 3.50886C225.798 4.13585 226.295 4.88088 226.632 5.70089C226.969 6.52091 227.141 7.39965 227.136 8.28633Z" fill="#3F3D56"/>
<path d="M215.009 9.98822C214.475 9.02235 214.185 7.94015 214.166 6.83643C214.147 5.73271 214.399 4.64114 214.899 3.65734C215.4 2.67355 216.134 1.82755 217.038 1.19346C217.941 0.559366 218.986 0.156532 220.082 0.0202445C219.153 -0.0122881 218.227 0.147604 217.363 0.48988C216.499 0.832156 215.715 1.34942 215.06 2.0092C214.406 2.66897 213.894 3.457 213.559 4.3238C213.223 5.19061 213.07 6.11745 213.11 7.04614C213.149 7.97483 213.381 8.88531 213.789 9.72039C214.197 10.5555 214.773 11.2971 215.482 11.8988C216.19 12.5004 217.016 12.9491 217.906 13.2165C218.796 13.484 219.732 13.5645 220.654 13.453C219.495 13.4102 218.366 13.0688 217.377 12.4618C216.388 11.8548 215.572 11.0028 215.009 9.98822Z" fill="#3F3D56"/>
<path d="M230.028 17.6775H211.967V45.8551H230.028V17.6775Z" fill="#3F3D56"/>
<path opacity="0.1" d="M230.028 17.6775H211.967V45.8551H230.028V17.6775Z" fill="black"/>
<path d="M183.436 119.908C183.436 119.908 181.507 125.209 176.938 125.932C172.369 126.655 169.713 127.857 169.713 127.857L180.548 134.84L186.328 134.117C186.328 134.117 187.051 126.651 189.459 124.965C191.867 123.28 183.436 119.908 183.436 119.908Z" fill="#A0616A"/>
<path d="M261.69 119.908C261.69 119.908 263.62 125.209 268.189 125.932C272.758 126.655 275.414 127.857 275.414 127.857L264.578 134.84L258.799 134.117C258.799 134.117 258.076 126.651 255.667 124.965C253.259 123.28 261.69 119.908 261.69 119.908Z" fill="#A0616A"/>
<path d="M208.958 73.1877C208.958 73.1877 206.07 74.6338 205.107 77.5259C205.107 77.5259 199.828 79.2116 196.92 83.7853C196.92 83.7853 193.305 87.6401 192.826 89.5654C192.347 91.4908 186.823 103.051 186.823 103.051C186.823 103.051 181.283 121.114 178.396 123.04C178.396 123.04 187.546 121.114 189.231 130.266C189.231 130.266 191.396 130.266 193.805 121.837C196.213 113.409 201.992 103.051 201.992 103.051C201.992 103.051 203.917 95.8289 205.603 94.6225C207.288 93.4161 209.936 87.8797 212.345 89.342C214.753 90.8043 230.645 89.0983 230.645 89.0983C230.645 89.0983 240.027 93.4202 240.263 96.3082C240.498 99.1963 242.188 99.44 242.427 101.849C242.667 104.257 251.578 123.279 251.578 123.279C251.578 123.279 253.263 128.56 253.746 129.778C253.746 129.778 259.026 117.016 266.028 124.242C266.028 124.242 265.784 119.425 263.62 116.524C261.455 113.624 252.061 90.9993 252.061 90.9993C252.061 90.9993 251.098 87.6279 250.136 86.6652C249.173 85.7025 241.704 77.993 239.056 77.993C239.056 77.993 237.615 74.382 235.929 73.8986L208.958 73.1877Z" fill="#3F3D56"/>
<path d="M187.286 132.431C185.405 133.186 183.361 133.441 181.353 133.171C179.344 132.902 177.44 132.116 175.825 130.891C174.256 129.686 172.537 128.689 170.712 127.926C168.157 126.894 165.103 126.131 164.173 127.857C162.487 130.989 184.638 138.694 184.638 138.694C184.638 138.694 187.53 137.009 187.286 132.431Z" fill="#3F3D56"/>
<path d="M257.84 132.431C259.721 133.186 261.765 133.441 263.774 133.171C265.782 132.902 267.687 132.116 269.301 130.891C270.871 129.686 272.589 128.689 274.415 127.926C276.969 126.894 280.023 126.131 280.954 127.857C282.639 130.989 260.488 138.694 260.488 138.694C260.488 138.694 257.597 137.009 257.84 132.431Z" fill="#3F3D56"/>
<path d="M216.828 33.5801C216.739 34.4169 216.463 35.3227 215.748 35.7655C215.163 36.131 214.424 36.1026 213.75 36.2407C213.042 36.418 212.386 36.7592 211.834 37.2369C211.282 37.7146 210.851 38.3153 210.574 38.9906C210.033 40.3535 209.927 41.8503 210.269 43.276C210.429 43.9742 210.635 44.6608 210.887 45.3313C211.593 47.3298 212.446 49.312 213.766 50.9733C214.893 52.2941 216.159 53.4885 217.543 54.5356C218.4 55.2343 219.286 55.9451 220.342 56.2741C221.057 56.4632 221.794 56.5614 222.535 56.5666C223.449 56.6072 224.423 56.6356 225.215 56.1807C226.434 55.478 226.795 53.9263 227.457 52.6793C228.018 51.6232 228.854 50.7255 229.378 49.6491C229.75 48.8007 230.023 47.912 230.19 47.0007L231.315 42.0046C231.722 40.1889 232.095 38.1417 231.076 36.586C231.002 36.4594 230.899 36.3522 230.775 36.2732C230.579 36.1958 230.365 36.1747 230.158 36.2123C228.863 36.2964 227.572 36.0014 226.442 35.3633C226.265 35.2717 226.106 35.1477 225.975 34.9977C225.812 34.7376 225.715 34.4423 225.69 34.1366C225.581 33.5176 225.406 32.9118 225.171 32.3291C225.104 32.119 224.982 31.9309 224.817 31.7848C224.644 31.6764 224.448 31.6109 224.245 31.5939C222.506 31.3117 220.753 31.1286 218.993 31.0455C218.416 31.0171 217.547 30.7855 217.149 31.2973C216.751 31.8091 216.877 32.9708 216.828 33.5801Z" fill="#A0616A"/>
<path opacity="0.1" d="M216.828 33.5801C216.739 34.4169 216.463 35.3227 215.748 35.7655C215.163 36.131 214.424 36.1026 213.75 36.2407C213.042 36.418 212.386 36.7592 211.834 37.2369C211.282 37.7146 210.851 38.3153 210.574 38.9906C210.033 40.3535 209.927 41.8503 210.269 43.276C210.429 43.9742 210.635 44.6608 210.887 45.3313C211.593 47.3298 212.446 49.312 213.766 50.9733C214.893 52.2941 216.159 53.4885 217.543 54.5356C218.4 55.2343 219.286 55.9451 220.342 56.2741C221.057 56.4632 221.794 56.5614 222.535 56.5666C223.449 56.6072 224.423 56.6356 225.215 56.1807C226.434 55.478 226.795 53.9263 227.457 52.6793C228.018 51.6232 228.854 50.7255 229.378 49.6491C229.75 48.8007 230.023 47.912 230.19 47.0007L231.315 42.0046C231.722 40.1889 232.095 38.1417 231.076 36.586C231.002 36.4594 230.899 36.3522 230.775 36.2732C230.579 36.1958 230.365 36.1747 230.158 36.2123C228.863 36.2964 227.572 36.0014 226.442 35.3633C226.265 35.2717 226.106 35.1477 225.975 34.9977C225.812 34.7376 225.715 34.4423 225.69 34.1366C225.581 33.5176 225.406 32.9118 225.171 32.3291C225.104 32.119 224.982 31.9309 224.817 31.7848C224.644 31.6764 224.448 31.6109 224.245 31.5939C222.506 31.3117 220.753 31.1286 218.993 31.0455C218.416 31.0171 217.547 30.7855 217.149 31.2973C216.751 31.8091 216.877 32.9708 216.828 33.5801Z" fill="black"/>
<path d="M213.567 36.4517C212.627 36.1708 211.653 36.0178 210.672 35.9968C208.348 35.9399 205.863 36.7401 204.523 38.637C203.61 40.0063 203.275 41.6812 203.593 43.2961C203.916 44.8959 204.643 46.3864 205.704 47.6261C206.318 48.2777 206.862 48.991 207.329 49.7545C207.971 50.9731 207.991 52.4313 208.166 53.8165C208.572 57.1147 209.977 60.214 210.533 63.492C211.09 66.7699 210.611 70.5678 208.024 72.6516C207.589 73.0009 207.061 73.3706 207.024 73.9271C206.968 74.8166 208.125 75.1944 209.015 75.2797C211.675 75.5315 214.404 75.7793 216.987 75.0928C218.055 74.8085 219.087 74.3657 220.175 74.1626C222.937 73.6468 225.715 74.7069 228.481 75.2147C230.482 75.5452 232.508 75.7096 234.536 75.7062C235.008 75.7484 235.484 75.686 235.929 75.5234C236.15 75.4369 236.337 75.2824 236.464 75.0823C236.591 74.8822 236.651 74.6469 236.636 74.4104C236.546 74.1042 236.381 73.8251 236.157 73.598C234.76 71.8717 234.333 69.5767 233.951 67.3874L232.672 60.0312C231.986 56.0993 231.348 51.8261 233.208 48.2963C234.544 45.7576 237.01 43.9703 238.419 41.4723C238.91 40.7172 239.132 39.8183 239.048 38.9214C238.837 37.6662 237.704 36.7685 236.542 36.2446C234.308 35.2418 231.77 35.1486 229.468 35.9846C229.508 37.7434 229.061 39.5225 228.773 41.2651L228.282 44.1084C228.032 45.7841 227.664 47.44 227.181 49.064C227.006 49.7137 226.706 50.3233 226.3 50.8594C225.866 51.3417 225.336 51.7277 224.744 51.9927C223.462 52.6195 222.053 52.942 220.626 52.935C220.008 52.9445 219.393 52.8498 218.806 52.6547C217.862 52.2405 217.01 51.6411 216.301 50.8919C216.052 50.6794 215.83 50.4381 215.639 50.1729C215.436 49.8353 215.284 49.4699 215.188 49.0884C214.859 48.0949 214.6 47.0796 214.412 46.0501C214.29 45.262 214.25 44.4618 214.193 43.6657C214.034 41.3138 214.034 38.7142 213.567 36.4517Z" fill="#7D4CDB"/>
<path d="M211.126 83.0623C211.126 83.0623 210.164 95.8289 216.183 97.9939C222.202 100.159 216.906 87.3963 216.906 87.3963L214.977 83.5456L211.126 83.0623Z" fill="#A0616A"/>
<path d="M231.592 83.0623C231.592 83.0623 232.554 95.8289 226.535 97.9939C220.516 100.159 225.812 87.3963 225.812 87.3963L227.741 83.5456L231.592 83.0623Z" fill="#A0616A"/>
<path opacity="0.1" d="M205.826 40.4526L203.901 43.5844C203.901 43.5844 205.587 54.4216 205.826 56.3469C206.034 57.7363 206.357 59.1058 206.793 60.4414C206.793 60.4414 207.032 66.2215 207.032 68.3906C207.032 70.5596 208.251 74.1707 208.251 74.1707C208.421 76.2179 208.83 78.2383 209.469 80.1905C210.432 82.8388 211.394 85.9706 211.394 85.9706C211.394 85.9706 212.613 82.5992 217.413 87.6563C217.951 87.1106 218.252 86.3752 218.252 85.6091C218.252 84.8429 217.951 84.1075 217.413 83.5619C217.413 83.5619 215.972 77.0628 215.972 73.6873C215.972 70.3119 213.319 54.1901 213.319 54.1901C213.319 54.1901 211.597 35.8626 205.826 40.4526Z" fill="black"/>
<path d="M205.347 40.1967L203.422 43.3285C203.422 43.3285 205.107 54.1657 205.347 56.0911C205.555 57.4806 205.88 58.8502 206.318 60.1855C206.318 60.1855 206.557 65.9656 206.557 68.1306C206.557 70.2956 207.776 73.9107 207.776 73.9107C207.945 75.9581 208.353 77.9786 208.994 79.9305C209.957 82.583 210.923 85.7106 210.923 85.7106C210.923 85.7106 212.142 82.3392 216.942 87.3963C217.479 86.8508 217.779 86.1163 217.779 85.3512C217.779 84.586 217.479 83.8515 216.942 83.306C216.942 83.306 215.496 76.8069 215.496 73.4314C215.496 70.056 212.848 53.9342 212.848 53.9342C212.848 53.9342 211.126 35.6189 205.347 40.1967Z" fill="#7D4CDB"/>
<path opacity="0.1" d="M237.131 38.5111L238.35 39.945C238.35 39.945 239.767 48.1419 236.636 58.4998L235.673 67.891C235.673 67.891 233.988 75.8402 233.748 77.7656C233.509 79.6909 233.509 79.9306 233.025 80.6536C232.879 80.8227 232.798 81.039 232.798 81.2629C232.798 81.4867 232.879 81.703 233.025 81.8722L231.579 87.1527C231.579 87.1527 229.415 84.5043 225.081 87.8757C225.081 87.8757 223.863 85.9503 224.838 84.2646C225.812 82.5789 225.8 81.8559 225.56 81.3725C225.321 80.8892 226.523 78.4845 226.523 78.0012C226.523 77.5178 228.221 66.449 228.221 66.449C228.221 66.449 228.944 55.6118 229.667 52.0008C230.109 49.7789 230.101 44.8274 230.024 41.3423C229.947 37.7109 234.341 35.7449 236.928 38.2958C236.989 38.3608 237.062 38.4217 237.131 38.5111Z" fill="black"/>
<path d="M237.854 38.0154L239.073 39.4493C239.073 39.4493 240.49 47.6503 237.359 58.0042L236.396 67.3953C236.396 67.3953 234.711 75.3445 234.471 77.2699C234.232 79.1953 234.227 79.439 233.748 80.162C233.601 80.3307 233.52 80.5472 233.52 80.7713C233.52 80.9953 233.601 81.2118 233.748 81.3806L232.311 86.6773C232.311 86.6773 230.146 84.0249 225.812 87.3963C225.812 87.3963 224.594 85.4709 225.573 83.7852C226.551 82.0995 226.535 81.3765 226.296 80.8972C226.056 80.4179 227.258 78.0051 227.258 77.5258C227.258 77.0465 228.944 65.9655 228.944 65.9655C228.944 65.9655 229.667 55.1283 230.389 51.5132C231.112 47.8981 230.629 37.0649 230.629 37.0649C230.629 37.0649 234.483 34.4166 237.854 38.0154Z" fill="#7D4CDB"/>
<path d="M221.718 34.6604C227.039 34.6604 231.352 30.3467 231.352 25.0255C231.352 19.7043 227.039 15.3906 221.718 15.3906C216.398 15.3906 212.085 19.7043 212.085 25.0255C212.085 30.3467 216.398 34.6604 221.718 34.6604Z" fill="#A0616A"/>
<path opacity="0.1" d="M226.742 10.5612C226.279 11.854 225.432 12.9746 224.315 13.7731C223.198 14.5715 221.864 15.0097 220.491 15.0292C219.118 15.0486 217.772 14.6483 216.632 13.8818C215.493 13.1153 214.615 12.0191 214.115 10.7399C217.876 9.22485 221.718 10.5734 221.718 10.5734C223.639 9.89913 225.305 9.96006 226.742 10.5612Z" fill="black"/>
<path d="M221.718 11.0566C221.718 11.0566 203.178 4.55751 207.755 36.1024C207.755 36.1024 211.849 38.7508 214.977 37.0651C214.977 37.0651 212.812 15.151 221.239 16.1137C229.667 17.0764 228.221 36.5858 228.221 36.5858C228.221 36.5858 233.037 38.0278 234.483 35.3672C235.929 32.7067 234 6.73877 221.718 11.0566Z" fill="#3F3D56"/>
<path opacity="0.1" d="M221.239 14.6675C215.456 14.0095 214.66 24.1197 214.741 30.5294C214.81 24.1562 215.882 15.5002 221.239 16.1136C227.254 16.8001 228.241 26.9427 228.31 32.6863C228.379 27.4139 227.802 15.419 221.239 14.6675Z" fill="black"/>
<path opacity="0.1" d="M207.755 34.6563C207.336 31.895 207.096 29.1094 207.037 26.3171C207.016 29.5928 207.257 32.8648 207.755 36.1023C207.755 36.1023 211.849 38.7507 214.977 37.065C214.977 37.065 214.928 36.5451 214.871 35.6718C211.756 37.2437 207.755 34.6563 207.755 34.6563Z" fill="black"/>
<path opacity="0.1" d="M234.483 33.9536C233.135 36.4233 228.866 35.3387 228.29 35.1722C228.261 36.0658 228.221 36.602 228.221 36.602C228.221 36.602 233.037 38.044 234.483 35.3834C234.78 34.8391 234.934 33.2996 234.889 31.2402C234.849 32.5604 234.707 33.5474 234.483 33.9536Z" fill="black"/>
<path d="M335.766 273.351C337.691 269.785 335.506 265.414 332.996 262.234C330.486 259.054 327.42 255.735 327.485 251.673C327.578 245.844 333.759 242.408 338.702 239.317C342.366 237.025 345.745 234.308 348.77 231.221C349.989 229.982 351.154 228.658 351.865 227.074C352.888 224.799 352.86 222.2 352.795 219.714C352.581 211.398 352.175 203.092 351.577 194.798" stroke="#3F3D56" stroke-width="4" stroke-miterlimit="10"/>
<path d="M360.95 194.359C360.881 192.838 360.429 191.358 359.637 190.058C358.845 188.757 357.738 187.677 356.418 186.918L354.387 190.939L354.448 186.065C352.601 185.518 350.628 185.573 348.814 186.221C347 186.87 345.439 188.078 344.356 189.671C343.273 191.265 342.725 193.162 342.791 195.087C342.856 197.013 343.532 198.868 344.721 200.384C345.909 201.9 347.549 202.999 349.403 203.523C351.257 204.046 353.229 203.967 355.035 203.296C356.841 202.625 358.387 201.397 359.449 199.79C360.512 198.183 361.036 196.28 360.946 194.355L360.95 194.359Z" fill="#7D4CDB"/>
<path d="M344.754 255.853C343.801 257.706 342.24 259.175 340.332 260.014C338.425 260.852 336.287 261.009 334.278 260.459C332.268 259.908 330.509 258.683 329.296 256.989C328.082 255.295 327.488 253.235 327.613 251.155C327.738 249.075 328.574 247.101 329.981 245.564C331.388 244.028 333.281 243.022 335.342 242.715C337.403 242.409 339.507 242.821 341.3 243.881C343.094 244.942 344.468 246.587 345.192 248.541L339.506 253.16L345.749 251.71C345.752 253.15 345.411 254.571 344.754 255.853Z" fill="#7D4CDB"/>
<path d="M340.266 238.212C338.043 238.306 335.863 237.581 334.139 236.175C332.416 234.769 331.267 232.78 330.912 230.583C330.557 228.387 331.02 226.137 332.214 224.259C333.407 222.382 335.247 221.007 337.386 220.396L337.338 224.141L339.393 220.079H339.417C340.614 220.015 341.812 220.188 342.941 220.588C344.071 220.988 345.11 221.609 346 222.412C346.889 223.216 347.61 224.188 348.122 225.272C348.634 226.356 348.926 227.531 348.982 228.728C349.038 229.926 348.856 231.122 348.448 232.249C348.04 233.376 347.412 234.411 346.602 235.295C345.792 236.178 344.815 236.893 343.727 237.397C342.64 237.901 341.463 238.185 340.266 238.232V238.212Z" fill="#7D4CDB"/>
<path d="M362.319 223.536C360.914 223.602 359.513 223.34 358.226 222.772C356.939 222.204 355.802 221.345 354.903 220.263C354.005 219.18 353.37 217.904 353.049 216.534C352.728 215.165 352.729 213.739 353.052 212.37C353.376 211.001 354.013 209.726 354.913 208.645C355.813 207.564 356.952 206.706 358.239 206.14C359.527 205.574 360.929 205.315 362.334 205.383C363.739 205.452 365.109 205.845 366.336 206.533L364.711 210.932L368.013 207.763C369.335 208.976 370.268 210.553 370.696 212.296C371.123 214.038 371.025 215.868 370.413 217.555C369.802 219.242 368.706 220.71 367.261 221.774C365.817 222.839 364.091 223.452 362.299 223.536H362.319Z" fill="#7D4CDB"/>
<path opacity="0.1" d="M359.732 196.78C357.632 197.011 355.593 197.665 353.49 197.795C351.386 197.925 349.075 197.422 347.747 195.764C347.028 194.883 346.671 193.77 346.065 192.807C345.491 191.914 344.706 191.174 343.779 190.655C343.193 191.806 342.86 193.07 342.801 194.361C342.742 195.652 342.959 196.941 343.438 198.141C343.917 199.341 344.646 200.426 345.577 201.322C346.509 202.218 347.62 202.905 348.838 203.337C350.056 203.769 351.351 203.937 352.639 203.829C353.927 203.72 355.176 203.338 356.305 202.708C357.433 202.079 358.414 201.215 359.182 200.176C359.95 199.137 360.488 197.946 360.759 196.682C360.414 196.719 360.073 196.743 359.732 196.78Z" fill="black"/>
<path opacity="0.1" d="M362.319 223.536C360.753 223.608 359.196 223.274 357.797 222.566C356.399 221.858 355.207 220.801 354.337 219.497C353.467 218.192 352.95 216.686 352.834 215.122C352.718 213.559 353.008 211.992 353.676 210.574C354.4 211.059 355.021 211.682 355.504 212.406C356.15 213.381 356.544 214.51 357.303 215.408C358.717 217.069 361.137 217.614 363.33 217.516C365.524 217.419 367.635 216.793 369.829 216.59C370.133 216.566 370.438 216.545 370.746 216.537C370.294 218.462 369.227 220.187 367.706 221.45C366.185 222.713 364.294 223.445 362.319 223.536Z" fill="black"/>
<path opacity="0.1" d="M340.266 238.212C338.716 238.284 337.173 237.959 335.784 237.265C334.396 236.572 333.208 235.535 332.334 234.252C331.46 232.97 330.929 231.485 330.792 229.939C330.655 228.393 330.916 226.837 331.55 225.421C332.299 225.913 332.951 226.539 333.471 227.269C334.178 228.264 334.616 229.41 335.445 230.332C336.976 232.038 339.551 232.639 341.874 232.582C344.124 232.533 346.289 231.981 348.527 231.81C347.976 233.598 346.888 235.173 345.409 236.319C343.931 237.464 342.134 238.126 340.266 238.212Z" fill="black"/>
<path opacity="0.1" d="M344.754 255.853C343.701 257.941 341.884 259.542 339.68 260.325C337.477 261.107 335.057 261.009 332.923 260.052C330.79 259.095 329.108 257.353 328.226 255.187C327.345 253.021 327.332 250.598 328.191 248.424C328.94 248.915 329.612 249.514 330.185 250.203C331.051 251.255 331.619 252.449 332.622 253.428C334.478 255.252 337.476 256.003 340.144 256.072C341.683 256.089 343.223 256.016 344.754 255.853Z" fill="black"/>
<path d="M322.067 269.245C322.067 269.245 329.235 269.025 331.408 267.486C333.581 265.947 342.439 264.111 342.975 266.576C343.511 269.042 353.75 278.851 345.655 278.916C337.561 278.981 326.847 277.657 324.69 276.341C322.534 275.025 322.067 269.245 322.067 269.245Z" fill="#656380"/>
<path opacity="0.2" d="M345.785 278.075C337.691 278.14 326.977 276.812 324.82 275.5C323.196 274.497 322.526 270.91 322.306 269.253H322.067C322.067 269.253 322.522 275.037 324.678 276.349C326.835 277.661 337.549 278.989 345.643 278.924C347.978 278.924 348.787 278.075 348.742 276.845C348.417 277.58 347.528 278.043 345.785 278.075Z" fill="black"/>
<path d="M131.182 17.4095L123.77 22.1092L128.27 13.9244C127 12.9089 125.428 12.3458 123.803 12.324H123.681C123.167 12.3312 122.653 12.2931 122.146 12.2103L119.632 13.8025L120.708 11.8447C118.929 11.223 117.391 10.056 116.314 8.50985L111.818 11.3532L114.661 6.18643C112.029 3.03031 108.487 1.09277 104.584 1.09277C99.9097 1.09277 95.7468 3.8752 93.0582 8.20927C92.263 9.50515 91.1395 10.5678 89.8015 11.2897C88.4635 12.0116 86.9586 12.367 85.439 12.3199H85.1872C80.0252 12.3199 75.8461 18.1732 75.8461 25.3953C75.8461 32.6174 80.0293 38.4666 85.1872 38.4666C86.3201 38.4633 87.4352 38.1845 88.4363 37.6542C91.8032 35.9035 96.222 35.871 99.7472 37.4348C101.259 38.1147 102.896 38.468 104.554 38.4715C106.211 38.475 107.85 38.1287 109.365 37.4551C112.865 35.9238 117.231 35.9563 120.578 37.6745C121.571 38.1999 122.676 38.4785 123.799 38.4869C128.961 38.4869 133.14 32.6336 133.14 25.4156C133.171 22.6247 132.497 19.8711 131.182 17.4095Z" fill="#F2F2F2"/>
<path opacity="0.03" d="M117.207 36.537C114.51 36.0241 111.722 36.3267 109.198 37.4062C107.684 38.0791 106.046 38.4251 104.389 38.4216C102.733 38.4181 101.096 38.0652 99.5849 37.3859C96.0555 35.8221 91.6367 35.8546 88.2699 37.6052C87.2687 38.1355 86.1536 38.4143 85.0208 38.4176C80.4355 38.4176 76.6218 33.7952 75.8258 27.7023C76.7418 27.0349 77.5197 26.1962 78.1164 25.2326C80.8213 20.9026 84.968 18.1121 89.6426 18.1121C94.3172 18.1121 98.4314 20.862 101.12 25.1473C101.922 26.4421 103.045 27.5078 104.38 28.2415C105.715 28.9751 107.216 29.3518 108.739 29.3352H108.845C112.5 29.3392 115.668 32.2679 117.207 36.537Z" fill="black"/>
<path d="M324.938 26.9794L321.255 29.3231L323.5 25.2612C322.866 24.7482 322.078 24.4623 321.263 24.4488H321.206C320.949 24.4524 320.692 24.4334 320.438 24.3919L319.183 25.2043L319.711 24.2051C318.824 23.8958 318.056 23.3145 317.518 22.5438L315.276 23.9654L316.694 21.3902C316.097 20.6203 315.337 19.9928 314.468 19.553C313.599 19.1132 312.643 18.8722 311.67 18.8474C309.334 18.8474 307.259 20.2366 305.919 22.3975C305.52 23.0412 304.959 23.568 304.291 23.9247C303.624 24.2814 302.874 24.4552 302.117 24.4285H301.991C299.417 24.4285 297.329 27.349 297.329 30.9276C297.329 34.5061 299.417 37.447 301.991 37.447C302.558 37.445 303.115 37.3056 303.616 37.0408C304.492 36.615 305.451 36.3846 306.425 36.3657C307.399 36.3468 308.365 36.5397 309.257 36.9311C310.012 37.2672 310.829 37.4409 311.655 37.4409C312.482 37.4409 313.299 37.2672 314.054 36.9311C314.939 36.5475 315.897 36.3588 316.862 36.3777C317.827 36.3966 318.776 36.6228 319.646 37.0408C320.147 37.3058 320.704 37.4452 321.271 37.447C323.846 37.447 325.933 34.5305 325.933 30.9276C325.937 29.549 325.595 28.1915 324.938 26.9794Z" fill="#F2F2F2"/>
<path opacity="0.03" d="M317.973 36.5206C316.629 36.2666 315.239 36.4179 313.981 36.9552C313.226 37.2913 312.409 37.465 311.582 37.465C310.756 37.465 309.939 37.2913 309.184 36.9552C308.291 36.5637 307.324 36.3707 306.349 36.3897C305.375 36.4086 304.416 36.639 303.539 37.0649C303.039 37.3308 302.481 37.4702 301.914 37.4711C299.624 37.4711 297.723 35.168 297.325 32.1296C297.78 31.7997 298.169 31.3861 298.47 30.9111C299.811 28.7501 301.89 27.365 304.221 27.365C306.552 27.365 308.603 28.7339 309.944 30.8704C310.344 31.5167 310.904 32.0486 311.57 32.4145C312.236 32.7803 312.985 32.9676 313.745 32.9583H313.806C315.63 32.9298 317.193 34.3921 317.973 36.5206Z" fill="black"/>
<path d="M82.9901 87.6808L88.9441 91.4503L85.3376 84.8902C86.3602 84.0761 87.6249 83.6259 88.9319 83.6107H89.0253C89.4333 83.6168 89.841 83.5869 90.2437 83.5214L92.2541 84.7968L91.3809 83.2289C92.8051 82.728 94.0366 81.7933 94.9021 80.5562L98.5046 82.839L96.2545 78.6999C98.3624 76.1733 101.201 74.6379 104.324 74.6379C108.073 74.6379 111.408 76.8639 113.564 80.3246C114.2 81.3617 115.098 82.2125 116.167 82.7909C117.237 83.3694 118.441 83.655 119.656 83.6189H119.859C123.994 83.6189 127.344 88.3063 127.344 94.0905C127.344 99.8747 123.994 104.566 119.859 104.566C118.949 104.563 118.053 104.338 117.248 103.912C115.84 103.228 114.301 102.858 112.737 102.828C111.172 102.798 109.62 103.108 108.187 103.738C106.973 104.28 105.658 104.561 104.329 104.561C102.999 104.561 101.684 104.28 100.47 103.738C99.0477 103.121 97.5094 102.818 95.9594 102.848C94.4094 102.878 92.884 103.241 91.4865 103.912C90.6898 104.327 89.8057 104.546 88.9075 104.55C84.769 104.55 81.4184 99.8625 81.4184 94.0743C81.3989 91.8451 81.9393 89.6467 82.9901 87.6808Z" fill="#F2F2F2"/>
<path opacity="0.03" d="M94.1792 103.006C96.3402 102.599 98.5734 102.842 100.596 103.705C101.81 104.248 103.125 104.528 104.454 104.528C105.784 104.528 107.099 104.248 108.313 103.705C109.746 103.076 111.299 102.765 112.864 102.795C114.43 102.826 115.97 103.196 117.378 103.88C118.181 104.306 119.076 104.53 119.985 104.534C123.661 104.534 126.715 100.833 127.352 95.9507C126.619 95.4138 125.996 94.7408 125.517 93.9684C123.36 90.4995 120.026 88.2817 116.277 88.2817C112.528 88.2817 109.239 90.4833 107.082 93.9197C106.44 94.955 105.543 95.8073 104.476 96.3943C103.408 96.9813 102.208 97.2832 100.99 97.2708H100.897C97.9481 97.2423 95.4139 99.5901 94.1792 103.006Z" fill="black"/>
</g>
<defs>
<clipPath id="clip0">
<rect width="450" height="297" fill="white"/>
</clipPath>
</defs>
</svg>
