<svg width="374" height="317" viewBox="0 0 374 317" fill="none" xmlns="http://www.w3.org/2000/svg">
<path d="M300.875 25.8399C304.152 25.8399 306.809 23.1823 306.809 19.904C306.809 16.6257 304.152 13.968 300.875 13.968C297.598 13.968 294.941 16.6257 294.941 19.904C294.941 23.1823 297.598 25.8399 300.875 25.8399Z" fill="#F1F1F1"/>
<path d="M265.888 255.544C269.165 255.544 271.822 252.887 271.822 249.608C271.822 246.33 269.165 243.672 265.888 243.672C262.611 243.672 259.954 246.33 259.954 249.608C259.954 252.887 262.611 255.544 265.888 255.544Z" fill="#F1F1F1"/>
<path d="M118.299 82.9643C121.576 82.9643 124.233 80.3067 124.233 77.0283C124.233 73.75 121.576 71.0924 118.299 71.0924C115.022 71.0924 112.365 73.75 112.365 77.0283C112.365 80.3067 115.022 82.9643 118.299 82.9643Z" fill="#F1F1F1"/>
<path d="M63.1376 317C98.0076 317 126.275 312.857 126.275 307.747C126.275 302.637 98.0076 298.495 63.1376 298.495C28.2677 298.495 0 302.637 0 307.747C0 312.857 28.2677 317 63.1376 317Z" fill="#F1F1F1"/>
<path d="M96.4904 240.959L112.341 235.991C111.464 229.397 109.461 223.002 106.421 217.086L90.5699 222.053C94.2895 227.669 96.3423 234.224 96.4904 240.959Z" fill="#7D4CDB"/>
<path d="M58.3923 121.954C66.5656 121.954 73.1914 115.326 73.1914 107.15C73.1914 98.9735 66.5656 92.3456 58.3923 92.3456C50.219 92.3456 43.5933 98.9735 43.5933 107.15C43.5933 115.326 50.219 121.954 58.3923 121.954Z" fill="#2F2E41"/>
<path d="M42.4269 292.662L39.6118 304.73H46.4484L49.2634 291.053L42.4269 292.662Z" fill="#9F616A"/>
<path d="M75.4032 292.662V303.926L82.2398 304.73V292.662H75.4032Z" fill="#9F616A"/>
<path d="M40.4161 164.735C40.4161 164.735 41.2204 182.034 42.0247 183.24C42.829 184.447 50.0677 201.746 50.0677 201.746L53.6871 190.482C53.6871 190.482 48.057 181.229 48.8613 175.999C49.6656 170.77 49.1589 164.334 49.1589 164.334L40.4161 164.735Z" fill="#9F616A"/>
<path d="M63.3387 122.898C69.5575 122.898 74.5989 117.855 74.5989 111.634C74.5989 105.413 69.5575 100.37 63.3387 100.37C57.1199 100.37 52.0785 105.413 52.0785 111.634C52.0785 117.855 57.1199 122.898 63.3387 122.898Z" fill="#9F616A"/>
<path d="M54.0893 112.841C54.0893 112.841 54.4914 128.932 51.6764 131.346C48.8613 133.76 67.7624 131.748 67.7624 131.748C67.7624 131.748 63.7409 120.484 66.9581 118.07C70.1753 115.657 54.0893 112.841 54.0893 112.841Z" fill="#9F616A"/>
<path d="M68.9688 130.944C68.9688 130.944 66.5559 126.518 63.3386 126.921C60.1214 127.323 49.6655 128.128 49.2634 128.932C48.8612 129.737 47.6548 132.553 46.8505 133.357C46.0462 134.162 40.0139 135.369 39.6118 140.196C39.2096 145.023 54.0892 174.39 54.0892 174.39C54.0892 174.39 52.0784 181.229 52.4806 182.838C52.8827 184.447 50.4698 189.275 50.872 191.286C51.2741 193.298 44.8397 205.366 48.0569 221.055V246.399C48.0569 246.399 37.1989 290.248 40.4161 293.466C43.6333 296.685 54.4913 294.673 56.5021 293.466C58.5128 292.259 66.958 231.515 66.958 231.515L70.9795 210.998L71.3817 256.054C71.3817 256.054 70.5774 293.869 73.3924 295.075C76.2075 296.282 87.0655 296.685 87.8698 294.271C88.4971 292.388 91.5706 242.3 92.893 220.345C93.3512 212.766 92.7553 205.161 91.1224 197.746C89.4486 190.152 87.0187 181.23 84.2505 177.608C79.0225 170.77 75.8053 149.046 75.8053 149.046L82.6419 136.576C82.6419 136.576 78.6204 132.553 76.2075 132.553C73.7946 132.553 68.9688 130.944 68.9688 130.944Z" fill="#2F2E41"/>
<path d="M42.0247 137.38L39.9039 138.824C39.9039 138.824 38.4053 164.735 39.6118 166.345C40.8182 167.954 49.206 167.168 49.8379 165.751C50.4699 164.333 42.0247 137.38 42.0247 137.38Z" fill="#2F2E41"/>
<path d="M75.0011 161.517C75.0011 161.517 75.4032 178.413 77.8162 183.24C80.2291 188.068 89.0764 208.182 89.0764 208.182C89.0764 208.182 88.5628 230.32 93.0422 224.883C97.5215 219.446 94.7065 206.573 94.7065 206.573L87.0656 176.804C87.0656 176.804 83.0441 163.529 83.4463 159.506C83.8484 155.483 75.0011 161.517 75.0011 161.517Z" fill="#9F616A"/>
<path d="M82.2398 297.408C82.2398 297.408 82.6419 297.087 83.8484 298.294C85.0548 299.501 88.272 301.11 87.8699 305.535C87.4677 309.96 85.0548 310.765 85.0548 310.765V309.558H83.8484V311.569C83.8484 311.569 81.8376 318.006 72.5882 313.983C72.5882 313.983 72.186 310.765 72.5882 308.753C72.9903 306.742 72.9903 297.087 74.1968 297.489C75.4032 297.892 78.6204 298.294 79.4247 299.903C80.229 301.512 82.6419 300.948 82.2398 297.408Z" fill="#2F2E41"/>
<path d="M40.8183 297.811C40.8183 297.811 40.4162 297.489 39.2097 298.696C38.0033 299.903 34.7861 301.512 35.1882 305.937C35.5904 310.362 38.0033 311.167 38.0033 311.167V309.96H39.2097V311.971C39.2097 311.971 41.2205 318.408 50.47 314.385C50.47 314.385 50.8721 311.167 50.47 309.155C50.0678 307.144 50.0678 297.489 48.8614 297.892C47.6549 298.294 44.4377 298.696 43.6334 300.305C42.8291 301.914 40.4162 301.351 40.8183 297.811Z" fill="#2F2E41"/>
<path d="M77.0118 135.369L82.6419 136.576C82.6419 136.576 82.6419 145.426 84.2505 149.046C85.8591 152.667 88.6741 161.115 87.4677 161.517C86.2612 161.919 75.001 167.551 74.1967 164.333C73.3924 161.115 71.3817 135.369 77.0118 135.369Z" fill="#2F2E41"/>
<path d="M42.36 102.462C50.5333 102.462 57.1591 95.8336 57.1591 87.6576C57.1591 79.4816 50.5333 72.8536 42.36 72.8536C34.1867 72.8536 27.5609 79.4816 27.5609 87.6576C27.5609 95.8336 34.1867 102.462 42.36 102.462Z" fill="#2F2E41"/>
<path d="M29.595 99.9163C31.5104 101.301 33.7296 102.207 36.0668 102.558C38.404 102.909 40.7912 102.695 43.0288 101.934C45.2664 101.173 47.2892 99.8869 48.928 98.1835C50.5669 96.4801 51.7741 94.4088 52.4486 92.1429C52.1934 94.1735 51.5201 96.1291 50.4712 97.8862C49.4223 99.6433 48.0206 101.164 46.3547 102.352C44.6887 103.54 42.7946 104.369 40.792 104.788C38.7894 105.206 36.7217 105.205 34.7196 104.784C32.7175 104.363 30.8244 103.531 29.1598 102.342C27.4953 101.152 26.0954 99.6295 25.0486 97.8712C24.0018 96.1128 23.3308 94.1564 23.0779 92.1255C22.8251 90.0947 22.9959 88.0334 23.5797 86.0719C23.2481 88.7072 23.6317 91.3831 24.6901 93.819C25.7485 96.2549 27.4427 98.361 29.595 99.9163Z" fill="#2F2E41"/>
<path d="M54.4459 120.473C60.4397 120.473 65.2986 115.613 65.2986 109.617C65.2986 103.621 60.4397 98.7606 54.4459 98.7606C48.4522 98.7606 43.5933 103.621 43.5933 109.617C43.5933 115.613 48.4522 120.473 54.4459 120.473Z" fill="#2F2E41"/>
<path d="M63.572 113.071C68.8847 113.071 73.1914 109.702 73.1914 105.546C73.1914 101.39 68.8847 98.0204 63.572 98.0204C58.2594 98.0204 53.9526 101.39 53.9526 105.546C53.9526 109.702 58.2594 113.071 63.572 113.071Z" fill="#2F2E41"/>
<path d="M66.1378 116.488C67.1461 116.488 67.9635 115.041 67.9635 113.257C67.9635 111.472 67.1461 110.026 66.1378 110.026C65.1295 110.026 64.3121 111.472 64.3121 113.257C64.3121 115.041 65.1295 116.488 66.1378 116.488Z" fill="#A0616A"/>
<path d="M369.03 70.4972L163.355 8.71506L113.737 174.004L319.413 235.786L369.03 70.4972Z" fill="#F1F1F1"/>
<path d="M245.78 57.0813L294.497 76.7791" stroke="#3F3D56" stroke-width="2" stroke-miterlimit="10"/>
<path d="M247.019 61.1311L247.748 60.7904L246.066 57.1976L249.772 55.7823L249.484 55.0305L244.971 56.7551L247.019 61.1311Z" fill="#3F3D56"/>
<path d="M290.793 78.8308L290.505 78.0789L294.211 76.6641L292.529 73.0709L293.259 72.7302L295.306 77.107L290.793 78.8308Z" fill="#3F3D56"/>
<path d="M270.139 71.3554C272.582 71.3554 274.562 69.3742 274.562 66.9302C274.562 64.4863 272.582 62.5051 270.139 62.5051C267.696 62.5051 265.715 64.4863 265.715 66.9302C265.715 69.3742 267.696 71.3554 270.139 71.3554Z" fill="#3F3D56"/>
<path d="M242.068 193.64L286.949 166.304" stroke="#3F3D56" stroke-width="2" stroke-miterlimit="10"/>
<path d="M246.055 195.064L246.217 194.275L242.332 193.48L243.409 189.661L242.634 189.443L241.323 194.094L246.055 195.064Z" fill="#3F3D56"/>
<path d="M286.383 170.501L285.609 170.283L286.686 166.466L282.8 165.67L282.963 164.881L287.695 165.851L286.383 170.501Z" fill="#3F3D56"/>
<path d="M264.509 184.397C266.952 184.397 268.932 182.416 268.932 179.972C268.932 177.528 266.952 175.547 264.509 175.547C262.065 175.547 260.085 177.528 260.085 179.972C260.085 182.416 262.065 184.397 264.509 184.397Z" fill="#3F3D56"/>
<path d="M185.679 107.025L185.695 159.589" stroke="#3F3D56" stroke-width="2" stroke-miterlimit="10"/>
<path d="M182.391 109.692L182.98 110.241L185.678 107.334L188.38 110.24L188.968 109.69L185.678 106.153L182.391 109.692Z" fill="#3F3D56"/>
<path d="M182.405 156.924L182.994 156.375L185.694 159.28L188.394 156.373L188.983 156.922L185.695 160.461L182.405 156.924Z" fill="#3F3D56"/>
<path d="M185.687 137.732C188.13 137.732 190.111 135.751 190.111 133.307C190.111 130.863 188.13 128.882 185.687 128.882C183.244 128.882 181.263 130.863 181.263 133.307C181.263 135.751 183.244 137.732 185.687 137.732Z" fill="#3F3D56"/>
<path d="M221.585 0H148.394V90.9162H221.585V0Z" fill="#3F3D56"/>
<path d="M180.413 33.846H163.803C162.669 27.2909 162.669 20.5899 163.803 14.0348H180.413C178.542 20.5059 178.542 27.3749 180.413 33.846Z" fill="#6FFFB0"/>
<path d="M189.565 43.8941H206.176C207.309 37.3391 207.309 30.638 206.176 24.083H189.565C191.437 30.554 191.437 37.4231 189.565 43.8941Z" fill="#7D4CDB"/>
<path d="M173.881 76.8814H190.492C191.625 70.3264 191.625 63.6253 190.492 57.0703H173.881C175.753 63.5413 175.753 70.4104 173.881 76.8814Z" fill="#7D4CDB"/>
<path d="M374 86.4911H300.809V177.407H374V86.4911Z" fill="#3F3D56"/>
<path d="M363.544 105.801H311.265V108.214H363.544V105.801Z" fill="#7D4CDB"/>
<path d="M363.544 114.249H311.265V116.662H363.544V114.249Z" fill="#7D4CDB"/>
<path d="M363.544 122.697H311.265V125.11H363.544V122.697Z" fill="#7D4CDB"/>
<path d="M363.544 131.145H311.265V133.558H363.544V131.145Z" fill="#7D4CDB"/>
<path d="M363.544 139.593H311.265V142.006H363.544V139.593Z" fill="#7D4CDB"/>
<path d="M351.077 148.443H323.731V158.098H351.077V148.443Z" fill="#7D4CDB"/>
<path d="M228.019 179.821H154.828V270.737H228.019V179.821Z" fill="#3F3D56"/>
<path d="M217.683 230.431H165.403V232.845H217.683V230.431Z" fill="#7D4CDB"/>
<path d="M217.683 238.879H165.403V241.293H217.683V238.879Z" fill="#7D4CDB"/>
<path d="M217.683 247.327H165.403V249.741H217.683V247.327Z" fill="#7D4CDB"/>
<path d="M217.683 255.775H165.403V258.189H217.683V255.775Z" fill="#7D4CDB"/>
<path opacity="0.3" d="M181.419 212.181H164.808C163.675 205.626 163.675 198.925 164.808 192.37H181.419C179.547 198.841 179.547 205.71 181.419 212.181Z" fill="#7D4CDB"/>
<path opacity="0.3" d="M218.889 194.225H188.326V196.237H218.889V194.225Z" fill="#7D4CDB"/>
<path opacity="0.3" d="M218.889 201.466H188.326V203.478H218.889V201.466Z" fill="#7D4CDB"/>
<path opacity="0.3" d="M218.889 208.708H188.326V210.719H218.889V208.708Z" fill="#7D4CDB"/>
<path opacity="0.3" d="M218.889 215.949H188.326V217.96H218.889V215.949Z" fill="#7D4CDB"/>
</svg>
