<svg width="458" height="286" viewBox="0 0 458 286" fill="none" xmlns="http://www.w3.org/2000/svg">
<path d="M348.175 254.465C405.448 254.465 451.876 207.941 451.876 150.552C451.876 93.1617 405.448 46.6381 348.175 46.6381C290.903 46.6381 244.475 93.1617 244.475 150.552C244.475 207.941 290.903 254.465 348.175 254.465Z" fill="#F2F2F2"/>
<path d="M56.2621 79.367C78.1338 79.367 95.8643 61.6001 95.8643 39.6835C95.8643 17.7669 78.1338 0 56.2621 0C34.3904 0 16.6599 17.7669 16.6599 39.6835C16.6599 61.6001 34.3904 79.367 56.2621 79.367Z" fill="#6FFFB0"/>
<path d="M127.301 213.145C184.573 213.145 231.002 166.621 231.002 109.232C231.002 51.8418 184.573 5.31824 127.301 5.31824C70.0288 5.31824 23.6005 51.8418 23.6005 109.232C23.6005 166.621 70.0288 213.145 127.301 213.145Z" fill="#F2F2F2"/>
<path d="M122.402 218.873C185.311 218.873 236.309 216.125 236.309 212.736C236.309 209.347 185.311 206.6 122.402 206.6C59.4925 206.6 8.49445 209.347 8.49445 212.736C8.49445 216.125 59.4925 218.873 122.402 218.873Z" fill="#3F3D56"/>
<path opacity="0.1" d="M99.5387 217.18C146.664 217.18 184.867 215.285 184.867 212.948C184.867 210.61 146.664 208.716 99.5387 208.716C52.4131 208.716 14.2102 210.61 14.2102 212.948C14.2102 215.285 52.4131 217.18 99.5387 217.18Z" fill="black"/>
<path d="M344.093 262.238C407.002 262.238 458 259.216 458 255.488C458 251.76 407.002 248.738 344.093 248.738C281.183 248.738 230.185 251.76 230.185 255.488C230.185 259.216 281.183 262.238 344.093 262.238Z" fill="#3F3D56"/>
<path opacity="0.1" d="M321.229 260.376C368.355 260.376 406.558 258.292 406.558 255.721C406.558 253.15 368.355 251.065 321.229 251.065C274.104 251.065 235.901 253.15 235.901 255.721C235.901 258.292 274.104 260.376 321.229 260.376Z" fill="black"/>
<path d="M163.677 243.419C203.822 243.419 236.367 241.771 236.367 239.737C236.367 237.704 203.822 236.055 163.677 236.055C123.531 236.055 90.9869 237.704 90.9869 239.737C90.9869 241.771 123.531 243.419 163.677 243.419Z" fill="#3F3D56"/>
<path d="M35.0716 229.241C54.4412 229.241 70.1433 228.445 70.1433 227.464C70.1433 226.483 54.4412 225.688 35.0716 225.688C15.7021 225.688 0 226.483 0 227.464C0 228.445 15.7021 229.241 35.0716 229.241Z" fill="#3F3D56"/>
<path d="M389.052 286C425.101 286 454.326 284.52 454.326 282.694C454.326 280.868 425.101 279.387 389.052 279.387C353.002 279.387 323.778 280.868 323.778 282.694C323.778 284.52 353.002 286 389.052 286Z" fill="#3F3D56"/>
<path d="M382.062 177.144H251.415V254.874H382.062V177.144Z" fill="#3F3D56"/>
<path d="M293.467 246.283C309.702 246.283 322.863 233.095 322.863 216.827C322.863 200.559 309.702 187.371 293.467 187.371C277.232 187.371 264.072 200.559 264.072 216.827C264.072 233.095 277.232 246.283 293.467 246.283Z" fill="#7D4CDB"/>
<path d="M341.643 189.417H331.845V199.236H341.643V189.417Z" fill="#7D4CDB"/>
<path opacity="0.5" d="M353.891 189.417H344.093V199.236H353.891V189.417Z" fill="#7D4CDB"/>
<path opacity="0.2" d="M366.139 189.417H356.341V199.236H366.139V189.417Z" fill="#7D4CDB"/>
<path d="M341.643 201.69H331.845V211.509H341.643V201.69Z" fill="#2F2E41"/>
<path opacity="0.5" d="M353.891 201.69H344.093V211.509H353.891V201.69Z" fill="#2F2E41"/>
<path opacity="0.2" d="M366.139 201.69H356.341V211.509H366.139V201.69Z" fill="#2F2E41"/>
<path d="M341.643 213.964H331.845V223.782H341.643V213.964Z" fill="#6FFFB0"/>
<path opacity="0.5" d="M353.891 213.964H344.093V223.782H353.891V213.964Z" fill="#6CC895"/>
<path opacity="0.2" d="M366.139 213.964H356.341V223.782H366.139V213.964Z" fill="#3E6C53"/>
<path opacity="0.5" d="M293.467 187.371V246.283C309.702 246.283 323.679 233.095 323.679 216.827C323.679 200.559 309.702 187.371 293.467 187.371Z" fill="#3F3D56"/>
<path d="M410.028 182.667C410.028 182.667 427.176 190.44 421.052 199.44C414.928 208.441 396.555 225.623 396.147 229.305C395.739 232.987 393.289 236.26 393.289 236.26C393.289 236.26 385.124 227.669 385.94 226.85C386.757 226.032 394.922 218.259 395.331 216.214C395.739 214.168 407.987 198.213 407.987 198.213L396.964 188.394L410.028 182.667Z" fill="#FFB9B9"/>
<path opacity="0.1" d="M410.028 182.667C410.028 182.667 427.176 190.44 421.052 199.44C414.928 208.441 396.555 225.623 396.147 229.305C395.739 232.987 393.289 236.26 393.289 236.26C393.289 236.26 385.124 227.669 385.94 226.85C386.757 226.032 394.922 218.259 395.331 216.214C395.739 214.168 407.987 198.213 407.987 198.213L396.964 188.394L410.028 182.667Z" fill="black"/>
<path d="M388.39 199.849C388.39 199.849 400.23 204.759 399.413 212.532C398.597 220.305 413.703 242.397 413.703 242.397C413.703 242.397 415.336 247.715 414.928 249.351C414.519 250.988 425.543 250.579 425.543 250.579V246.897C425.543 246.897 416.969 232.169 416.152 228.078C415.336 223.987 410.437 208.031 410.437 208.031C410.437 208.031 408.804 193.713 400.638 193.713C398.261 193.713 395.917 194.267 393.791 195.332C391.665 196.397 389.816 197.944 388.39 199.849Z" fill="#FFB9B9"/>
<path d="M389.002 162.825C389.002 162.825 413.499 182.871 412.682 184.508C411.865 186.144 400.026 192.281 397.984 192.69C395.943 193.099 381.499 162.825 381.499 162.825H389.002Z" fill="#2F2E41"/>
<path opacity="0.1" d="M389.002 162.825C389.002 162.825 413.499 182.871 412.682 184.508C411.865 186.144 400.026 192.281 397.984 192.69C395.943 193.099 381.499 162.825 381.499 162.825H389.002Z" fill="black"/>
<path d="M362.465 166.916C362.465 166.916 360.015 177.962 366.547 182.462C373.08 186.962 384.103 204.554 385.328 204.554C386.553 204.554 404.108 195.145 403.292 193.508C402.475 191.872 393.493 177.553 393.493 177.553L390.635 162.416C390.635 162.416 365.731 161.598 362.465 166.916Z" fill="#2F2E41"/>
<path d="M389.002 130.915L392.677 154.643L399.209 171.416C399.209 171.416 409.008 181.644 403.292 182.462C397.576 183.28 394.31 171.416 394.31 171.416L389.002 161.598V130.915Z" fill="#FFB9B9"/>
<path opacity="0.1" d="M389.002 130.915L392.677 154.643L399.209 171.416C399.209 171.416 409.008 181.644 403.292 182.462C397.576 183.28 394.31 171.416 394.31 171.416L389.002 161.598V130.915Z" fill="black"/>
<path d="M375.325 104.527C375.325 104.527 375.325 113.118 372.467 113.937C369.61 114.755 383.899 125.801 383.899 125.801C383.899 125.801 382.266 111.482 387.982 107.8L375.325 104.527Z" fill="#FFB9B9"/>
<path opacity="0.1" d="M375.325 104.527C375.325 104.527 375.325 113.118 372.467 113.937C369.61 114.755 383.899 125.801 383.899 125.801C383.899 125.801 382.266 111.482 387.982 107.8L375.325 104.527Z" fill="black"/>
<path d="M381.858 111.482C387.044 111.482 391.248 107.269 391.248 102.072C391.248 96.8757 387.044 92.663 381.858 92.663C376.672 92.663 372.467 96.8757 372.467 102.072C372.467 107.269 376.672 111.482 381.858 111.482Z" fill="#FFB9B9"/>
<path d="M382.266 121.71C382.266 121.71 373.692 111.073 372.467 111.482C371.243 111.891 362.261 120.891 361.444 123.755C360.628 126.619 358.994 147.074 360.219 151.165C361.444 155.257 361.444 165.893 361.036 166.712C360.628 167.53 358.178 169.575 360.628 169.575C363.077 169.575 371.651 163.439 377.367 164.666C383.082 165.893 390.84 164.257 391.248 163.439C391.656 162.62 390.84 141.347 391.248 139.71C391.656 138.074 390.431 129.892 390.023 128.255C389.615 126.619 389.615 120.073 385.532 118.437L383.791 118.264L383.694 122.311L382.266 121.71Z" fill="#7D4CDB"/>
<path d="M364.302 142.983C364.302 142.983 365.119 155.666 371.243 160.984C377.367 166.302 390.431 175.303 391.248 176.939C392.064 178.576 399.822 187.167 401.455 183.485C401.929 182.337 402.043 181.072 401.782 179.858C401.545 178.65 401.064 177.505 400.369 176.491C399.673 175.477 398.778 174.616 397.739 173.961L394.106 171.621L376.142 152.802L375.325 142.983H364.302Z" fill="#FFB9B9"/>
<path d="M387.778 225.419C387.778 225.419 383.082 224.396 381.449 227.26C379.816 230.123 383.082 237.896 383.082 237.896C383.082 237.896 392.473 257.534 394.106 255.079C395.739 252.624 392.881 243.624 392.881 243.624C392.881 243.624 396.964 234.623 395.331 234.214C393.697 233.805 387.778 230.328 387.778 225.419Z" fill="#2F2E41"/>
<path d="M416.561 248.942C416.561 248.942 414.111 247.715 413.703 248.942C413.294 250.17 410.845 256.306 413.703 257.124C416.561 257.943 444.731 258.761 443.915 257.124C443.098 255.488 438.607 253.443 435.749 252.624C432.891 251.806 425.543 245.669 425.543 245.669C425.543 245.669 421.46 250.988 416.561 248.942Z" fill="#2F2E41"/>
<path d="M391.317 94.6045C391.141 94.0109 390.752 93.503 390.226 93.178C390.253 92.542 390.176 91.906 389.996 91.2954C389.396 89.5181 387.975 89.6199 386.634 88.8341C386.052 88.4932 386.088 88.1919 385.785 87.6319C385.388 86.8978 384.794 86.2901 384.069 85.8777C383.209 85.3284 382.301 84.7627 381.283 84.6932C379.144 84.5471 377.504 86.5631 375.46 87.2101C374.559 87.4952 373.59 87.507 372.684 87.7766C371.779 88.0462 370.875 88.6899 370.74 89.6271C370.678 90.0597 370.787 90.5036 370.724 90.9361C370.599 91.7958 369.846 92.3979 369.342 93.105C368.228 94.6687 368.355 96.8778 369.246 98.5791C369.434 98.9311 369.649 99.268 369.889 99.5866C369.963 100.391 370.194 101.173 370.567 101.888C371.458 103.59 372.992 104.861 374.593 105.917C374.462 105.353 374.383 104.778 374.356 104.199C374.333 104.006 374.358 103.811 374.429 103.63C374.607 103.256 375.078 103.157 375.438 102.952C376.182 102.528 376.474 101.59 376.496 100.733C376.517 99.8751 376.336 99.016 376.425 98.1628C376.429 97.9666 376.473 97.7733 376.556 97.5954C376.639 97.4175 376.758 97.2589 376.905 97.1299C377.18 96.9729 377.494 96.8979 377.81 96.9138C379.335 96.8515 380.928 96.8234 382.273 96.1007C382.707 95.812 383.174 95.5756 383.663 95.3964C384.806 95.0977 385.975 95.9006 386.633 96.8833C387.292 97.8661 387.621 99.0355 388.229 100.051C388.837 101.066 389.887 101.971 391.062 101.851C391.128 101.851 391.194 101.837 391.254 101.81C391.315 101.783 391.369 101.744 391.413 101.694C391.464 101.603 391.486 101.499 391.478 101.395L391.543 96.8928C391.598 96.1227 391.521 95.3489 391.317 94.6045Z" fill="#2F2E41"/>
<path d="M367.976 122.119C367.976 122.119 376.958 126.21 376.55 134.801C376.142 143.392 379 144.211 372.059 145.029C365.119 145.847 363.485 145.029 363.077 145.847C362.669 146.665 360.219 127.028 361.852 124.983C363.485 122.937 367.976 122.119 367.976 122.119Z" fill="#7D4CDB"/>
<path d="M187.317 52.775C194.532 52.775 200.381 46.9137 200.381 39.6835C200.381 32.4533 194.532 26.592 187.317 26.592C180.101 26.592 174.252 32.4533 174.252 39.6835C174.252 46.9137 180.101 52.775 187.317 52.775Z" fill="#2F2E41"/>
<path d="M196.095 183.076L188.746 203.122C188.746 203.122 182.622 208.032 186.296 209.668C189.971 211.304 197.319 208.032 197.319 208.032L203.035 193.304L202.219 183.076H196.095Z" fill="#2F2E41"/>
<path opacity="0.1" d="M196.095 183.076L188.746 203.122C188.746 203.122 182.622 208.032 186.296 209.668C189.971 211.304 197.319 208.032 197.319 208.032L203.035 193.304L202.219 183.076H196.095Z" fill="black"/>
<path d="M196.707 64.23L202.831 65.0482C202.831 65.0482 205.689 87.5491 204.464 89.1856C203.239 90.822 197.115 97.3677 194.666 95.7313C192.216 94.0949 196.707 64.23 196.707 64.23Z" fill="#575A89"/>
<path d="M138.12 105.345C138.12 105.345 129.547 109.027 127.914 109.436C126.28 109.846 123.831 113.937 126.689 114.755C129.547 115.573 140.57 107.391 140.57 107.391L138.12 105.345Z" fill="#A0616A"/>
<path d="M198.953 191.258L203.443 208.031C203.443 208.031 203.852 214.168 205.893 214.577C207.934 214.986 214.059 212.532 214.059 211.713C214.059 210.895 211.609 204.349 211.609 204.349C211.609 204.349 211.609 199.44 209.159 197.395C206.71 195.349 204.503 188.497 204.503 188.497L198.953 191.258Z" fill="#2F2E41"/>
<path d="M204.668 152.802C205.493 154.729 205.391 168.708 204.489 178.011C204.052 182.532 203.427 185.948 202.627 186.349L196.776 184.884L194.462 184.303L194.4 179.214L194.053 151.165L187.113 122.119V114.755L204.668 116.391L207.453 120.773L207.526 120.891C207.526 120.891 203.444 149.938 204.668 152.802Z" fill="#2F2E41"/>
<path opacity="0.1" d="M200.994 161.802C201.868 163.115 203.325 170.979 204.489 178.011C204.052 182.532 203.427 185.948 202.627 186.349L196.776 184.884C196.687 184.696 196.597 184.5 196.503 184.303C195.756 182.732 195.054 180.998 194.4 179.214L194.053 151.165L187.113 122.119V114.755L204.668 116.391L207.453 120.773L191.195 119.664L194.87 135.619L199.361 152.393C199.361 152.393 199.361 159.348 200.994 161.802Z" fill="black"/>
<path d="M172.007 98.3905C172.007 98.3905 166.291 111.073 174.456 128.664C179.509 139.612 184.006 150.809 187.929 162.211C187.929 162.211 190.787 175.712 194.87 184.303C198.953 192.894 198.136 193.304 198.136 193.304L204.668 189.622C204.668 189.622 200.994 164.257 199.361 161.802C197.728 159.348 197.728 152.393 197.728 152.393L193.237 135.619L189.562 119.664L207.526 120.891C207.526 120.891 207.526 97.5723 199.361 93.0721L172.007 98.3905Z" fill="#2F2E41"/>
<path d="M178.743 45.8201C178.743 45.8201 178.743 52.3659 176.702 52.775C174.66 53.1841 170.578 53.1841 169.353 55.2296C168.128 57.2752 178.743 84.2763 178.743 84.2763L189.766 77.3215L193.441 58.9116C193.441 58.9116 188.133 55.6387 188.133 54.0023V46.6383L178.743 45.8201Z" fill="#A0616A"/>
<path opacity="0.1" d="M178.743 45.8201C178.743 45.8201 178.743 52.3659 176.702 52.775C174.66 53.1841 170.578 53.1841 169.353 55.2296C168.128 57.2752 178.743 84.2763 178.743 84.2763L189.766 77.3215L193.441 58.9116C193.441 58.9116 188.133 55.6387 188.133 54.0023V46.6383L178.743 45.8201Z" fill="black"/>
<path d="M185.071 52.9795C190.483 52.9795 194.87 48.5835 194.87 43.1609C194.87 37.7382 190.483 33.3423 185.071 33.3423C179.66 33.3423 175.273 37.7382 175.273 43.1609C175.273 48.5835 179.66 52.9795 185.071 52.9795Z" fill="#A0616A"/>
<path d="M179.968 76.0941C179.968 76.0941 176.294 52.775 175.477 52.775C174.66 52.775 163.229 55.2296 162.412 55.6387C161.596 56.0478 158.738 59.7298 158.738 59.7298L164.454 76.0941C164.454 76.0941 166.903 87.5492 168.536 89.5947C170.169 91.6402 173.436 97.3677 171.803 98.186C170.169 99.0042 168.536 100.232 170.169 100.232C171.803 100.232 185.275 97.7769 186.092 99.0042C186.909 100.232 200.381 94.504 200.381 94.0949C200.381 93.6858 198.748 74.4577 198.748 74.4577L202.831 65.0482L190.583 56.4569L179.968 76.0941Z" fill="#575A89"/>
<path d="M162.821 57.6842L158.738 59.7297C158.738 59.7297 147.306 85.9127 146.49 86.3218C145.673 86.7309 141.591 94.5039 141.182 96.1404C140.774 97.7768 139.958 103.095 138.733 103.913C138.076 104.36 137.394 104.77 136.691 105.141C136.691 105.141 139.141 109.232 140.366 109.232C141.591 109.232 145.673 103.504 145.673 103.504C145.673 103.504 154.655 109.232 157.105 104.732C159.554 100.231 165.679 71.5939 165.679 71.5939L162.821 57.6842Z" fill="#575A89"/>
<path d="M194.87 70.162C194.87 70.162 189.154 56.2524 185.888 57.8888C182.622 59.5252 188.338 69.3438 192.012 70.9802L194.87 70.162Z" fill="#A0616A"/>
<path opacity="0.1" d="M189.154 70.5711L194.882 69.2736L196.095 75.4804C196.095 75.4804 201.402 84.8899 200.177 88.981C198.953 93.0721 191.604 99.6178 189.154 95.9359C186.704 92.2539 184.663 86.5264 186.296 83.2535C187.929 79.9806 190.379 72.2076 189.154 70.5711Z" fill="black"/>
<path d="M190.379 69.7529L196.107 68.4553L197.319 74.6622C197.319 74.6622 202.627 84.0717 201.402 88.1628C200.177 92.2539 192.828 98.7996 190.379 95.1176C187.929 91.4356 185.888 85.7081 187.521 82.4353C189.154 79.1624 191.604 71.3893 190.379 69.7529Z" fill="#575A89"/>
<path d="M196.598 41.1895C197.698 38.8365 194.617 35.0642 189.717 32.7638C184.816 30.4634 179.952 30.5061 178.852 32.859C177.752 35.212 180.833 38.9843 185.733 41.2847C190.634 43.5851 195.498 43.5425 196.598 41.1895Z" fill="#2F2E41"/>
<path d="M195.074 34.3651C198.231 34.3651 200.79 31.8008 200.79 28.6375C200.79 25.4743 198.231 22.91 195.074 22.91C191.917 22.91 189.358 25.4743 189.358 28.6375C189.358 31.8008 191.917 34.3651 195.074 34.3651Z" fill="#2F2E41"/>
<path d="M189.766 26.592C189.767 25.1794 190.288 23.8166 191.23 22.7657C192.172 21.7147 193.468 21.0497 194.87 20.8984C194.072 20.811 193.264 20.8932 192.5 21.1395C191.735 21.3858 191.031 21.7907 190.433 22.3279C189.835 22.865 189.357 23.5224 189.03 24.2571C188.703 24.9918 188.533 25.7874 188.533 26.592C188.533 27.3966 188.703 28.1922 189.03 28.9269C189.357 29.6616 189.835 30.319 190.433 30.8562C191.031 31.3933 191.735 31.7983 192.5 32.0446C193.264 32.2909 194.072 32.373 194.87 32.2857C193.468 32.1343 192.172 31.4693 191.23 30.4183C190.288 29.3674 189.767 28.0047 189.766 26.592Z" fill="#2F2E41"/>
<path d="M169.353 113.323H26.4584V212.736H169.353V113.323Z" fill="#3F3D56"/>
<path d="M56.6703 123.142H37.8899V141.961H56.6703V123.142Z" fill="#F2F2F2"/>
<path d="M56.6703 153.825H37.8899V172.644H56.6703V153.825Z" fill="#7D4CDB"/>
<path d="M56.6703 184.508H37.8899V203.327H56.6703V184.508Z" fill="#F2F2F2"/>
<path d="M155.063 129.074H65.6523V130.71H155.063V129.074Z" fill="#F2F2F2"/>
<path d="M93.4147 134.392H65.6523V136.028H93.4147V134.392Z" fill="#F2F2F2"/>
<path d="M155.063 159.757H65.6523V161.393H155.063V159.757Z" fill="#F2F2F2"/>
<path d="M93.4147 165.075H65.6523V166.711H93.4147V165.075Z" fill="#F2F2F2"/>
<path d="M155.063 190.44H65.6523V192.076H155.063V190.44Z" fill="#F2F2F2"/>
<path d="M93.4147 195.758H65.6523V197.395H93.4147V195.758Z" fill="#F2F2F2"/>
<path d="M404.108 273.666C404.108 281.994 399.168 284.901 393.074 284.901C392.932 284.901 392.791 284.899 392.651 284.896C392.369 284.89 392.088 284.877 391.812 284.858C386.311 284.468 382.039 281.411 382.039 273.666C382.039 265.652 392.258 255.539 393.028 254.789L393.029 254.788C393.058 254.759 393.074 254.744 393.074 254.744C393.074 254.744 404.108 265.339 404.108 273.666Z" fill="#7D4CDB"/>
<path d="M392.671 283.627L396.707 277.977L392.661 284.248L392.651 284.896C392.369 284.89 392.088 284.877 391.812 284.858L392.247 276.526L392.244 276.461L392.251 276.45L392.293 275.662L388.236 269.376L392.305 275.072L392.315 275.239L392.643 268.945L389.17 262.448L392.686 267.84L393.028 254.789L393.029 254.744V254.788L392.972 265.079L396.429 260.999L392.958 265.966L392.866 271.602L396.095 266.193L392.853 272.431L392.802 275.565L397.487 268.036L392.784 276.658L392.671 283.627Z" fill="#3F3D56"/>
<path d="M46.0553 216.8C46.0553 225.128 41.1153 228.035 35.0205 228.035C34.8794 228.035 34.7382 228.033 34.598 228.03C34.3157 228.024 34.0354 228.011 33.7591 227.992C28.2585 227.602 23.9857 224.545 23.9857 216.8C23.9857 208.786 34.205 198.673 34.9748 197.923L34.9758 197.922C35.0053 197.893 35.0205 197.878 35.0205 197.878C35.0205 197.878 46.0553 208.473 46.0553 216.8Z" fill="#7D4CDB"/>
<path d="M34.6183 226.761L38.6544 221.111L34.6081 227.382L34.598 228.03C34.3156 228.024 34.0353 228.011 33.7591 227.992L34.1937 219.661L34.1907 219.595L34.1978 219.584L34.2395 218.796L30.183 212.51L34.2516 218.206L34.2618 218.373L34.5899 212.079L31.1174 205.583L34.6325 210.974L34.9748 197.923L34.9758 197.878V197.922L34.9189 208.213L38.3761 204.133L34.9047 209.1L34.8133 214.736L38.042 209.327L34.8001 215.565L34.7493 218.699L39.4344 211.17L34.731 219.792L34.6183 226.761Z" fill="#3F3D56"/>
</svg>
